M48
; DRILL file KiCad 10.0.1 date 2026-07-20T10:01:52
; FORMAT={-:-/ absolute / metric / decimal}
; #@! TF.CreationDate,2026-07-20T10:01:52-07:00
; #@! TF.GenerationSoftware,Kicad,Pcbnew,10.0.1
; #@! TF.FileFunction,Plated,1,2,PTH
FMAT,2
METRIC
; #@! TA.AperFunction,Plated,PTH,ComponentDrill
T1C0.800
; #@! TA.AperFunction,Plated,PTH,ComponentDrill
T2C1.499
%
G90
G05
T1
X164.1Y-19.0
X164.1Y-21.54
X164.1Y-24.08
X164.1Y-26.62
X164.1Y-29.16
X164.1Y-31.7
X164.1Y-34.24
X164.1Y-36.78
X164.1Y-39.32
X164.1Y-41.86
X164.1Y-44.4
X164.1Y-46.94
X164.1Y-49.48
X164.1Y-52.02
X164.1Y-54.56
X164.1Y-57.1
X164.1Y-59.64
X164.1Y-62.18
X164.1Y-64.72
X169.88Y-92.0
X169.88Y-95.5
X177.5Y-92.0
X177.5Y-95.5
X183.69Y-92.5
X183.69Y-95.5
X189.496Y-62.177
X189.496Y-64.717
X189.5Y-19.0
X189.5Y-21.54
X189.5Y-24.08
X189.5Y-26.62
X189.5Y-29.16
X189.5Y-31.7
X189.5Y-34.24
X189.5Y-36.78
X189.5Y-39.32
X189.5Y-41.86
X189.5Y-44.4
X189.5Y-46.94
X189.5Y-49.48
X189.5Y-52.02
X189.5Y-54.56
X189.5Y-57.1
X189.5Y-59.64
X191.31Y-92.5
X191.31Y-95.5
T2
X156.65Y-104.54
X157.15Y-78.04
X163.0Y-102.0
X163.5Y-75.5
X183.5Y-78.0
X183.5Y-104.5
X189.85Y-75.46
X189.85Y-101.96
M30
