%TF.GenerationSoftware,KiCad,Pcbnew,10.0.1*%
%TF.CreationDate,2026-07-20T10:01:25-07:00*%
%TF.ProjectId,macropad,6d616372-6f70-4616-942e-6b696361645f,rev?*%
%TF.SameCoordinates,Original*%
%TF.FileFunction,Copper,L2,Bot*%
%TF.FilePolarity,Positive*%
%FSLAX46Y46*%
G04 Gerber Fmt 4.6, Leading zero omitted, Abs format (unit mm)*
G04 Created by KiCad (PCBNEW 10.0.1) date 2026-07-20 10:01:25*
%MOMM*%
%LPD*%
G01*
G04 APERTURE LIST*
G04 Aperture macros list*
%AMRoundRect*
0 Rectangle with rounded corners*
0 $1 Rounding radius*
0 $2 $3 $4 $5 $6 $7 $8 $9 X,Y pos of 4 corners*
0 Add a 4 corners polygon primitive as box body*
4,1,4,$2,$3,$4,$5,$6,$7,$8,$9,$2,$3,0*
0 Add four circle primitives for the rounded corners*
1,1,$1+$1,$2,$3*
1,1,$1+$1,$4,$5*
1,1,$1+$1,$6,$7*
1,1,$1+$1,$8,$9*
0 Add four rect primitives between the rounded corners*
20,1,$1+$1,$2,$3,$4,$5,0*
20,1,$1+$1,$4,$5,$6,$7,0*
20,1,$1+$1,$6,$7,$8,$9,0*
20,1,$1+$1,$8,$9,$2,$3,0*%
G04 Aperture macros list end*
%TA.AperFunction,ComponentPad*%
%ADD10RoundRect,0.250000X-0.550000X-0.550000X0.550000X-0.550000X0.550000X0.550000X-0.550000X0.550000X0*%
%TD*%
%TA.AperFunction,ComponentPad*%
%ADD11C,1.600000*%
%TD*%
%TA.AperFunction,ComponentPad*%
%ADD12C,2.286000*%
%TD*%
%TA.AperFunction,ComponentPad*%
%ADD13O,2.000000X1.200000*%
%TD*%
%TA.AperFunction,ComponentPad*%
%ADD14R,2.000000X1.200000*%
%TD*%
G04 APERTURE END LIST*
D10*
%TO.P,D1,1,K_1*%
%TO.N,R1*%
X169880000Y-92000000D03*
D11*
%TO.P,D1,2,A_2*%
%TO.N,Net-(D1-A)*%
X177500000Y-92000000D03*
%TD*%
D12*
%TO.P,SW5,1,1_1*%
%TO.N,/C2*%
X189850000Y-101960000D03*
%TO.P,SW5,2,2_2*%
%TO.N,Net-(D6-A)*%
X183500000Y-104500000D03*
%TD*%
%TO.P,SW4,1,1_1*%
%TO.N,/C1*%
X163000000Y-102000000D03*
%TO.P,SW4,2,2_2*%
%TO.N,Net-(D4-A)*%
X156650000Y-104540000D03*
%TD*%
%TO.P,SW2,1,1_1*%
%TO.N,/C2*%
X189850000Y-75460000D03*
%TO.P,SW2,2,2_2*%
%TO.N,Net-(D2-A)*%
X183500000Y-78000000D03*
%TD*%
%TO.P,SW1,1,1_1*%
%TO.N,/C1*%
X163500000Y-75500000D03*
%TO.P,SW1,2,2_2*%
%TO.N,Net-(D1-A)*%
X157150000Y-78040000D03*
%TD*%
D10*
%TO.P,D6,1,K_1*%
%TO.N,R2*%
X183690000Y-95500000D03*
D11*
%TO.P,D6,2,A_2*%
%TO.N,Net-(D6-A)*%
X191310000Y-95500000D03*
%TD*%
D10*
%TO.P,D4,1,K_1*%
%TO.N,R2*%
X169880000Y-95500000D03*
D11*
%TO.P,D4,2,A_2*%
%TO.N,Net-(D4-A)*%
X177500000Y-95500000D03*
%TD*%
D10*
%TO.P,D2,1,K_1*%
%TO.N,R1*%
X183690000Y-92500000D03*
D11*
%TO.P,D2,2,A_2*%
%TO.N,Net-(D2-A)*%
X191310000Y-92500000D03*
%TD*%
D13*
%TO.P,U2,38,GND_38*%
%TO.N,GND*%
X189500000Y-19000000D03*
%TO.P,U2,37,GPIO23_37*%
%TO.N,/C2*%
X189500000Y-21540000D03*
%TO.P,U2,36,GPIO22_36*%
%TO.N,unconnected-(U2-GPIO22-Pad36)*%
X189500000Y-24080000D03*
%TO.P,U2,35,U0TXD/GPIO1_35*%
%TO.N,unconnected-(U2-U0TXD{slash}GPIO1-Pad35)*%
X189500000Y-26620000D03*
%TO.P,U2,34,U0RXD/GPIO3_34*%
%TO.N,unconnected-(U2-U0RXD{slash}GPIO3-Pad34)*%
X189500000Y-29160000D03*
%TO.P,U2,33,GPIO21_33*%
%TO.N,unconnected-(U2-GPIO21-Pad33)*%
X189500000Y-31700000D03*
%TO.P,U2,32,GND_32*%
%TO.N,GND*%
X189500000Y-34240000D03*
%TO.P,U2,31,GPIO19_31*%
%TO.N,/C1*%
X189500000Y-36780000D03*
%TO.P,U2,30,GPIO18_30*%
%TO.N,unconnected-(U2-GPIO18-Pad30)*%
X189500000Y-39320000D03*
%TO.P,U2,29,GPIO5_29*%
%TO.N,unconnected-(U2-GPIO5-Pad29)*%
X189500000Y-41860000D03*
%TO.P,U2,28,GPIO17_28*%
%TO.N,unconnected-(U2-GPIO17-Pad28)*%
X189500000Y-44400000D03*
%TO.P,U2,27,GPIO16_27*%
%TO.N,unconnected-(U2-GPIO16-Pad27)*%
X189500000Y-46940000D03*
%TO.P,U2,26,ADC2_CH0/GPIO4_26*%
%TO.N,R1*%
X189500000Y-49480000D03*
%TO.P,U2,25,GPIO0/BOOT/ADC2_CH1_25*%
%TO.N,unconnected-(U2-GPIO0{slash}BOOT{slash}ADC2_CH1-Pad25)*%
X189500000Y-52020000D03*
%TO.P,U2,24,ADC2_CH2/GPIO2_24*%
%TO.N,unconnected-(U2-ADC2_CH2{slash}GPIO2-Pad24)*%
X189500000Y-54560000D03*
%TO.P,U2,23,MTDO/GPIO15/ADC2_CH3_23*%
%TO.N,unconnected-(U2-MTDO{slash}GPIO15{slash}ADC2_CH3-Pad23)*%
X189500000Y-57100000D03*
%TO.P,U2,22,SD_DATA1/GPIO8_22*%
%TO.N,unconnected-(U2-SD_DATA1{slash}GPIO8-Pad22)*%
X189500000Y-59640000D03*
%TO.P,U2,21,SD_DATA0/GPIO7_21*%
%TO.N,unconnected-(U2-SD_DATA0{slash}GPIO7-Pad21)*%
X189496320Y-62177280D03*
%TO.P,U2,20,SD_CLK/GPIO6_20*%
%TO.N,unconnected-(U2-SD_CLK{slash}GPIO6-Pad20)*%
X189496320Y-64717280D03*
%TO.P,U2,19,5V_19*%
%TO.N,unconnected-(U2-5V-Pad19)*%
X164100000Y-64720000D03*
%TO.P,U2,18,CMD_18*%
%TO.N,unconnected-(U2-CMD-Pad18)*%
X164100000Y-62180000D03*
%TO.P,U2,17,SD_DATA3/GPIO10_17*%
%TO.N,unconnected-(U2-SD_DATA3{slash}GPIO10-Pad17)*%
X164100000Y-59640000D03*
%TO.P,U2,16,SD_DATA2/GPIO9_16*%
%TO.N,unconnected-(U2-SD_DATA2{slash}GPIO9-Pad16)*%
X164100000Y-57100000D03*
%TO.P,U2,15,MTCK/GPIO13/ADC2_CH4_15*%
%TO.N,unconnected-(U2-MTCK{slash}GPIO13{slash}ADC2_CH4-Pad15)*%
X164100000Y-54560000D03*
%TO.P,U2,14,GND_14*%
%TO.N,GND*%
X164100000Y-52020000D03*
%TO.P,U2,13,MTDI/GPIO12/ADC2_CH5_13*%
%TO.N,unconnected-(U2-MTDI{slash}GPIO12{slash}ADC2_CH5-Pad13)*%
X164100000Y-49480000D03*
%TO.P,U2,12,MTMS/GPIO14/ADC2_CH6_12*%
%TO.N,unconnected-(U2-MTMS{slash}GPIO14{slash}ADC2_CH6-Pad12)*%
X164100000Y-46940000D03*
%TO.P,U2,11,ADC2_CH7/GPIO27_11*%
%TO.N,unconnected-(U2-ADC2_CH7{slash}GPIO27-Pad11)*%
X164100000Y-44400000D03*
%TO.P,U2,10,DAC_2/ADC2_CH9/GPIO26_10*%
%TO.N,unconnected-(U2-DAC_2{slash}ADC2_CH9{slash}GPIO26-Pad10)*%
X164100000Y-41860000D03*
%TO.P,U2,9,DAC_1/ADC2_CH8/GPIO25_9*%
%TO.N,unconnected-(U2-DAC_1{slash}ADC2_CH8{slash}GPIO25-Pad9)*%
X164100000Y-39320000D03*
%TO.P,U2,8,32K_XN/GPIO33/ADC1_CH5_8*%
%TO.N,unconnected-(U2-32K_XN{slash}GPIO33{slash}ADC1_CH5-Pad8)*%
X164100000Y-36780000D03*
%TO.P,U2,7,32K_XP/GPIO32/ADC1_CH4_7*%
%TO.N,R2*%
X164100000Y-34240000D03*
%TO.P,U2,6,VDET_2/GPIO35/ADC1_CH7_6*%
%TO.N,unconnected-(U2-VDET_2{slash}GPIO35{slash}ADC1_CH7-Pad6)*%
X164100000Y-31700000D03*
%TO.P,U2,5,VDET_1/GPIO34/ADC1_CH6_5*%
%TO.N,unconnected-(U2-VDET_1{slash}GPIO34{slash}ADC1_CH6-Pad5)*%
X164100000Y-29160000D03*
%TO.P,U2,4,SENSOR_VN/GPIO39/ADC1_CH3_4*%
%TO.N,unconnected-(U2-SENSOR_VN{slash}GPIO39{slash}ADC1_CH3-Pad4)*%
X164100000Y-26620000D03*
%TO.P,U2,3,SENSOR_VP/GPIO36/ADC1_CH0_3*%
%TO.N,unconnected-(U2-SENSOR_VP{slash}GPIO36{slash}ADC1_CH0-Pad3)*%
X164100000Y-24080000D03*
%TO.P,U2,2,CHIP_PU_2*%
%TO.N,unconnected-(U2-CHIP_PU-Pad2)*%
X164100000Y-21540000D03*
D14*
%TO.P,U2,1,3V3_1*%
%TO.N,+3.3V*%
X164100000Y-19000000D03*
%TD*%
M02*
