%TF.GenerationSoftware,KiCad,Pcbnew,10.0.1*%
%TF.CreationDate,2026-07-20T10:01:26-07:00*%
%TF.ProjectId,macropad,6d616372-6f70-4616-942e-6b696361645f,rev?*%
%TF.SameCoordinates,Original*%
%TF.FileFunction,Soldermask,Top*%
%TF.FilePolarity,Negative*%
%FSLAX46Y46*%
G04 Gerber Fmt 4.6, Leading zero omitted, Abs format (unit mm)*
G04 Created by KiCad (PCBNEW 10.0.1) date 2026-07-20 10:01:26*
%MOMM*%
%LPD*%
G01*
G04 APERTURE LIST*
G04 Aperture macros list*
%AMRoundRect*
0 Rectangle with rounded corners*
0 $1 Rounding radius*
0 $2 $3 $4 $5 $6 $7 $8 $9 X,Y pos of 4 corners*
0 Add a 4 corners polygon primitive as box body*
4,1,4,$2,$3,$4,$5,$6,$7,$8,$9,$2,$3,0*
0 Add four circle primitives for the rounded corners*
1,1,$1+$1,$2,$3*
1,1,$1+$1,$4,$5*
1,1,$1+$1,$6,$7*
1,1,$1+$1,$8,$9*
0 Add four rect primitives between the rounded corners*
20,1,$1+$1,$2,$3,$4,$5,0*
20,1,$1+$1,$4,$5,$6,$7,0*
20,1,$1+$1,$6,$7,$8,$9,0*
20,1,$1+$1,$8,$9,$2,$3,0*%
G04 Aperture macros list end*
%ADD10RoundRect,0.250000X-0.550000X-0.550000X0.550000X-0.550000X0.550000X0.550000X-0.550000X0.550000X0*%
%ADD11C,1.600000*%
%ADD12C,2.286000*%
%ADD13C,3.987800*%
%ADD14C,1.701800*%
%ADD15O,2.000000X1.200000*%
%ADD16R,2.000000X1.200000*%
G04 APERTURE END LIST*
D10*
%TO.C,D1*%
X169880000Y-92000000D03*
D11*
X177500000Y-92000000D03*
%TD*%
D12*
%TO.C,SW5*%
X189850000Y-101960000D03*
D13*
X187310000Y-107040000D03*
D12*
X183500000Y-104500000D03*
D14*
X192390000Y-107040000D03*
X182230000Y-107040000D03*
%TD*%
D12*
%TO.C,SW4*%
X163000000Y-102000000D03*
D13*
X160460000Y-107080000D03*
D12*
X156650000Y-104540000D03*
D14*
X165540000Y-107080000D03*
X155380000Y-107080000D03*
%TD*%
D12*
%TO.C,SW2*%
X189850000Y-75460000D03*
D13*
X187310000Y-80540000D03*
D12*
X183500000Y-78000000D03*
D14*
X192390000Y-80540000D03*
X182230000Y-80540000D03*
%TD*%
D12*
%TO.C,SW1*%
X163500000Y-75500000D03*
D13*
X160960000Y-80580000D03*
D12*
X157150000Y-78040000D03*
D14*
X166040000Y-80580000D03*
X155880000Y-80580000D03*
%TD*%
D10*
%TO.C,D6*%
X183690000Y-95500000D03*
D11*
X191310000Y-95500000D03*
%TD*%
D10*
%TO.C,D4*%
X169880000Y-95500000D03*
D11*
X177500000Y-95500000D03*
%TD*%
D10*
%TO.C,D2*%
X183690000Y-92500000D03*
D11*
X191310000Y-92500000D03*
%TD*%
D15*
%TO.C,U2*%
X189500000Y-19000000D03*
X189500000Y-21540000D03*
X189500000Y-24080000D03*
X189500000Y-26620000D03*
X189500000Y-29160000D03*
X189500000Y-31700000D03*
X189500000Y-34240000D03*
X189500000Y-36780000D03*
X189500000Y-39320000D03*
X189500000Y-41860000D03*
X189500000Y-44400000D03*
X189500000Y-46940000D03*
X189500000Y-49480000D03*
X189500000Y-52020000D03*
X189500000Y-54560000D03*
X189500000Y-57100000D03*
X189500000Y-59640000D03*
X189496320Y-62177280D03*
X189496320Y-64717280D03*
X164100000Y-64720000D03*
X164100000Y-62180000D03*
X164100000Y-59640000D03*
X164100000Y-57100000D03*
X164100000Y-54560000D03*
X164100000Y-52020000D03*
X164100000Y-49480000D03*
X164100000Y-46940000D03*
X164100000Y-44400000D03*
X164100000Y-41860000D03*
X164100000Y-39320000D03*
X164100000Y-36780000D03*
X164100000Y-34240000D03*
X164100000Y-31700000D03*
X164100000Y-29160000D03*
X164100000Y-26620000D03*
X164100000Y-24080000D03*
X164100000Y-21540000D03*
D16*
X164100000Y-19000000D03*
%TD*%
M02*
