%TF.GenerationSoftware,KiCad,Pcbnew,10.0.1*%
%TF.CreationDate,2026-07-20T10:01:26-07:00*%
%TF.ProjectId,macropad,6d616372-6f70-4616-942e-6b696361645f,rev?*%
%TF.SameCoordinates,Original*%
%TF.FileFunction,Legend,Top*%
%TF.FilePolarity,Positive*%
%FSLAX46Y46*%
G04 Gerber Fmt 4.6, Leading zero omitted, Abs format (unit mm)*
G04 Created by KiCad (PCBNEW 10.0.1) date 2026-07-20 10:01:26*
%MOMM*%
%LPD*%
G01*
G04 APERTURE LIST*
%ADD10C,0.150000*%
%ADD11C,0.120000*%
G04 APERTURE END LIST*
D10*
G36*
X153337689Y-33275963D02*
G01*
X153324888Y-33328674D01*
X153304781Y-33367227D01*
X153323790Y-33407939D01*
X153339769Y-33454056D01*
X153350242Y-33502599D01*
X153353813Y-33554806D01*
X153348114Y-33617764D01*
X153331183Y-33677173D01*
X153302705Y-33734019D01*
X153264524Y-33784958D01*
X153217257Y-33828914D01*
X153159884Y-33866277D01*
X153097006Y-33893413D01*
X153026791Y-33910166D01*
X152947821Y-33915980D01*
X152862826Y-33910538D01*
X152790942Y-33895247D01*
X152730078Y-33871222D01*
X152674343Y-33837187D01*
X152629774Y-33797597D01*
X152595012Y-33752215D01*
X152569252Y-33701147D01*
X152553942Y-33647773D01*
X152548789Y-33591198D01*
X152551220Y-33563171D01*
X152672009Y-33563171D01*
X152677165Y-33619031D01*
X152691513Y-33664052D01*
X152714200Y-33700475D01*
X152745526Y-33729806D01*
X152797169Y-33757982D01*
X152863337Y-33776289D01*
X152947821Y-33782990D01*
X153004090Y-33779425D01*
X153053695Y-33769223D01*
X153097602Y-33752887D01*
X153138155Y-33729808D01*
X153170973Y-33702557D01*
X153197009Y-33671004D01*
X153216419Y-33635148D01*
X153228045Y-33596678D01*
X153231997Y-33554806D01*
X153226094Y-33484873D01*
X153209588Y-33427372D01*
X152730811Y-33427372D01*
X152707230Y-33452904D01*
X152688129Y-33486906D01*
X152676009Y-33524646D01*
X152672009Y-33563171D01*
X152551220Y-33563171D01*
X152552918Y-33543598D01*
X152564909Y-33500950D01*
X152584094Y-33461714D01*
X152608995Y-33427372D01*
X152280000Y-33427372D01*
X152280000Y-33294382D01*
X153146573Y-33294382D01*
X153180723Y-33288707D01*
X153204366Y-33273074D01*
X153220224Y-33246590D01*
X153227784Y-33204806D01*
X153341174Y-33204806D01*
X153337689Y-33275963D01*
G37*
G36*
X152968418Y-32368352D02*
G01*
X153024818Y-32380669D01*
X153024818Y-32914035D01*
X153073992Y-32903950D01*
X153113815Y-32888382D01*
X153145901Y-32867873D01*
X153185105Y-32826882D01*
X153211725Y-32776831D01*
X153226831Y-32720702D01*
X153231997Y-32659228D01*
X153222227Y-32568248D01*
X153207817Y-32508749D01*
X153181622Y-32439471D01*
X153287990Y-32393248D01*
X153324712Y-32484651D01*
X153341906Y-32552861D01*
X153349919Y-32617416D01*
X153352409Y-32673272D01*
X153346953Y-32745779D01*
X153331177Y-32810695D01*
X153305514Y-32869277D01*
X153269643Y-32921810D01*
X153224266Y-32966163D01*
X153168311Y-33002939D01*
X153106316Y-33028941D01*
X153033520Y-33045400D01*
X152947821Y-33051238D01*
X152848639Y-33044314D01*
X152766882Y-33025034D01*
X152699496Y-32994956D01*
X152644043Y-32954640D01*
X152598056Y-32902957D01*
X152565138Y-32843469D01*
X152544760Y-32774636D01*
X152537984Y-32698429D01*
X152660774Y-32698429D01*
X152664805Y-32744050D01*
X152676355Y-32783581D01*
X152695090Y-32818169D01*
X152720320Y-32848678D01*
X152750040Y-32873758D01*
X152784727Y-32893763D01*
X152842067Y-32913059D01*
X152905811Y-32919652D01*
X152905811Y-32485633D01*
X152841896Y-32487343D01*
X152784727Y-32503157D01*
X152750126Y-32521539D01*
X152720417Y-32545650D01*
X152695090Y-32575942D01*
X152676456Y-32610571D01*
X152664858Y-32650960D01*
X152660774Y-32698429D01*
X152537984Y-32698429D01*
X152537615Y-32694277D01*
X152542826Y-32627317D01*
X152557563Y-32570515D01*
X152581029Y-32522086D01*
X152613232Y-32478702D01*
X152651538Y-32442469D01*
X152696495Y-32412848D01*
X152745762Y-32390277D01*
X152798320Y-32374409D01*
X152854703Y-32365282D01*
X152911853Y-32363246D01*
X152968418Y-32368352D01*
G37*
G36*
X153231997Y-32148700D02*
G01*
X153138208Y-32063276D01*
X153172961Y-32005485D01*
X153201894Y-31943597D01*
X153221485Y-31879585D01*
X153227784Y-31818300D01*
X153224256Y-31763484D01*
X153214930Y-31723039D01*
X153201222Y-31693736D01*
X153180907Y-31669651D01*
X153158377Y-31656203D01*
X153132590Y-31651727D01*
X153107060Y-31655416D01*
X153084500Y-31666354D01*
X153064019Y-31685310D01*
X153038468Y-31722267D01*
X153014316Y-31772138D01*
X152971634Y-31884795D01*
X152948901Y-31943075D01*
X152923335Y-31997513D01*
X152892281Y-32046546D01*
X152856107Y-32084342D01*
X152827872Y-32102764D01*
X152795343Y-32114006D01*
X152757372Y-32117925D01*
X152706893Y-32110786D01*
X152663583Y-32089898D01*
X152626419Y-32057988D01*
X152595012Y-32017114D01*
X152570566Y-31970534D01*
X152553002Y-31919783D01*
X152542451Y-31867331D01*
X152539019Y-31816896D01*
X152542435Y-31759605D01*
X152552182Y-31709314D01*
X152567718Y-31665038D01*
X152601786Y-31601600D01*
X152649600Y-31536871D01*
X152739176Y-31620891D01*
X152706139Y-31669097D01*
X152682512Y-31714009D01*
X152667442Y-31761574D01*
X152662178Y-31816896D01*
X152668818Y-31876176D01*
X152688129Y-31928210D01*
X152708445Y-31957673D01*
X152730343Y-31974220D01*
X152754624Y-31980722D01*
X152773563Y-31978098D01*
X152791262Y-31968166D01*
X152808541Y-31949214D01*
X152830214Y-31913255D01*
X152853299Y-31863119D01*
X152898789Y-31749729D01*
X152924530Y-31690921D01*
X152953438Y-31636339D01*
X152987857Y-31587272D01*
X153027627Y-31548839D01*
X153058069Y-31529931D01*
X153092250Y-31518478D01*
X153131186Y-31514523D01*
X153179048Y-31519601D01*
X153220795Y-31534293D01*
X153257772Y-31558603D01*
X153290799Y-31593597D01*
X153315590Y-31634066D01*
X153334405Y-31683714D01*
X153346600Y-31744391D01*
X153351004Y-31818300D01*
X153347194Y-31880192D01*
X153335794Y-31940719D01*
X153316688Y-32000322D01*
X153277354Y-32083252D01*
X153231997Y-32148700D01*
G37*
G36*
X152481622Y-30963328D02*
G01*
X152478054Y-30991936D01*
X152467490Y-31017823D01*
X152449443Y-31041791D01*
X152426187Y-31060481D01*
X152399900Y-31071568D01*
X152369576Y-31075375D01*
X152340197Y-31071623D01*
X152314141Y-31060584D01*
X152290502Y-31041791D01*
X152272014Y-31017772D01*
X152261227Y-30991889D01*
X152257590Y-30963328D01*
X152261332Y-30933000D01*
X152272214Y-30906752D01*
X152290502Y-30883583D01*
X152314046Y-30865597D01*
X152340109Y-30854968D01*
X152369576Y-30851343D01*
X152399992Y-30855020D01*
X152426283Y-30865697D01*
X152449443Y-30883583D01*
X152467294Y-30906699D01*
X152477951Y-30932950D01*
X152481622Y-30963328D01*
G37*
G36*
X153330000Y-31278340D02*
G01*
X153209588Y-31278340D01*
X153209588Y-31009551D01*
X152740580Y-31009551D01*
X152740580Y-31202747D01*
X152617421Y-31202747D01*
X152617421Y-30882117D01*
X153209588Y-30882117D01*
X153209588Y-30651125D01*
X153330000Y-30651125D01*
X153330000Y-31278340D01*
G37*
G36*
X153430185Y-29745837D02*
G01*
X153478017Y-29762180D01*
X153521087Y-29789329D01*
X153560259Y-29828454D01*
X153589566Y-29873727D01*
X153612110Y-29931414D01*
X153626943Y-30004314D01*
X153632372Y-30095778D01*
X153627313Y-30176091D01*
X153612843Y-30246804D01*
X153589691Y-30309307D01*
X153555601Y-30365506D01*
X153509256Y-30413582D01*
X153449007Y-30454204D01*
X153393014Y-30350584D01*
X153437429Y-30318726D01*
X153469505Y-30282508D01*
X153490956Y-30241407D01*
X153509790Y-30172533D01*
X153516174Y-30098586D01*
X153510689Y-30015676D01*
X153496714Y-29959524D01*
X153476973Y-29922915D01*
X153447990Y-29893782D01*
X153416678Y-29877297D01*
X153381779Y-29871807D01*
X153356643Y-29875902D01*
X153334810Y-29888094D01*
X153315284Y-29909603D01*
X153302671Y-29936704D01*
X153293232Y-29982556D01*
X153289394Y-30055172D01*
X153289394Y-30132170D01*
X153283563Y-30228267D01*
X153268432Y-30296503D01*
X153246713Y-30343623D01*
X153214434Y-30383250D01*
X153182456Y-30404184D01*
X153149382Y-30410790D01*
X153116834Y-30405406D01*
X153090642Y-30389785D01*
X153069037Y-30366821D01*
X153051441Y-30339410D01*
X153038102Y-30310140D01*
X153030375Y-30284822D01*
X153007093Y-30321673D01*
X152978545Y-30353509D01*
X152944340Y-30380748D01*
X152905970Y-30401092D01*
X152863132Y-30413516D01*
X152814769Y-30417812D01*
X152762812Y-30413180D01*
X152715547Y-30399634D01*
X152672009Y-30377206D01*
X152633224Y-30347045D01*
X152600451Y-30310420D01*
X152573335Y-30266625D01*
X152553802Y-30218758D01*
X152541773Y-30165865D01*
X152537615Y-30107013D01*
X152659370Y-30107013D01*
X152665462Y-30160051D01*
X152682512Y-30202206D01*
X152709003Y-30237117D01*
X152740642Y-30261741D01*
X152776813Y-30277338D01*
X152814769Y-30283417D01*
X152858139Y-30278477D01*
X152892899Y-30262683D01*
X152921198Y-30235851D01*
X152941528Y-30201296D01*
X152954385Y-30158998D01*
X152958995Y-30107013D01*
X152954179Y-30051209D01*
X152941151Y-30008824D01*
X152921198Y-29976831D01*
X152893221Y-29952487D01*
X152858470Y-29937953D01*
X152814769Y-29933417D01*
X152776820Y-29938459D01*
X152740642Y-29953750D01*
X152708958Y-29978210D01*
X152682512Y-30012552D01*
X152665484Y-30054080D01*
X152659370Y-30107013D01*
X152537615Y-30107013D01*
X152542129Y-30047323D01*
X152555276Y-29993021D01*
X152576816Y-29943187D01*
X152567049Y-29922861D01*
X152550770Y-29907881D01*
X152526379Y-29897697D01*
X152484082Y-29889985D01*
X152432590Y-29887194D01*
X152432590Y-29740221D01*
X152489259Y-29743516D01*
X152534287Y-29752498D01*
X152569794Y-29766111D01*
X152599916Y-29787318D01*
X152623656Y-29818052D01*
X152641174Y-29860572D01*
X152678359Y-29834600D01*
X152720308Y-29815143D01*
X152765561Y-29803122D01*
X152814769Y-29799023D01*
X152874906Y-29804491D01*
X152923605Y-29819731D01*
X152963208Y-29843841D01*
X152996813Y-29876501D01*
X153024051Y-29915823D01*
X153045090Y-29962787D01*
X153065342Y-30039313D01*
X153075193Y-30125209D01*
X153080822Y-30185570D01*
X153090642Y-30230905D01*
X153101888Y-30256982D01*
X153114348Y-30269705D01*
X153128377Y-30273586D01*
X153144696Y-30267854D01*
X153157076Y-30248429D01*
X153164189Y-30221584D01*
X153168311Y-30186147D01*
X153170387Y-30111226D01*
X153170387Y-30069216D01*
X153174895Y-29978333D01*
X153186959Y-29908670D01*
X153204767Y-29856134D01*
X153227112Y-29817219D01*
X153258362Y-29782936D01*
X153293056Y-29759298D01*
X153331926Y-29745105D01*
X153376222Y-29740221D01*
X153430185Y-29745837D01*
G37*
G36*
X153330000Y-29540430D02*
G01*
X152554406Y-29540430D01*
X152554406Y-29420019D01*
X152648196Y-29407440D01*
X152604814Y-29342569D01*
X152568450Y-29268832D01*
X152550312Y-29216745D01*
X152540260Y-29167478D01*
X152537615Y-29120455D01*
X152544093Y-29068988D01*
X152563504Y-29021048D01*
X152583622Y-28993060D01*
X152611195Y-28968370D01*
X152647524Y-28946859D01*
X152687282Y-28932161D01*
X152738020Y-28922418D01*
X152802191Y-28918832D01*
X153330000Y-28918832D01*
X153330000Y-29057440D01*
X152824600Y-29057440D01*
X152770742Y-29061176D01*
X152733178Y-29070833D01*
X152707730Y-29084734D01*
X152688380Y-29105362D01*
X152676362Y-29132428D01*
X152672009Y-29168021D01*
X152677742Y-29217600D01*
X152696495Y-29275183D01*
X152727136Y-29333595D01*
X152778377Y-29406036D01*
X153330000Y-29406036D01*
X153330000Y-29540430D01*
G37*
G36*
X152968418Y-28030599D02*
G01*
X153024818Y-28042916D01*
X153024818Y-28576282D01*
X153073992Y-28566197D01*
X153113815Y-28550629D01*
X153145901Y-28530120D01*
X153185105Y-28489129D01*
X153211725Y-28439078D01*
X153226831Y-28382949D01*
X153231997Y-28321475D01*
X153222227Y-28230495D01*
X153207817Y-28170996D01*
X153181622Y-28101718D01*
X153287990Y-28055495D01*
X153324712Y-28146898D01*
X153341906Y-28215108D01*
X153349919Y-28279663D01*
X153352409Y-28335519D01*
X153346953Y-28408026D01*
X153331177Y-28472942D01*
X153305514Y-28531524D01*
X153269643Y-28584057D01*
X153224266Y-28628410D01*
X153168311Y-28665186D01*
X153106316Y-28691188D01*
X153033520Y-28707647D01*
X152947821Y-28713485D01*
X152848639Y-28706561D01*
X152766882Y-28687281D01*
X152699496Y-28657203D01*
X152644043Y-28616887D01*
X152598056Y-28565204D01*
X152565138Y-28505716D01*
X152544760Y-28436883D01*
X152537984Y-28360676D01*
X152660774Y-28360676D01*
X152664805Y-28406297D01*
X152676355Y-28445828D01*
X152695090Y-28480416D01*
X152720320Y-28510925D01*
X152750040Y-28536005D01*
X152784727Y-28556010D01*
X152842067Y-28575306D01*
X152905811Y-28581899D01*
X152905811Y-28147880D01*
X152841896Y-28149590D01*
X152784727Y-28165404D01*
X152750126Y-28183786D01*
X152720417Y-28207897D01*
X152695090Y-28238189D01*
X152676456Y-28272818D01*
X152664858Y-28313207D01*
X152660774Y-28360676D01*
X152537984Y-28360676D01*
X152537615Y-28356524D01*
X152542826Y-28289564D01*
X152557563Y-28232762D01*
X152581029Y-28184333D01*
X152613232Y-28140949D01*
X152651538Y-28104716D01*
X152696495Y-28075095D01*
X152745762Y-28052524D01*
X152798320Y-28036656D01*
X152854703Y-28027529D01*
X152911853Y-28025493D01*
X152968418Y-28030599D01*
G37*
G36*
X153337689Y-27203109D02*
G01*
X153324888Y-27255820D01*
X153304781Y-27294373D01*
X153323790Y-27335085D01*
X153339769Y-27381202D01*
X153350242Y-27429745D01*
X153353813Y-27481952D01*
X153348114Y-27544910D01*
X153331183Y-27604319D01*
X153302705Y-27661165D01*
X153264524Y-27712104D01*
X153217257Y-27756060D01*
X153159884Y-27793422D01*
X153097006Y-27820559D01*
X153026791Y-27837312D01*
X152947821Y-27843126D01*
X152862826Y-27837684D01*
X152790942Y-27822393D01*
X152730078Y-27798368D01*
X152674343Y-27764333D01*
X152629774Y-27724742D01*
X152595012Y-27679361D01*
X152569252Y-27628293D01*
X152553942Y-27574919D01*
X152548789Y-27518344D01*
X152551220Y-27490317D01*
X152672009Y-27490317D01*
X152677165Y-27546177D01*
X152691513Y-27591198D01*
X152714200Y-27627621D01*
X152745526Y-27656952D01*
X152797169Y-27685128D01*
X152863337Y-27703435D01*
X152947821Y-27710136D01*
X153004090Y-27706571D01*
X153053695Y-27696369D01*
X153097602Y-27680033D01*
X153138155Y-27656954D01*
X153170973Y-27629703D01*
X153197009Y-27598150D01*
X153216419Y-27562294D01*
X153228045Y-27523824D01*
X153231997Y-27481952D01*
X153226094Y-27412018D01*
X153209588Y-27354518D01*
X152730811Y-27354518D01*
X152707230Y-27380050D01*
X152688129Y-27414052D01*
X152676009Y-27451792D01*
X152672009Y-27490317D01*
X152551220Y-27490317D01*
X152552918Y-27470744D01*
X152564909Y-27428096D01*
X152584094Y-27388860D01*
X152608995Y-27354518D01*
X152280000Y-27354518D01*
X152280000Y-27221528D01*
X153146573Y-27221528D01*
X153180723Y-27215853D01*
X153204366Y-27200220D01*
X153220224Y-27173736D01*
X153227784Y-27131952D01*
X153341174Y-27131952D01*
X153337689Y-27203109D01*
G37*
G36*
X153019988Y-25409050D02*
G01*
X153085366Y-25420327D01*
X153147306Y-25438860D01*
X153205613Y-25465579D01*
X153254715Y-25499146D01*
X153295744Y-25539672D01*
X153326811Y-25587183D01*
X153345788Y-25642053D01*
X153352409Y-25706245D01*
X153345283Y-25765409D01*
X153324443Y-25817559D01*
X153291677Y-25863403D01*
X153248789Y-25902250D01*
X153341174Y-25902250D01*
X153341174Y-26035240D01*
X152383620Y-26035240D01*
X152361210Y-26164017D01*
X152280000Y-26164017D01*
X152280000Y-25902250D01*
X152653813Y-25902250D01*
X152610782Y-25863433D01*
X152577487Y-25817559D01*
X152556090Y-25765366D01*
X152550689Y-25721632D01*
X152672009Y-25721632D01*
X152676673Y-25762069D01*
X152690341Y-25798113D01*
X152713347Y-25830870D01*
X152758806Y-25871654D01*
X152813426Y-25902250D01*
X153094794Y-25902250D01*
X153147846Y-25871645D01*
X153191392Y-25830870D01*
X153213135Y-25798259D01*
X153226139Y-25762202D01*
X153230593Y-25721632D01*
X153224028Y-25672938D01*
X153205436Y-25634193D01*
X153176437Y-25602352D01*
X153138941Y-25577468D01*
X153096003Y-25559439D01*
X153047899Y-25546693D01*
X152998356Y-25539283D01*
X152950629Y-25536863D01*
X152902943Y-25539292D01*
X152854031Y-25546693D01*
X152806518Y-25559415D01*
X152763722Y-25577468D01*
X152726187Y-25602359D01*
X152697227Y-25634193D01*
X152678588Y-25672943D01*
X152672009Y-25721632D01*
X152550689Y-25721632D01*
X152548789Y-25706245D01*
X152552653Y-25656744D01*
X152563750Y-25613222D01*
X152581700Y-25574659D01*
X152620422Y-25523540D01*
X152672009Y-25480870D01*
X152732348Y-25448041D01*
X152800847Y-25424145D01*
X152873441Y-25410017D01*
X152950629Y-25405216D01*
X153019988Y-25409050D01*
G37*
G36*
X153631029Y-25085075D02*
G01*
X153507808Y-25085075D01*
X153507808Y-24903114D01*
X153503987Y-24830459D01*
X153494497Y-24783435D01*
X153475843Y-24746370D01*
X153449007Y-24723900D01*
X153413533Y-24711771D01*
X153362178Y-24707109D01*
X153243171Y-24707109D01*
X153276564Y-24751289D01*
X153304110Y-24800226D01*
X153321969Y-24853510D01*
X153327191Y-24914288D01*
X153318393Y-24975026D01*
X153295012Y-25030486D01*
X153271170Y-25062571D01*
X153238762Y-25090537D01*
X153196277Y-25114506D01*
X153149925Y-25130633D01*
X153090883Y-25141341D01*
X153016392Y-25145280D01*
X152678970Y-25142472D01*
X152662178Y-25258670D01*
X152566985Y-25258670D01*
X152566985Y-25009481D01*
X152945012Y-25009481D01*
X153014503Y-25007438D01*
X153072384Y-25001788D01*
X153124279Y-24989032D01*
X153160617Y-24968937D01*
X153177860Y-24949872D01*
X153188781Y-24924007D01*
X153192796Y-24889070D01*
X153187141Y-24842324D01*
X153169715Y-24795341D01*
X153143523Y-24750561D01*
X153110181Y-24707109D01*
X152560024Y-24707109D01*
X152560024Y-24569905D01*
X153363583Y-24569905D01*
X153434416Y-24574927D01*
X153490092Y-24588624D01*
X153533600Y-24609544D01*
X153567281Y-24637133D01*
X153593837Y-24672296D01*
X153613677Y-24715476D01*
X153626432Y-24768358D01*
X153631029Y-24833077D01*
X153631029Y-25085075D01*
G37*
G36*
X153340138Y-22855481D02*
G01*
X153333854Y-22895774D01*
X153323710Y-22925113D01*
X153297943Y-22962406D01*
X153261428Y-22988799D01*
X153295591Y-23028190D01*
X153325847Y-23081184D01*
X153339797Y-23120396D01*
X153349023Y-23170041D01*
X153352409Y-23232370D01*
X153346108Y-23290729D01*
X153326519Y-23351378D01*
X153306226Y-23389264D01*
X153280011Y-23422491D01*
X153247445Y-23451517D01*
X153210067Y-23473080D01*
X153165373Y-23486591D01*
X153111585Y-23491390D01*
X153061167Y-23487395D01*
X153019228Y-23476190D01*
X152984213Y-23458478D01*
X152939133Y-23420428D01*
X152904406Y-23371711D01*
X152879168Y-23315759D01*
X152861725Y-23254108D01*
X152850829Y-23190452D01*
X152845395Y-23133025D01*
X152952705Y-23133025D01*
X152957886Y-23193297D01*
X152968825Y-23247819D01*
X152987857Y-23297006D01*
X153015048Y-23334586D01*
X153038483Y-23352786D01*
X153067769Y-23364112D01*
X153104624Y-23368169D01*
X153140544Y-23362972D01*
X153169852Y-23348021D01*
X153194200Y-23322679D01*
X153212057Y-23291078D01*
X153222744Y-23257032D01*
X153226379Y-23219792D01*
X153221826Y-23162839D01*
X153209506Y-23119232D01*
X153190720Y-23086069D01*
X153152208Y-23044189D01*
X153111585Y-23015422D01*
X152954781Y-23015422D01*
X152952705Y-23133025D01*
X152845395Y-23133025D01*
X152844933Y-23128140D01*
X152844200Y-23015422D01*
X152824600Y-23015422D01*
X152773611Y-23018288D01*
X152735024Y-23025924D01*
X152703220Y-23042265D01*
X152680375Y-23070682D01*
X152667546Y-23110364D01*
X152662178Y-23179187D01*
X152664451Y-23225206D01*
X152671277Y-23270900D01*
X152684330Y-23317194D01*
X152708401Y-23373787D01*
X152603377Y-23439610D01*
X152572975Y-23366228D01*
X152553002Y-23295385D01*
X152541404Y-23224166D01*
X152537615Y-23155373D01*
X152543904Y-23070010D01*
X152553687Y-23023326D01*
X152570526Y-22978297D01*
X152596338Y-22938520D01*
X152634213Y-22906245D01*
X152664455Y-22891428D01*
X152702974Y-22881758D01*
X152751816Y-22878218D01*
X153146573Y-22878218D01*
X153181429Y-22873780D01*
X153204703Y-22862098D01*
X153219725Y-22841049D01*
X153227784Y-22801221D01*
X153341174Y-22801221D01*
X153340138Y-22855481D01*
G37*
G36*
X153330000Y-22227616D02*
G01*
X153325467Y-22276844D01*
X153313206Y-22313968D01*
X153294340Y-22341800D01*
X153268597Y-22364369D01*
X153238079Y-22381614D01*
X153201955Y-22393579D01*
X153144232Y-22403453D01*
X153082215Y-22406830D01*
X152683183Y-22406830D01*
X152683183Y-22622435D01*
X152560024Y-22622435D01*
X152560024Y-22406830D01*
X152379406Y-22406830D01*
X152379406Y-22269626D01*
X152560024Y-22269626D01*
X152560024Y-21981236D01*
X152683183Y-21981236D01*
X152683183Y-22269626D01*
X153082215Y-22269626D01*
X153138879Y-22262665D01*
X153164857Y-22251341D01*
X153185774Y-22231158D01*
X153198795Y-22202619D01*
X153203970Y-22156236D01*
X153203970Y-21985450D01*
X153330000Y-21985450D01*
X153330000Y-22227616D01*
G37*
G36*
X153330000Y-21694678D02*
G01*
X152383620Y-21694678D01*
X152361210Y-21823517D01*
X152280000Y-21823517D01*
X152280000Y-21561688D01*
X152664987Y-21561688D01*
X152627455Y-21499571D01*
X152595683Y-21432911D01*
X152574376Y-21363612D01*
X152568389Y-21295708D01*
X152574508Y-21240579D01*
X152592203Y-21192821D01*
X152610925Y-21165149D01*
X152636671Y-21140928D01*
X152670605Y-21119975D01*
X152708066Y-21105718D01*
X152756653Y-21096204D01*
X152818982Y-21092681D01*
X153330000Y-21092681D01*
X153330000Y-21231289D01*
X152855375Y-21231289D01*
X152801551Y-21235040D01*
X152764274Y-21244706D01*
X152739237Y-21258583D01*
X152720287Y-21279156D01*
X152708474Y-21306218D01*
X152704188Y-21341870D01*
X152709143Y-21388584D01*
X152725193Y-21442009D01*
X152751593Y-21496084D01*
X152795230Y-21561688D01*
X153330000Y-21561688D01*
X153330000Y-21694678D01*
G37*
G36*
X153340138Y-20252829D02*
G01*
X153333854Y-20293122D01*
X153323710Y-20322461D01*
X153297943Y-20359754D01*
X153261428Y-20386147D01*
X153295591Y-20425539D01*
X153325847Y-20478532D01*
X153339797Y-20517744D01*
X153349023Y-20567389D01*
X153352409Y-20629719D01*
X153346108Y-20688078D01*
X153326519Y-20748726D01*
X153306226Y-20786612D01*
X153280011Y-20819839D01*
X153247445Y-20848866D01*
X153210067Y-20870428D01*
X153165373Y-20883939D01*
X153111585Y-20888738D01*
X153061167Y-20884744D01*
X153019228Y-20873538D01*
X152984213Y-20855826D01*
X152939133Y-20817777D01*
X152904406Y-20769059D01*
X152879168Y-20713108D01*
X152861725Y-20651456D01*
X152850829Y-20587800D01*
X152845395Y-20530373D01*
X152952705Y-20530373D01*
X152957886Y-20590646D01*
X152968825Y-20645167D01*
X152987857Y-20694354D01*
X153015048Y-20731934D01*
X153038483Y-20750134D01*
X153067769Y-20761460D01*
X153104624Y-20765518D01*
X153140544Y-20760320D01*
X153169852Y-20745370D01*
X153194200Y-20720027D01*
X153212057Y-20688426D01*
X153222744Y-20654380D01*
X153226379Y-20617140D01*
X153221826Y-20560187D01*
X153209506Y-20516581D01*
X153190720Y-20483417D01*
X153152208Y-20441537D01*
X153111585Y-20412770D01*
X152954781Y-20412770D01*
X152952705Y-20530373D01*
X152845395Y-20530373D01*
X152844933Y-20525488D01*
X152844200Y-20412770D01*
X152824600Y-20412770D01*
X152773611Y-20415637D01*
X152735024Y-20423272D01*
X152703220Y-20439613D01*
X152680375Y-20468030D01*
X152667546Y-20507712D01*
X152662178Y-20576535D01*
X152664451Y-20622555D01*
X152671277Y-20668248D01*
X152684330Y-20714543D01*
X152708401Y-20771135D01*
X152603377Y-20836959D01*
X152572975Y-20763576D01*
X152553002Y-20692733D01*
X152541404Y-20621514D01*
X152537615Y-20552721D01*
X152543904Y-20467358D01*
X152553687Y-20420674D01*
X152570526Y-20375645D01*
X152596338Y-20335868D01*
X152634213Y-20303593D01*
X152664455Y-20288776D01*
X152702974Y-20279106D01*
X152751816Y-20275566D01*
X153146573Y-20275566D01*
X153181429Y-20271128D01*
X153204703Y-20259446D01*
X153219725Y-20238397D01*
X153227784Y-20198569D01*
X153341174Y-20198569D01*
X153340138Y-20252829D01*
G37*
G36*
X153330000Y-20025401D02*
G01*
X153215205Y-20025401D01*
X153215205Y-19868597D01*
X152652409Y-19868597D01*
X152630000Y-19995969D01*
X152548789Y-19995969D01*
X152548789Y-19749590D01*
X152651004Y-19735607D01*
X152607616Y-19683404D01*
X152570526Y-19628506D01*
X152551505Y-19589534D01*
X152540635Y-19549379D01*
X152537615Y-19507362D01*
X152545205Y-19449046D01*
X152564909Y-19395437D01*
X152584954Y-19363394D01*
X152609771Y-19337453D01*
X152639769Y-19316974D01*
X152722384Y-19414977D01*
X152697957Y-19440138D01*
X152680436Y-19471031D01*
X152669902Y-19505317D01*
X152666392Y-19541006D01*
X152674129Y-19587128D01*
X152698632Y-19634124D01*
X152733949Y-19679520D01*
X152781186Y-19731393D01*
X153215205Y-19731393D01*
X153215205Y-19443004D01*
X153330000Y-19443004D01*
X153330000Y-20025401D01*
G37*
G36*
X152560024Y-19171833D02*
G01*
X152560024Y-19027669D01*
X152832355Y-18956228D01*
X152945736Y-18921679D01*
X153040205Y-18889061D01*
X153129052Y-18853799D01*
X153208183Y-18817620D01*
X153129049Y-18781455D01*
X153040205Y-18746240D01*
X152945736Y-18713622D01*
X152832355Y-18679073D01*
X152560024Y-18607632D01*
X152560024Y-18463468D01*
X152821791Y-18532772D01*
X152931878Y-18566555D01*
X153024085Y-18598534D01*
X153110804Y-18632485D01*
X153186507Y-18665762D01*
X153330000Y-18740622D01*
X153330000Y-18894617D01*
X153186507Y-18968867D01*
X153110773Y-19002654D01*
X153024085Y-19036767D01*
X152931879Y-19068714D01*
X152821791Y-19102529D01*
X152560024Y-19171833D01*
G37*
G36*
X153340138Y-17650177D02*
G01*
X153333854Y-17690470D01*
X153323710Y-17719809D01*
X153297943Y-17757103D01*
X153261428Y-17783496D01*
X153295591Y-17822887D01*
X153325847Y-17875881D01*
X153339797Y-17915092D01*
X153349023Y-17964738D01*
X153352409Y-18027067D01*
X153346108Y-18085426D01*
X153326519Y-18146074D01*
X153306226Y-18183960D01*
X153280011Y-18217188D01*
X153247445Y-18246214D01*
X153210067Y-18267776D01*
X153165373Y-18281287D01*
X153111585Y-18286086D01*
X153061167Y-18282092D01*
X153019228Y-18270887D01*
X152984213Y-18253175D01*
X152939133Y-18215125D01*
X152904406Y-18166407D01*
X152879168Y-18110456D01*
X152861725Y-18048804D01*
X152850829Y-17985149D01*
X152845395Y-17927721D01*
X152952705Y-17927721D01*
X152957886Y-17987994D01*
X152968825Y-18042515D01*
X152987857Y-18091702D01*
X153015048Y-18129282D01*
X153038483Y-18147482D01*
X153067769Y-18158808D01*
X153104624Y-18162866D01*
X153140544Y-18157669D01*
X153169852Y-18142718D01*
X153194200Y-18117376D01*
X153212057Y-18085774D01*
X153222744Y-18051728D01*
X153226379Y-18014488D01*
X153221826Y-17957535D01*
X153209506Y-17913929D01*
X153190720Y-17880765D01*
X153152208Y-17838885D01*
X153111585Y-17810118D01*
X152954781Y-17810118D01*
X152952705Y-17927721D01*
X152845395Y-17927721D01*
X152844933Y-17922836D01*
X152844200Y-17810118D01*
X152824600Y-17810118D01*
X152773611Y-17812985D01*
X152735024Y-17820621D01*
X152703220Y-17836961D01*
X152680375Y-17865378D01*
X152667546Y-17905060D01*
X152662178Y-17973883D01*
X152664451Y-18019903D01*
X152671277Y-18065596D01*
X152684330Y-18111891D01*
X152708401Y-18168483D01*
X152603377Y-18234307D01*
X152572975Y-18160924D01*
X152553002Y-18090081D01*
X152541404Y-18018862D01*
X152537615Y-17950069D01*
X152543904Y-17864706D01*
X152553687Y-17818022D01*
X152570526Y-17772993D01*
X152596338Y-17733216D01*
X152634213Y-17700942D01*
X152664455Y-17686124D01*
X152702974Y-17676454D01*
X152751816Y-17672915D01*
X153146573Y-17672915D01*
X153181429Y-17668477D01*
X153204703Y-17656795D01*
X153219725Y-17635745D01*
X153227784Y-17595917D01*
X153341174Y-17595917D01*
X153340138Y-17650177D01*
G37*
X172951905Y-90334819D02*
X172951905Y-89334819D01*
X172951905Y-89334819D02*
X173190000Y-89334819D01*
X173190000Y-89334819D02*
X173332857Y-89382438D01*
X173332857Y-89382438D02*
X173428095Y-89477676D01*
X173428095Y-89477676D02*
X173475714Y-89572914D01*
X173475714Y-89572914D02*
X173523333Y-89763390D01*
X173523333Y-89763390D02*
X173523333Y-89906247D01*
X173523333Y-89906247D02*
X173475714Y-90096723D01*
X173475714Y-90096723D02*
X173428095Y-90191961D01*
X173428095Y-90191961D02*
X173332857Y-90287200D01*
X173332857Y-90287200D02*
X173190000Y-90334819D01*
X173190000Y-90334819D02*
X172951905Y-90334819D01*
X174475714Y-90334819D02*
X173904286Y-90334819D01*
X174190000Y-90334819D02*
X174190000Y-89334819D01*
X174190000Y-89334819D02*
X174094762Y-89477676D01*
X174094762Y-89477676D02*
X173999524Y-89572914D01*
X173999524Y-89572914D02*
X173904286Y-89620533D01*
X169618095Y-90654819D02*
X169618095Y-89654819D01*
X170189523Y-90654819D02*
X169760952Y-90083390D01*
X170189523Y-89654819D02*
X169618095Y-90226247D01*
X185976667Y-99192200D02*
X186119524Y-99239819D01*
X186119524Y-99239819D02*
X186357619Y-99239819D01*
X186357619Y-99239819D02*
X186452857Y-99192200D01*
X186452857Y-99192200D02*
X186500476Y-99144580D01*
X186500476Y-99144580D02*
X186548095Y-99049342D01*
X186548095Y-99049342D02*
X186548095Y-98954104D01*
X186548095Y-98954104D02*
X186500476Y-98858866D01*
X186500476Y-98858866D02*
X186452857Y-98811247D01*
X186452857Y-98811247D02*
X186357619Y-98763628D01*
X186357619Y-98763628D02*
X186167143Y-98716009D01*
X186167143Y-98716009D02*
X186071905Y-98668390D01*
X186071905Y-98668390D02*
X186024286Y-98620771D01*
X186024286Y-98620771D02*
X185976667Y-98525533D01*
X185976667Y-98525533D02*
X185976667Y-98430295D01*
X185976667Y-98430295D02*
X186024286Y-98335057D01*
X186024286Y-98335057D02*
X186071905Y-98287438D01*
X186071905Y-98287438D02*
X186167143Y-98239819D01*
X186167143Y-98239819D02*
X186405238Y-98239819D01*
X186405238Y-98239819D02*
X186548095Y-98287438D01*
X186881429Y-98239819D02*
X187119524Y-99239819D01*
X187119524Y-99239819D02*
X187310000Y-98525533D01*
X187310000Y-98525533D02*
X187500476Y-99239819D01*
X187500476Y-99239819D02*
X187738572Y-98239819D01*
X188595714Y-98239819D02*
X188119524Y-98239819D01*
X188119524Y-98239819D02*
X188071905Y-98716009D01*
X188071905Y-98716009D02*
X188119524Y-98668390D01*
X188119524Y-98668390D02*
X188214762Y-98620771D01*
X188214762Y-98620771D02*
X188452857Y-98620771D01*
X188452857Y-98620771D02*
X188548095Y-98668390D01*
X188548095Y-98668390D02*
X188595714Y-98716009D01*
X188595714Y-98716009D02*
X188643333Y-98811247D01*
X188643333Y-98811247D02*
X188643333Y-99049342D01*
X188643333Y-99049342D02*
X188595714Y-99144580D01*
X188595714Y-99144580D02*
X188548095Y-99192200D01*
X188548095Y-99192200D02*
X188452857Y-99239819D01*
X188452857Y-99239819D02*
X188214762Y-99239819D01*
X188214762Y-99239819D02*
X188119524Y-99192200D01*
X188119524Y-99192200D02*
X188071905Y-99144580D01*
X159126667Y-99232200D02*
X159269524Y-99279819D01*
X159269524Y-99279819D02*
X159507619Y-99279819D01*
X159507619Y-99279819D02*
X159602857Y-99232200D01*
X159602857Y-99232200D02*
X159650476Y-99184580D01*
X159650476Y-99184580D02*
X159698095Y-99089342D01*
X159698095Y-99089342D02*
X159698095Y-98994104D01*
X159698095Y-98994104D02*
X159650476Y-98898866D01*
X159650476Y-98898866D02*
X159602857Y-98851247D01*
X159602857Y-98851247D02*
X159507619Y-98803628D01*
X159507619Y-98803628D02*
X159317143Y-98756009D01*
X159317143Y-98756009D02*
X159221905Y-98708390D01*
X159221905Y-98708390D02*
X159174286Y-98660771D01*
X159174286Y-98660771D02*
X159126667Y-98565533D01*
X159126667Y-98565533D02*
X159126667Y-98470295D01*
X159126667Y-98470295D02*
X159174286Y-98375057D01*
X159174286Y-98375057D02*
X159221905Y-98327438D01*
X159221905Y-98327438D02*
X159317143Y-98279819D01*
X159317143Y-98279819D02*
X159555238Y-98279819D01*
X159555238Y-98279819D02*
X159698095Y-98327438D01*
X160031429Y-98279819D02*
X160269524Y-99279819D01*
X160269524Y-99279819D02*
X160460000Y-98565533D01*
X160460000Y-98565533D02*
X160650476Y-99279819D01*
X160650476Y-99279819D02*
X160888572Y-98279819D01*
X161698095Y-98613152D02*
X161698095Y-99279819D01*
X161460000Y-98232200D02*
X161221905Y-98946485D01*
X161221905Y-98946485D02*
X161840952Y-98946485D01*
X185976667Y-72692200D02*
X186119524Y-72739819D01*
X186119524Y-72739819D02*
X186357619Y-72739819D01*
X186357619Y-72739819D02*
X186452857Y-72692200D01*
X186452857Y-72692200D02*
X186500476Y-72644580D01*
X186500476Y-72644580D02*
X186548095Y-72549342D01*
X186548095Y-72549342D02*
X186548095Y-72454104D01*
X186548095Y-72454104D02*
X186500476Y-72358866D01*
X186500476Y-72358866D02*
X186452857Y-72311247D01*
X186452857Y-72311247D02*
X186357619Y-72263628D01*
X186357619Y-72263628D02*
X186167143Y-72216009D01*
X186167143Y-72216009D02*
X186071905Y-72168390D01*
X186071905Y-72168390D02*
X186024286Y-72120771D01*
X186024286Y-72120771D02*
X185976667Y-72025533D01*
X185976667Y-72025533D02*
X185976667Y-71930295D01*
X185976667Y-71930295D02*
X186024286Y-71835057D01*
X186024286Y-71835057D02*
X186071905Y-71787438D01*
X186071905Y-71787438D02*
X186167143Y-71739819D01*
X186167143Y-71739819D02*
X186405238Y-71739819D01*
X186405238Y-71739819D02*
X186548095Y-71787438D01*
X186881429Y-71739819D02*
X187119524Y-72739819D01*
X187119524Y-72739819D02*
X187310000Y-72025533D01*
X187310000Y-72025533D02*
X187500476Y-72739819D01*
X187500476Y-72739819D02*
X187738572Y-71739819D01*
X188071905Y-71835057D02*
X188119524Y-71787438D01*
X188119524Y-71787438D02*
X188214762Y-71739819D01*
X188214762Y-71739819D02*
X188452857Y-71739819D01*
X188452857Y-71739819D02*
X188548095Y-71787438D01*
X188548095Y-71787438D02*
X188595714Y-71835057D01*
X188595714Y-71835057D02*
X188643333Y-71930295D01*
X188643333Y-71930295D02*
X188643333Y-72025533D01*
X188643333Y-72025533D02*
X188595714Y-72168390D01*
X188595714Y-72168390D02*
X188024286Y-72739819D01*
X188024286Y-72739819D02*
X188643333Y-72739819D01*
X159626667Y-72732200D02*
X159769524Y-72779819D01*
X159769524Y-72779819D02*
X160007619Y-72779819D01*
X160007619Y-72779819D02*
X160102857Y-72732200D01*
X160102857Y-72732200D02*
X160150476Y-72684580D01*
X160150476Y-72684580D02*
X160198095Y-72589342D01*
X160198095Y-72589342D02*
X160198095Y-72494104D01*
X160198095Y-72494104D02*
X160150476Y-72398866D01*
X160150476Y-72398866D02*
X160102857Y-72351247D01*
X160102857Y-72351247D02*
X160007619Y-72303628D01*
X160007619Y-72303628D02*
X159817143Y-72256009D01*
X159817143Y-72256009D02*
X159721905Y-72208390D01*
X159721905Y-72208390D02*
X159674286Y-72160771D01*
X159674286Y-72160771D02*
X159626667Y-72065533D01*
X159626667Y-72065533D02*
X159626667Y-71970295D01*
X159626667Y-71970295D02*
X159674286Y-71875057D01*
X159674286Y-71875057D02*
X159721905Y-71827438D01*
X159721905Y-71827438D02*
X159817143Y-71779819D01*
X159817143Y-71779819D02*
X160055238Y-71779819D01*
X160055238Y-71779819D02*
X160198095Y-71827438D01*
X160531429Y-71779819D02*
X160769524Y-72779819D01*
X160769524Y-72779819D02*
X160960000Y-72065533D01*
X160960000Y-72065533D02*
X161150476Y-72779819D01*
X161150476Y-72779819D02*
X161388572Y-71779819D01*
X162293333Y-72779819D02*
X161721905Y-72779819D01*
X162007619Y-72779819D02*
X162007619Y-71779819D01*
X162007619Y-71779819D02*
X161912381Y-71922676D01*
X161912381Y-71922676D02*
X161817143Y-72017914D01*
X161817143Y-72017914D02*
X161721905Y-72065533D01*
X186761905Y-93834819D02*
X186761905Y-92834819D01*
X186761905Y-92834819D02*
X187000000Y-92834819D01*
X187000000Y-92834819D02*
X187142857Y-92882438D01*
X187142857Y-92882438D02*
X187238095Y-92977676D01*
X187238095Y-92977676D02*
X187285714Y-93072914D01*
X187285714Y-93072914D02*
X187333333Y-93263390D01*
X187333333Y-93263390D02*
X187333333Y-93406247D01*
X187333333Y-93406247D02*
X187285714Y-93596723D01*
X187285714Y-93596723D02*
X187238095Y-93691961D01*
X187238095Y-93691961D02*
X187142857Y-93787200D01*
X187142857Y-93787200D02*
X187000000Y-93834819D01*
X187000000Y-93834819D02*
X186761905Y-93834819D01*
X188190476Y-92834819D02*
X188000000Y-92834819D01*
X188000000Y-92834819D02*
X187904762Y-92882438D01*
X187904762Y-92882438D02*
X187857143Y-92930057D01*
X187857143Y-92930057D02*
X187761905Y-93072914D01*
X187761905Y-93072914D02*
X187714286Y-93263390D01*
X187714286Y-93263390D02*
X187714286Y-93644342D01*
X187714286Y-93644342D02*
X187761905Y-93739580D01*
X187761905Y-93739580D02*
X187809524Y-93787200D01*
X187809524Y-93787200D02*
X187904762Y-93834819D01*
X187904762Y-93834819D02*
X188095238Y-93834819D01*
X188095238Y-93834819D02*
X188190476Y-93787200D01*
X188190476Y-93787200D02*
X188238095Y-93739580D01*
X188238095Y-93739580D02*
X188285714Y-93644342D01*
X188285714Y-93644342D02*
X188285714Y-93406247D01*
X188285714Y-93406247D02*
X188238095Y-93311009D01*
X188238095Y-93311009D02*
X188190476Y-93263390D01*
X188190476Y-93263390D02*
X188095238Y-93215771D01*
X188095238Y-93215771D02*
X187904762Y-93215771D01*
X187904762Y-93215771D02*
X187809524Y-93263390D01*
X187809524Y-93263390D02*
X187761905Y-93311009D01*
X187761905Y-93311009D02*
X187714286Y-93406247D01*
X183428095Y-94154819D02*
X183428095Y-93154819D01*
X183999523Y-94154819D02*
X183570952Y-93583390D01*
X183999523Y-93154819D02*
X183428095Y-93726247D01*
X172951905Y-93834819D02*
X172951905Y-92834819D01*
X172951905Y-92834819D02*
X173190000Y-92834819D01*
X173190000Y-92834819D02*
X173332857Y-92882438D01*
X173332857Y-92882438D02*
X173428095Y-92977676D01*
X173428095Y-92977676D02*
X173475714Y-93072914D01*
X173475714Y-93072914D02*
X173523333Y-93263390D01*
X173523333Y-93263390D02*
X173523333Y-93406247D01*
X173523333Y-93406247D02*
X173475714Y-93596723D01*
X173475714Y-93596723D02*
X173428095Y-93691961D01*
X173428095Y-93691961D02*
X173332857Y-93787200D01*
X173332857Y-93787200D02*
X173190000Y-93834819D01*
X173190000Y-93834819D02*
X172951905Y-93834819D01*
X174380476Y-93168152D02*
X174380476Y-93834819D01*
X174142381Y-92787200D02*
X173904286Y-93501485D01*
X173904286Y-93501485D02*
X174523333Y-93501485D01*
X169618095Y-94154819D02*
X169618095Y-93154819D01*
X170189523Y-94154819D02*
X169760952Y-93583390D01*
X170189523Y-93154819D02*
X169618095Y-93726247D01*
X186761905Y-90834819D02*
X186761905Y-89834819D01*
X186761905Y-89834819D02*
X187000000Y-89834819D01*
X187000000Y-89834819D02*
X187142857Y-89882438D01*
X187142857Y-89882438D02*
X187238095Y-89977676D01*
X187238095Y-89977676D02*
X187285714Y-90072914D01*
X187285714Y-90072914D02*
X187333333Y-90263390D01*
X187333333Y-90263390D02*
X187333333Y-90406247D01*
X187333333Y-90406247D02*
X187285714Y-90596723D01*
X187285714Y-90596723D02*
X187238095Y-90691961D01*
X187238095Y-90691961D02*
X187142857Y-90787200D01*
X187142857Y-90787200D02*
X187000000Y-90834819D01*
X187000000Y-90834819D02*
X186761905Y-90834819D01*
X187714286Y-89930057D02*
X187761905Y-89882438D01*
X187761905Y-89882438D02*
X187857143Y-89834819D01*
X187857143Y-89834819D02*
X188095238Y-89834819D01*
X188095238Y-89834819D02*
X188190476Y-89882438D01*
X188190476Y-89882438D02*
X188238095Y-89930057D01*
X188238095Y-89930057D02*
X188285714Y-90025295D01*
X188285714Y-90025295D02*
X188285714Y-90120533D01*
X188285714Y-90120533D02*
X188238095Y-90263390D01*
X188238095Y-90263390D02*
X187666667Y-90834819D01*
X187666667Y-90834819D02*
X188285714Y-90834819D01*
X183428095Y-91154819D02*
X183428095Y-90154819D01*
X183999523Y-91154819D02*
X183570952Y-90583390D01*
X183999523Y-90154819D02*
X183428095Y-90726247D01*
X176038095Y-16354819D02*
X176038095Y-17164342D01*
X176038095Y-17164342D02*
X176085714Y-17259580D01*
X176085714Y-17259580D02*
X176133333Y-17307200D01*
X176133333Y-17307200D02*
X176228571Y-17354819D01*
X176228571Y-17354819D02*
X176419047Y-17354819D01*
X176419047Y-17354819D02*
X176514285Y-17307200D01*
X176514285Y-17307200D02*
X176561904Y-17259580D01*
X176561904Y-17259580D02*
X176609523Y-17164342D01*
X176609523Y-17164342D02*
X176609523Y-16354819D01*
X177038095Y-16450057D02*
X177085714Y-16402438D01*
X177085714Y-16402438D02*
X177180952Y-16354819D01*
X177180952Y-16354819D02*
X177419047Y-16354819D01*
X177419047Y-16354819D02*
X177514285Y-16402438D01*
X177514285Y-16402438D02*
X177561904Y-16450057D01*
X177561904Y-16450057D02*
X177609523Y-16545295D01*
X177609523Y-16545295D02*
X177609523Y-16640533D01*
X177609523Y-16640533D02*
X177561904Y-16783390D01*
X177561904Y-16783390D02*
X176990476Y-17354819D01*
X176990476Y-17354819D02*
X177609523Y-17354819D01*
X176731009Y-48725237D02*
X176731009Y-48391904D01*
X177254819Y-48249047D02*
X177254819Y-48725237D01*
X177254819Y-48725237D02*
X176254819Y-48725237D01*
X176254819Y-48725237D02*
X176254819Y-48249047D01*
X177207200Y-47868094D02*
X177254819Y-47725237D01*
X177254819Y-47725237D02*
X177254819Y-47487142D01*
X177254819Y-47487142D02*
X177207200Y-47391904D01*
X177207200Y-47391904D02*
X177159580Y-47344285D01*
X177159580Y-47344285D02*
X177064342Y-47296666D01*
X177064342Y-47296666D02*
X176969104Y-47296666D01*
X176969104Y-47296666D02*
X176873866Y-47344285D01*
X176873866Y-47344285D02*
X176826247Y-47391904D01*
X176826247Y-47391904D02*
X176778628Y-47487142D01*
X176778628Y-47487142D02*
X176731009Y-47677618D01*
X176731009Y-47677618D02*
X176683390Y-47772856D01*
X176683390Y-47772856D02*
X176635771Y-47820475D01*
X176635771Y-47820475D02*
X176540533Y-47868094D01*
X176540533Y-47868094D02*
X176445295Y-47868094D01*
X176445295Y-47868094D02*
X176350057Y-47820475D01*
X176350057Y-47820475D02*
X176302438Y-47772856D01*
X176302438Y-47772856D02*
X176254819Y-47677618D01*
X176254819Y-47677618D02*
X176254819Y-47439523D01*
X176254819Y-47439523D02*
X176302438Y-47296666D01*
X177254819Y-46868094D02*
X176254819Y-46868094D01*
X176254819Y-46868094D02*
X176254819Y-46487142D01*
X176254819Y-46487142D02*
X176302438Y-46391904D01*
X176302438Y-46391904D02*
X176350057Y-46344285D01*
X176350057Y-46344285D02*
X176445295Y-46296666D01*
X176445295Y-46296666D02*
X176588152Y-46296666D01*
X176588152Y-46296666D02*
X176683390Y-46344285D01*
X176683390Y-46344285D02*
X176731009Y-46391904D01*
X176731009Y-46391904D02*
X176778628Y-46487142D01*
X176778628Y-46487142D02*
X176778628Y-46868094D01*
X176254819Y-45963332D02*
X176254819Y-45344285D01*
X176254819Y-45344285D02*
X176635771Y-45677618D01*
X176635771Y-45677618D02*
X176635771Y-45534761D01*
X176635771Y-45534761D02*
X176683390Y-45439523D01*
X176683390Y-45439523D02*
X176731009Y-45391904D01*
X176731009Y-45391904D02*
X176826247Y-45344285D01*
X176826247Y-45344285D02*
X177064342Y-45344285D01*
X177064342Y-45344285D02*
X177159580Y-45391904D01*
X177159580Y-45391904D02*
X177207200Y-45439523D01*
X177207200Y-45439523D02*
X177254819Y-45534761D01*
X177254819Y-45534761D02*
X177254819Y-45820475D01*
X177254819Y-45820475D02*
X177207200Y-45915713D01*
X177207200Y-45915713D02*
X177159580Y-45963332D01*
X176350057Y-44963332D02*
X176302438Y-44915713D01*
X176302438Y-44915713D02*
X176254819Y-44820475D01*
X176254819Y-44820475D02*
X176254819Y-44582380D01*
X176254819Y-44582380D02*
X176302438Y-44487142D01*
X176302438Y-44487142D02*
X176350057Y-44439523D01*
X176350057Y-44439523D02*
X176445295Y-44391904D01*
X176445295Y-44391904D02*
X176540533Y-44391904D01*
X176540533Y-44391904D02*
X176683390Y-44439523D01*
X176683390Y-44439523D02*
X177254819Y-45010951D01*
X177254819Y-45010951D02*
X177254819Y-44391904D01*
X176873866Y-43963332D02*
X176873866Y-43201428D01*
X177254819Y-42725237D02*
X176254819Y-42725237D01*
X176254819Y-42725237D02*
X176254819Y-42487142D01*
X176254819Y-42487142D02*
X176302438Y-42344285D01*
X176302438Y-42344285D02*
X176397676Y-42249047D01*
X176397676Y-42249047D02*
X176492914Y-42201428D01*
X176492914Y-42201428D02*
X176683390Y-42153809D01*
X176683390Y-42153809D02*
X176826247Y-42153809D01*
X176826247Y-42153809D02*
X177016723Y-42201428D01*
X177016723Y-42201428D02*
X177111961Y-42249047D01*
X177111961Y-42249047D02*
X177207200Y-42344285D01*
X177207200Y-42344285D02*
X177254819Y-42487142D01*
X177254819Y-42487142D02*
X177254819Y-42725237D01*
X177207200Y-41344285D02*
X177254819Y-41439523D01*
X177254819Y-41439523D02*
X177254819Y-41629999D01*
X177254819Y-41629999D02*
X177207200Y-41725237D01*
X177207200Y-41725237D02*
X177111961Y-41772856D01*
X177111961Y-41772856D02*
X176731009Y-41772856D01*
X176731009Y-41772856D02*
X176635771Y-41725237D01*
X176635771Y-41725237D02*
X176588152Y-41629999D01*
X176588152Y-41629999D02*
X176588152Y-41439523D01*
X176588152Y-41439523D02*
X176635771Y-41344285D01*
X176635771Y-41344285D02*
X176731009Y-41296666D01*
X176731009Y-41296666D02*
X176826247Y-41296666D01*
X176826247Y-41296666D02*
X176921485Y-41772856D01*
X176588152Y-40963332D02*
X177254819Y-40725237D01*
X177254819Y-40725237D02*
X176588152Y-40487142D01*
X177254819Y-40106189D02*
X176254819Y-40106189D01*
X177254819Y-39534761D02*
X176683390Y-39963332D01*
X176254819Y-39534761D02*
X176826247Y-40106189D01*
X177254819Y-39106189D02*
X176588152Y-39106189D01*
X176254819Y-39106189D02*
X176302438Y-39153808D01*
X176302438Y-39153808D02*
X176350057Y-39106189D01*
X176350057Y-39106189D02*
X176302438Y-39058570D01*
X176302438Y-39058570D02*
X176254819Y-39106189D01*
X176254819Y-39106189D02*
X176350057Y-39106189D01*
X176588152Y-38772856D02*
X176588152Y-38391904D01*
X176254819Y-38629999D02*
X177111961Y-38629999D01*
X177111961Y-38629999D02*
X177207200Y-38582380D01*
X177207200Y-38582380D02*
X177254819Y-38487142D01*
X177254819Y-38487142D02*
X177254819Y-38391904D01*
X177159580Y-37487142D02*
X177207200Y-37534761D01*
X177207200Y-37534761D02*
X177254819Y-37677618D01*
X177254819Y-37677618D02*
X177254819Y-37772856D01*
X177254819Y-37772856D02*
X177207200Y-37915713D01*
X177207200Y-37915713D02*
X177111961Y-38010951D01*
X177111961Y-38010951D02*
X177016723Y-38058570D01*
X177016723Y-38058570D02*
X176826247Y-38106189D01*
X176826247Y-38106189D02*
X176683390Y-38106189D01*
X176683390Y-38106189D02*
X176492914Y-38058570D01*
X176492914Y-38058570D02*
X176397676Y-38010951D01*
X176397676Y-38010951D02*
X176302438Y-37915713D01*
X176302438Y-37915713D02*
X176254819Y-37772856D01*
X176254819Y-37772856D02*
X176254819Y-37677618D01*
X176254819Y-37677618D02*
X176302438Y-37534761D01*
X176302438Y-37534761D02*
X176350057Y-37487142D01*
X185531316Y-51669366D02*
X185464649Y-51636033D01*
X185464649Y-51636033D02*
X185364649Y-51636033D01*
X185364649Y-51636033D02*
X185264649Y-51669366D01*
X185264649Y-51669366D02*
X185197983Y-51736033D01*
X185197983Y-51736033D02*
X185164649Y-51802700D01*
X185164649Y-51802700D02*
X185131316Y-51936033D01*
X185131316Y-51936033D02*
X185131316Y-52036033D01*
X185131316Y-52036033D02*
X185164649Y-52169366D01*
X185164649Y-52169366D02*
X185197983Y-52236033D01*
X185197983Y-52236033D02*
X185264649Y-52302700D01*
X185264649Y-52302700D02*
X185364649Y-52336033D01*
X185364649Y-52336033D02*
X185431316Y-52336033D01*
X185431316Y-52336033D02*
X185531316Y-52302700D01*
X185531316Y-52302700D02*
X185564649Y-52269366D01*
X185564649Y-52269366D02*
X185564649Y-52036033D01*
X185564649Y-52036033D02*
X185431316Y-52036033D01*
X185864649Y-52336033D02*
X185864649Y-51636033D01*
X185864649Y-51636033D02*
X186131316Y-51636033D01*
X186131316Y-51636033D02*
X186197983Y-51669366D01*
X186197983Y-51669366D02*
X186231316Y-51702700D01*
X186231316Y-51702700D02*
X186264649Y-51769366D01*
X186264649Y-51769366D02*
X186264649Y-51869366D01*
X186264649Y-51869366D02*
X186231316Y-51936033D01*
X186231316Y-51936033D02*
X186197983Y-51969366D01*
X186197983Y-51969366D02*
X186131316Y-52002700D01*
X186131316Y-52002700D02*
X185864649Y-52002700D01*
X186564649Y-52336033D02*
X186564649Y-51636033D01*
X187031316Y-51636033D02*
X187164649Y-51636033D01*
X187164649Y-51636033D02*
X187231316Y-51669366D01*
X187231316Y-51669366D02*
X187297982Y-51736033D01*
X187297982Y-51736033D02*
X187331316Y-51869366D01*
X187331316Y-51869366D02*
X187331316Y-52102700D01*
X187331316Y-52102700D02*
X187297982Y-52236033D01*
X187297982Y-52236033D02*
X187231316Y-52302700D01*
X187231316Y-52302700D02*
X187164649Y-52336033D01*
X187164649Y-52336033D02*
X187031316Y-52336033D01*
X187031316Y-52336033D02*
X186964649Y-52302700D01*
X186964649Y-52302700D02*
X186897982Y-52236033D01*
X186897982Y-52236033D02*
X186864649Y-52102700D01*
X186864649Y-52102700D02*
X186864649Y-51869366D01*
X186864649Y-51869366D02*
X186897982Y-51736033D01*
X186897982Y-51736033D02*
X186964649Y-51669366D01*
X186964649Y-51669366D02*
X187031316Y-51636033D01*
X187764649Y-51636033D02*
X187831315Y-51636033D01*
X187831315Y-51636033D02*
X187897982Y-51669366D01*
X187897982Y-51669366D02*
X187931315Y-51702700D01*
X187931315Y-51702700D02*
X187964649Y-51769366D01*
X187964649Y-51769366D02*
X187997982Y-51902700D01*
X187997982Y-51902700D02*
X187997982Y-52069366D01*
X187997982Y-52069366D02*
X187964649Y-52202700D01*
X187964649Y-52202700D02*
X187931315Y-52269366D01*
X187931315Y-52269366D02*
X187897982Y-52302700D01*
X187897982Y-52302700D02*
X187831315Y-52336033D01*
X187831315Y-52336033D02*
X187764649Y-52336033D01*
X187764649Y-52336033D02*
X187697982Y-52302700D01*
X187697982Y-52302700D02*
X187664649Y-52269366D01*
X187664649Y-52269366D02*
X187631315Y-52202700D01*
X187631315Y-52202700D02*
X187597982Y-52069366D01*
X187597982Y-52069366D02*
X187597982Y-51902700D01*
X187597982Y-51902700D02*
X187631315Y-51769366D01*
X187631315Y-51769366D02*
X187664649Y-51702700D01*
X187664649Y-51702700D02*
X187697982Y-51669366D01*
X187697982Y-51669366D02*
X187764649Y-51636033D01*
X166002017Y-46589366D02*
X165935350Y-46556033D01*
X165935350Y-46556033D02*
X165835350Y-46556033D01*
X165835350Y-46556033D02*
X165735350Y-46589366D01*
X165735350Y-46589366D02*
X165668684Y-46656033D01*
X165668684Y-46656033D02*
X165635350Y-46722700D01*
X165635350Y-46722700D02*
X165602017Y-46856033D01*
X165602017Y-46856033D02*
X165602017Y-46956033D01*
X165602017Y-46956033D02*
X165635350Y-47089366D01*
X165635350Y-47089366D02*
X165668684Y-47156033D01*
X165668684Y-47156033D02*
X165735350Y-47222700D01*
X165735350Y-47222700D02*
X165835350Y-47256033D01*
X165835350Y-47256033D02*
X165902017Y-47256033D01*
X165902017Y-47256033D02*
X166002017Y-47222700D01*
X166002017Y-47222700D02*
X166035350Y-47189366D01*
X166035350Y-47189366D02*
X166035350Y-46956033D01*
X166035350Y-46956033D02*
X165902017Y-46956033D01*
X166335350Y-47256033D02*
X166335350Y-46556033D01*
X166335350Y-46556033D02*
X166602017Y-46556033D01*
X166602017Y-46556033D02*
X166668684Y-46589366D01*
X166668684Y-46589366D02*
X166702017Y-46622700D01*
X166702017Y-46622700D02*
X166735350Y-46689366D01*
X166735350Y-46689366D02*
X166735350Y-46789366D01*
X166735350Y-46789366D02*
X166702017Y-46856033D01*
X166702017Y-46856033D02*
X166668684Y-46889366D01*
X166668684Y-46889366D02*
X166602017Y-46922700D01*
X166602017Y-46922700D02*
X166335350Y-46922700D01*
X167035350Y-47256033D02*
X167035350Y-46556033D01*
X167502017Y-46556033D02*
X167635350Y-46556033D01*
X167635350Y-46556033D02*
X167702017Y-46589366D01*
X167702017Y-46589366D02*
X167768683Y-46656033D01*
X167768683Y-46656033D02*
X167802017Y-46789366D01*
X167802017Y-46789366D02*
X167802017Y-47022700D01*
X167802017Y-47022700D02*
X167768683Y-47156033D01*
X167768683Y-47156033D02*
X167702017Y-47222700D01*
X167702017Y-47222700D02*
X167635350Y-47256033D01*
X167635350Y-47256033D02*
X167502017Y-47256033D01*
X167502017Y-47256033D02*
X167435350Y-47222700D01*
X167435350Y-47222700D02*
X167368683Y-47156033D01*
X167368683Y-47156033D02*
X167335350Y-47022700D01*
X167335350Y-47022700D02*
X167335350Y-46789366D01*
X167335350Y-46789366D02*
X167368683Y-46656033D01*
X167368683Y-46656033D02*
X167435350Y-46589366D01*
X167435350Y-46589366D02*
X167502017Y-46556033D01*
X168468683Y-47256033D02*
X168068683Y-47256033D01*
X168268683Y-47256033D02*
X168268683Y-46556033D01*
X168268683Y-46556033D02*
X168202016Y-46656033D01*
X168202016Y-46656033D02*
X168135350Y-46722700D01*
X168135350Y-46722700D02*
X168068683Y-46756033D01*
X169068683Y-46789366D02*
X169068683Y-47256033D01*
X168902017Y-46522700D02*
X168735350Y-47022700D01*
X168735350Y-47022700D02*
X169168683Y-47022700D01*
X169935350Y-46522700D02*
X169335350Y-47422700D01*
X170168683Y-47256033D02*
X170168683Y-46556033D01*
X170168683Y-46556033D02*
X170402017Y-47056033D01*
X170402017Y-47056033D02*
X170635350Y-46556033D01*
X170635350Y-46556033D02*
X170635350Y-47256033D01*
X170868683Y-46556033D02*
X171268683Y-46556033D01*
X171068683Y-47256033D02*
X171068683Y-46556033D01*
X171502016Y-47256033D02*
X171502016Y-46556033D01*
X171502016Y-46556033D02*
X171735350Y-47056033D01*
X171735350Y-47056033D02*
X171968683Y-46556033D01*
X171968683Y-46556033D02*
X171968683Y-47256033D01*
X172268683Y-47222700D02*
X172368683Y-47256033D01*
X172368683Y-47256033D02*
X172535350Y-47256033D01*
X172535350Y-47256033D02*
X172602016Y-47222700D01*
X172602016Y-47222700D02*
X172635350Y-47189366D01*
X172635350Y-47189366D02*
X172668683Y-47122700D01*
X172668683Y-47122700D02*
X172668683Y-47056033D01*
X172668683Y-47056033D02*
X172635350Y-46989366D01*
X172635350Y-46989366D02*
X172602016Y-46956033D01*
X172602016Y-46956033D02*
X172535350Y-46922700D01*
X172535350Y-46922700D02*
X172402016Y-46889366D01*
X172402016Y-46889366D02*
X172335350Y-46856033D01*
X172335350Y-46856033D02*
X172302016Y-46822700D01*
X172302016Y-46822700D02*
X172268683Y-46756033D01*
X172268683Y-46756033D02*
X172268683Y-46689366D01*
X172268683Y-46689366D02*
X172302016Y-46622700D01*
X172302016Y-46622700D02*
X172335350Y-46589366D01*
X172335350Y-46589366D02*
X172402016Y-46556033D01*
X172402016Y-46556033D02*
X172568683Y-46556033D01*
X172568683Y-46556033D02*
X172668683Y-46589366D01*
X184864649Y-38969366D02*
X184797982Y-38936033D01*
X184797982Y-38936033D02*
X184697982Y-38936033D01*
X184697982Y-38936033D02*
X184597982Y-38969366D01*
X184597982Y-38969366D02*
X184531316Y-39036033D01*
X184531316Y-39036033D02*
X184497982Y-39102700D01*
X184497982Y-39102700D02*
X184464649Y-39236033D01*
X184464649Y-39236033D02*
X184464649Y-39336033D01*
X184464649Y-39336033D02*
X184497982Y-39469366D01*
X184497982Y-39469366D02*
X184531316Y-39536033D01*
X184531316Y-39536033D02*
X184597982Y-39602700D01*
X184597982Y-39602700D02*
X184697982Y-39636033D01*
X184697982Y-39636033D02*
X184764649Y-39636033D01*
X184764649Y-39636033D02*
X184864649Y-39602700D01*
X184864649Y-39602700D02*
X184897982Y-39569366D01*
X184897982Y-39569366D02*
X184897982Y-39336033D01*
X184897982Y-39336033D02*
X184764649Y-39336033D01*
X185197982Y-39636033D02*
X185197982Y-38936033D01*
X185197982Y-38936033D02*
X185464649Y-38936033D01*
X185464649Y-38936033D02*
X185531316Y-38969366D01*
X185531316Y-38969366D02*
X185564649Y-39002700D01*
X185564649Y-39002700D02*
X185597982Y-39069366D01*
X185597982Y-39069366D02*
X185597982Y-39169366D01*
X185597982Y-39169366D02*
X185564649Y-39236033D01*
X185564649Y-39236033D02*
X185531316Y-39269366D01*
X185531316Y-39269366D02*
X185464649Y-39302700D01*
X185464649Y-39302700D02*
X185197982Y-39302700D01*
X185897982Y-39636033D02*
X185897982Y-38936033D01*
X186364649Y-38936033D02*
X186497982Y-38936033D01*
X186497982Y-38936033D02*
X186564649Y-38969366D01*
X186564649Y-38969366D02*
X186631315Y-39036033D01*
X186631315Y-39036033D02*
X186664649Y-39169366D01*
X186664649Y-39169366D02*
X186664649Y-39402700D01*
X186664649Y-39402700D02*
X186631315Y-39536033D01*
X186631315Y-39536033D02*
X186564649Y-39602700D01*
X186564649Y-39602700D02*
X186497982Y-39636033D01*
X186497982Y-39636033D02*
X186364649Y-39636033D01*
X186364649Y-39636033D02*
X186297982Y-39602700D01*
X186297982Y-39602700D02*
X186231315Y-39536033D01*
X186231315Y-39536033D02*
X186197982Y-39402700D01*
X186197982Y-39402700D02*
X186197982Y-39169366D01*
X186197982Y-39169366D02*
X186231315Y-39036033D01*
X186231315Y-39036033D02*
X186297982Y-38969366D01*
X186297982Y-38969366D02*
X186364649Y-38936033D01*
X187331315Y-39636033D02*
X186931315Y-39636033D01*
X187131315Y-39636033D02*
X187131315Y-38936033D01*
X187131315Y-38936033D02*
X187064648Y-39036033D01*
X187064648Y-39036033D02*
X186997982Y-39102700D01*
X186997982Y-39102700D02*
X186931315Y-39136033D01*
X187731315Y-39236033D02*
X187664649Y-39202700D01*
X187664649Y-39202700D02*
X187631315Y-39169366D01*
X187631315Y-39169366D02*
X187597982Y-39102700D01*
X187597982Y-39102700D02*
X187597982Y-39069366D01*
X187597982Y-39069366D02*
X187631315Y-39002700D01*
X187631315Y-39002700D02*
X187664649Y-38969366D01*
X187664649Y-38969366D02*
X187731315Y-38936033D01*
X187731315Y-38936033D02*
X187864649Y-38936033D01*
X187864649Y-38936033D02*
X187931315Y-38969366D01*
X187931315Y-38969366D02*
X187964649Y-39002700D01*
X187964649Y-39002700D02*
X187997982Y-39069366D01*
X187997982Y-39069366D02*
X187997982Y-39102700D01*
X187997982Y-39102700D02*
X187964649Y-39169366D01*
X187964649Y-39169366D02*
X187931315Y-39202700D01*
X187931315Y-39202700D02*
X187864649Y-39236033D01*
X187864649Y-39236033D02*
X187731315Y-39236033D01*
X187731315Y-39236033D02*
X187664649Y-39269366D01*
X187664649Y-39269366D02*
X187631315Y-39302700D01*
X187631315Y-39302700D02*
X187597982Y-39369366D01*
X187597982Y-39369366D02*
X187597982Y-39502700D01*
X187597982Y-39502700D02*
X187631315Y-39569366D01*
X187631315Y-39569366D02*
X187664649Y-39602700D01*
X187664649Y-39602700D02*
X187731315Y-39636033D01*
X187731315Y-39636033D02*
X187864649Y-39636033D01*
X187864649Y-39636033D02*
X187931315Y-39602700D01*
X187931315Y-39602700D02*
X187964649Y-39569366D01*
X187964649Y-39569366D02*
X187997982Y-39502700D01*
X187997982Y-39502700D02*
X187997982Y-39369366D01*
X187997982Y-39369366D02*
X187964649Y-39302700D01*
X187964649Y-39302700D02*
X187931315Y-39269366D01*
X187931315Y-39269366D02*
X187864649Y-39236033D01*
X166035350Y-62429366D02*
X166002017Y-62462700D01*
X166002017Y-62462700D02*
X165902017Y-62496033D01*
X165902017Y-62496033D02*
X165835350Y-62496033D01*
X165835350Y-62496033D02*
X165735350Y-62462700D01*
X165735350Y-62462700D02*
X165668684Y-62396033D01*
X165668684Y-62396033D02*
X165635350Y-62329366D01*
X165635350Y-62329366D02*
X165602017Y-62196033D01*
X165602017Y-62196033D02*
X165602017Y-62096033D01*
X165602017Y-62096033D02*
X165635350Y-61962700D01*
X165635350Y-61962700D02*
X165668684Y-61896033D01*
X165668684Y-61896033D02*
X165735350Y-61829366D01*
X165735350Y-61829366D02*
X165835350Y-61796033D01*
X165835350Y-61796033D02*
X165902017Y-61796033D01*
X165902017Y-61796033D02*
X166002017Y-61829366D01*
X166002017Y-61829366D02*
X166035350Y-61862700D01*
X166335350Y-62496033D02*
X166335350Y-61796033D01*
X166335350Y-61796033D02*
X166568684Y-62296033D01*
X166568684Y-62296033D02*
X166802017Y-61796033D01*
X166802017Y-61796033D02*
X166802017Y-62496033D01*
X167135350Y-62496033D02*
X167135350Y-61796033D01*
X167135350Y-61796033D02*
X167302017Y-61796033D01*
X167302017Y-61796033D02*
X167402017Y-61829366D01*
X167402017Y-61829366D02*
X167468684Y-61896033D01*
X167468684Y-61896033D02*
X167502017Y-61962700D01*
X167502017Y-61962700D02*
X167535350Y-62096033D01*
X167535350Y-62096033D02*
X167535350Y-62196033D01*
X167535350Y-62196033D02*
X167502017Y-62329366D01*
X167502017Y-62329366D02*
X167468684Y-62396033D01*
X167468684Y-62396033D02*
X167402017Y-62462700D01*
X167402017Y-62462700D02*
X167302017Y-62496033D01*
X167302017Y-62496033D02*
X167135350Y-62496033D01*
X166002017Y-41509366D02*
X165935350Y-41476033D01*
X165935350Y-41476033D02*
X165835350Y-41476033D01*
X165835350Y-41476033D02*
X165735350Y-41509366D01*
X165735350Y-41509366D02*
X165668684Y-41576033D01*
X165668684Y-41576033D02*
X165635350Y-41642700D01*
X165635350Y-41642700D02*
X165602017Y-41776033D01*
X165602017Y-41776033D02*
X165602017Y-41876033D01*
X165602017Y-41876033D02*
X165635350Y-42009366D01*
X165635350Y-42009366D02*
X165668684Y-42076033D01*
X165668684Y-42076033D02*
X165735350Y-42142700D01*
X165735350Y-42142700D02*
X165835350Y-42176033D01*
X165835350Y-42176033D02*
X165902017Y-42176033D01*
X165902017Y-42176033D02*
X166002017Y-42142700D01*
X166002017Y-42142700D02*
X166035350Y-42109366D01*
X166035350Y-42109366D02*
X166035350Y-41876033D01*
X166035350Y-41876033D02*
X165902017Y-41876033D01*
X166335350Y-42176033D02*
X166335350Y-41476033D01*
X166335350Y-41476033D02*
X166602017Y-41476033D01*
X166602017Y-41476033D02*
X166668684Y-41509366D01*
X166668684Y-41509366D02*
X166702017Y-41542700D01*
X166702017Y-41542700D02*
X166735350Y-41609366D01*
X166735350Y-41609366D02*
X166735350Y-41709366D01*
X166735350Y-41709366D02*
X166702017Y-41776033D01*
X166702017Y-41776033D02*
X166668684Y-41809366D01*
X166668684Y-41809366D02*
X166602017Y-41842700D01*
X166602017Y-41842700D02*
X166335350Y-41842700D01*
X167035350Y-42176033D02*
X167035350Y-41476033D01*
X167502017Y-41476033D02*
X167635350Y-41476033D01*
X167635350Y-41476033D02*
X167702017Y-41509366D01*
X167702017Y-41509366D02*
X167768683Y-41576033D01*
X167768683Y-41576033D02*
X167802017Y-41709366D01*
X167802017Y-41709366D02*
X167802017Y-41942700D01*
X167802017Y-41942700D02*
X167768683Y-42076033D01*
X167768683Y-42076033D02*
X167702017Y-42142700D01*
X167702017Y-42142700D02*
X167635350Y-42176033D01*
X167635350Y-42176033D02*
X167502017Y-42176033D01*
X167502017Y-42176033D02*
X167435350Y-42142700D01*
X167435350Y-42142700D02*
X167368683Y-42076033D01*
X167368683Y-42076033D02*
X167335350Y-41942700D01*
X167335350Y-41942700D02*
X167335350Y-41709366D01*
X167335350Y-41709366D02*
X167368683Y-41576033D01*
X167368683Y-41576033D02*
X167435350Y-41509366D01*
X167435350Y-41509366D02*
X167502017Y-41476033D01*
X168068683Y-41542700D02*
X168102016Y-41509366D01*
X168102016Y-41509366D02*
X168168683Y-41476033D01*
X168168683Y-41476033D02*
X168335350Y-41476033D01*
X168335350Y-41476033D02*
X168402016Y-41509366D01*
X168402016Y-41509366D02*
X168435350Y-41542700D01*
X168435350Y-41542700D02*
X168468683Y-41609366D01*
X168468683Y-41609366D02*
X168468683Y-41676033D01*
X168468683Y-41676033D02*
X168435350Y-41776033D01*
X168435350Y-41776033D02*
X168035350Y-42176033D01*
X168035350Y-42176033D02*
X168468683Y-42176033D01*
X169068683Y-41476033D02*
X168935350Y-41476033D01*
X168935350Y-41476033D02*
X168868683Y-41509366D01*
X168868683Y-41509366D02*
X168835350Y-41542700D01*
X168835350Y-41542700D02*
X168768683Y-41642700D01*
X168768683Y-41642700D02*
X168735350Y-41776033D01*
X168735350Y-41776033D02*
X168735350Y-42042700D01*
X168735350Y-42042700D02*
X168768683Y-42109366D01*
X168768683Y-42109366D02*
X168802017Y-42142700D01*
X168802017Y-42142700D02*
X168868683Y-42176033D01*
X168868683Y-42176033D02*
X169002017Y-42176033D01*
X169002017Y-42176033D02*
X169068683Y-42142700D01*
X169068683Y-42142700D02*
X169102017Y-42109366D01*
X169102017Y-42109366D02*
X169135350Y-42042700D01*
X169135350Y-42042700D02*
X169135350Y-41876033D01*
X169135350Y-41876033D02*
X169102017Y-41809366D01*
X169102017Y-41809366D02*
X169068683Y-41776033D01*
X169068683Y-41776033D02*
X169002017Y-41742700D01*
X169002017Y-41742700D02*
X168868683Y-41742700D01*
X168868683Y-41742700D02*
X168802017Y-41776033D01*
X168802017Y-41776033D02*
X168768683Y-41809366D01*
X168768683Y-41809366D02*
X168735350Y-41876033D01*
X181331316Y-28809366D02*
X181264649Y-28776033D01*
X181264649Y-28776033D02*
X181164649Y-28776033D01*
X181164649Y-28776033D02*
X181064649Y-28809366D01*
X181064649Y-28809366D02*
X180997983Y-28876033D01*
X180997983Y-28876033D02*
X180964649Y-28942700D01*
X180964649Y-28942700D02*
X180931316Y-29076033D01*
X180931316Y-29076033D02*
X180931316Y-29176033D01*
X180931316Y-29176033D02*
X180964649Y-29309366D01*
X180964649Y-29309366D02*
X180997983Y-29376033D01*
X180997983Y-29376033D02*
X181064649Y-29442700D01*
X181064649Y-29442700D02*
X181164649Y-29476033D01*
X181164649Y-29476033D02*
X181231316Y-29476033D01*
X181231316Y-29476033D02*
X181331316Y-29442700D01*
X181331316Y-29442700D02*
X181364649Y-29409366D01*
X181364649Y-29409366D02*
X181364649Y-29176033D01*
X181364649Y-29176033D02*
X181231316Y-29176033D01*
X181664649Y-29476033D02*
X181664649Y-28776033D01*
X181664649Y-28776033D02*
X181931316Y-28776033D01*
X181931316Y-28776033D02*
X181997983Y-28809366D01*
X181997983Y-28809366D02*
X182031316Y-28842700D01*
X182031316Y-28842700D02*
X182064649Y-28909366D01*
X182064649Y-28909366D02*
X182064649Y-29009366D01*
X182064649Y-29009366D02*
X182031316Y-29076033D01*
X182031316Y-29076033D02*
X181997983Y-29109366D01*
X181997983Y-29109366D02*
X181931316Y-29142700D01*
X181931316Y-29142700D02*
X181664649Y-29142700D01*
X182364649Y-29476033D02*
X182364649Y-28776033D01*
X182831316Y-28776033D02*
X182964649Y-28776033D01*
X182964649Y-28776033D02*
X183031316Y-28809366D01*
X183031316Y-28809366D02*
X183097982Y-28876033D01*
X183097982Y-28876033D02*
X183131316Y-29009366D01*
X183131316Y-29009366D02*
X183131316Y-29242700D01*
X183131316Y-29242700D02*
X183097982Y-29376033D01*
X183097982Y-29376033D02*
X183031316Y-29442700D01*
X183031316Y-29442700D02*
X182964649Y-29476033D01*
X182964649Y-29476033D02*
X182831316Y-29476033D01*
X182831316Y-29476033D02*
X182764649Y-29442700D01*
X182764649Y-29442700D02*
X182697982Y-29376033D01*
X182697982Y-29376033D02*
X182664649Y-29242700D01*
X182664649Y-29242700D02*
X182664649Y-29009366D01*
X182664649Y-29009366D02*
X182697982Y-28876033D01*
X182697982Y-28876033D02*
X182764649Y-28809366D01*
X182764649Y-28809366D02*
X182831316Y-28776033D01*
X183364649Y-28776033D02*
X183797982Y-28776033D01*
X183797982Y-28776033D02*
X183564649Y-29042700D01*
X183564649Y-29042700D02*
X183664649Y-29042700D01*
X183664649Y-29042700D02*
X183731315Y-29076033D01*
X183731315Y-29076033D02*
X183764649Y-29109366D01*
X183764649Y-29109366D02*
X183797982Y-29176033D01*
X183797982Y-29176033D02*
X183797982Y-29342700D01*
X183797982Y-29342700D02*
X183764649Y-29409366D01*
X183764649Y-29409366D02*
X183731315Y-29442700D01*
X183731315Y-29442700D02*
X183664649Y-29476033D01*
X183664649Y-29476033D02*
X183464649Y-29476033D01*
X183464649Y-29476033D02*
X183397982Y-29442700D01*
X183397982Y-29442700D02*
X183364649Y-29409366D01*
X184597982Y-28742700D02*
X183997982Y-29642700D01*
X184831315Y-28776033D02*
X184831315Y-29342700D01*
X184831315Y-29342700D02*
X184864649Y-29409366D01*
X184864649Y-29409366D02*
X184897982Y-29442700D01*
X184897982Y-29442700D02*
X184964649Y-29476033D01*
X184964649Y-29476033D02*
X185097982Y-29476033D01*
X185097982Y-29476033D02*
X185164649Y-29442700D01*
X185164649Y-29442700D02*
X185197982Y-29409366D01*
X185197982Y-29409366D02*
X185231315Y-29342700D01*
X185231315Y-29342700D02*
X185231315Y-28776033D01*
X185697982Y-28776033D02*
X185764648Y-28776033D01*
X185764648Y-28776033D02*
X185831315Y-28809366D01*
X185831315Y-28809366D02*
X185864648Y-28842700D01*
X185864648Y-28842700D02*
X185897982Y-28909366D01*
X185897982Y-28909366D02*
X185931315Y-29042700D01*
X185931315Y-29042700D02*
X185931315Y-29209366D01*
X185931315Y-29209366D02*
X185897982Y-29342700D01*
X185897982Y-29342700D02*
X185864648Y-29409366D01*
X185864648Y-29409366D02*
X185831315Y-29442700D01*
X185831315Y-29442700D02*
X185764648Y-29476033D01*
X185764648Y-29476033D02*
X185697982Y-29476033D01*
X185697982Y-29476033D02*
X185631315Y-29442700D01*
X185631315Y-29442700D02*
X185597982Y-29409366D01*
X185597982Y-29409366D02*
X185564648Y-29342700D01*
X185564648Y-29342700D02*
X185531315Y-29209366D01*
X185531315Y-29209366D02*
X185531315Y-29042700D01*
X185531315Y-29042700D02*
X185564648Y-28909366D01*
X185564648Y-28909366D02*
X185597982Y-28842700D01*
X185597982Y-28842700D02*
X185631315Y-28809366D01*
X185631315Y-28809366D02*
X185697982Y-28776033D01*
X186631315Y-29476033D02*
X186397982Y-29142700D01*
X186231315Y-29476033D02*
X186231315Y-28776033D01*
X186231315Y-28776033D02*
X186497982Y-28776033D01*
X186497982Y-28776033D02*
X186564649Y-28809366D01*
X186564649Y-28809366D02*
X186597982Y-28842700D01*
X186597982Y-28842700D02*
X186631315Y-28909366D01*
X186631315Y-28909366D02*
X186631315Y-29009366D01*
X186631315Y-29009366D02*
X186597982Y-29076033D01*
X186597982Y-29076033D02*
X186564649Y-29109366D01*
X186564649Y-29109366D02*
X186497982Y-29142700D01*
X186497982Y-29142700D02*
X186231315Y-29142700D01*
X186864649Y-28776033D02*
X187331315Y-29476033D01*
X187331315Y-28776033D02*
X186864649Y-29476033D01*
X187597982Y-29476033D02*
X187597982Y-28776033D01*
X187597982Y-28776033D02*
X187764649Y-28776033D01*
X187764649Y-28776033D02*
X187864649Y-28809366D01*
X187864649Y-28809366D02*
X187931316Y-28876033D01*
X187931316Y-28876033D02*
X187964649Y-28942700D01*
X187964649Y-28942700D02*
X187997982Y-29076033D01*
X187997982Y-29076033D02*
X187997982Y-29176033D01*
X187997982Y-29176033D02*
X187964649Y-29309366D01*
X187964649Y-29309366D02*
X187931316Y-29376033D01*
X187931316Y-29376033D02*
X187864649Y-29442700D01*
X187864649Y-29442700D02*
X187764649Y-29476033D01*
X187764649Y-29476033D02*
X187597982Y-29476033D01*
X186931315Y-62496033D02*
X186931315Y-61796033D01*
X186931315Y-61796033D02*
X187097982Y-61796033D01*
X187097982Y-61796033D02*
X187197982Y-61829366D01*
X187197982Y-61829366D02*
X187264649Y-61896033D01*
X187264649Y-61896033D02*
X187297982Y-61962700D01*
X187297982Y-61962700D02*
X187331315Y-62096033D01*
X187331315Y-62096033D02*
X187331315Y-62196033D01*
X187331315Y-62196033D02*
X187297982Y-62329366D01*
X187297982Y-62329366D02*
X187264649Y-62396033D01*
X187264649Y-62396033D02*
X187197982Y-62462700D01*
X187197982Y-62462700D02*
X187097982Y-62496033D01*
X187097982Y-62496033D02*
X186931315Y-62496033D01*
X187764649Y-61796033D02*
X187831315Y-61796033D01*
X187831315Y-61796033D02*
X187897982Y-61829366D01*
X187897982Y-61829366D02*
X187931315Y-61862700D01*
X187931315Y-61862700D02*
X187964649Y-61929366D01*
X187964649Y-61929366D02*
X187997982Y-62062700D01*
X187997982Y-62062700D02*
X187997982Y-62229366D01*
X187997982Y-62229366D02*
X187964649Y-62362700D01*
X187964649Y-62362700D02*
X187931315Y-62429366D01*
X187931315Y-62429366D02*
X187897982Y-62462700D01*
X187897982Y-62462700D02*
X187831315Y-62496033D01*
X187831315Y-62496033D02*
X187764649Y-62496033D01*
X187764649Y-62496033D02*
X187697982Y-62462700D01*
X187697982Y-62462700D02*
X187664649Y-62429366D01*
X187664649Y-62429366D02*
X187631315Y-62362700D01*
X187631315Y-62362700D02*
X187597982Y-62229366D01*
X187597982Y-62229366D02*
X187597982Y-62062700D01*
X187597982Y-62062700D02*
X187631315Y-61929366D01*
X187631315Y-61929366D02*
X187664649Y-61862700D01*
X187664649Y-61862700D02*
X187697982Y-61829366D01*
X187697982Y-61829366D02*
X187764649Y-61796033D01*
X184864649Y-31349366D02*
X184797982Y-31316033D01*
X184797982Y-31316033D02*
X184697982Y-31316033D01*
X184697982Y-31316033D02*
X184597982Y-31349366D01*
X184597982Y-31349366D02*
X184531316Y-31416033D01*
X184531316Y-31416033D02*
X184497982Y-31482700D01*
X184497982Y-31482700D02*
X184464649Y-31616033D01*
X184464649Y-31616033D02*
X184464649Y-31716033D01*
X184464649Y-31716033D02*
X184497982Y-31849366D01*
X184497982Y-31849366D02*
X184531316Y-31916033D01*
X184531316Y-31916033D02*
X184597982Y-31982700D01*
X184597982Y-31982700D02*
X184697982Y-32016033D01*
X184697982Y-32016033D02*
X184764649Y-32016033D01*
X184764649Y-32016033D02*
X184864649Y-31982700D01*
X184864649Y-31982700D02*
X184897982Y-31949366D01*
X184897982Y-31949366D02*
X184897982Y-31716033D01*
X184897982Y-31716033D02*
X184764649Y-31716033D01*
X185197982Y-32016033D02*
X185197982Y-31316033D01*
X185197982Y-31316033D02*
X185464649Y-31316033D01*
X185464649Y-31316033D02*
X185531316Y-31349366D01*
X185531316Y-31349366D02*
X185564649Y-31382700D01*
X185564649Y-31382700D02*
X185597982Y-31449366D01*
X185597982Y-31449366D02*
X185597982Y-31549366D01*
X185597982Y-31549366D02*
X185564649Y-31616033D01*
X185564649Y-31616033D02*
X185531316Y-31649366D01*
X185531316Y-31649366D02*
X185464649Y-31682700D01*
X185464649Y-31682700D02*
X185197982Y-31682700D01*
X185897982Y-32016033D02*
X185897982Y-31316033D01*
X186364649Y-31316033D02*
X186497982Y-31316033D01*
X186497982Y-31316033D02*
X186564649Y-31349366D01*
X186564649Y-31349366D02*
X186631315Y-31416033D01*
X186631315Y-31416033D02*
X186664649Y-31549366D01*
X186664649Y-31549366D02*
X186664649Y-31782700D01*
X186664649Y-31782700D02*
X186631315Y-31916033D01*
X186631315Y-31916033D02*
X186564649Y-31982700D01*
X186564649Y-31982700D02*
X186497982Y-32016033D01*
X186497982Y-32016033D02*
X186364649Y-32016033D01*
X186364649Y-32016033D02*
X186297982Y-31982700D01*
X186297982Y-31982700D02*
X186231315Y-31916033D01*
X186231315Y-31916033D02*
X186197982Y-31782700D01*
X186197982Y-31782700D02*
X186197982Y-31549366D01*
X186197982Y-31549366D02*
X186231315Y-31416033D01*
X186231315Y-31416033D02*
X186297982Y-31349366D01*
X186297982Y-31349366D02*
X186364649Y-31316033D01*
X186931315Y-31382700D02*
X186964648Y-31349366D01*
X186964648Y-31349366D02*
X187031315Y-31316033D01*
X187031315Y-31316033D02*
X187197982Y-31316033D01*
X187197982Y-31316033D02*
X187264648Y-31349366D01*
X187264648Y-31349366D02*
X187297982Y-31382700D01*
X187297982Y-31382700D02*
X187331315Y-31449366D01*
X187331315Y-31449366D02*
X187331315Y-31516033D01*
X187331315Y-31516033D02*
X187297982Y-31616033D01*
X187297982Y-31616033D02*
X186897982Y-32016033D01*
X186897982Y-32016033D02*
X187331315Y-32016033D01*
X187997982Y-32016033D02*
X187597982Y-32016033D01*
X187797982Y-32016033D02*
X187797982Y-31316033D01*
X187797982Y-31316033D02*
X187731315Y-31416033D01*
X187731315Y-31416033D02*
X187664649Y-31482700D01*
X187664649Y-31482700D02*
X187597982Y-31516033D01*
X165635350Y-59956033D02*
X165635350Y-59256033D01*
X165635350Y-59256033D02*
X165802017Y-59256033D01*
X165802017Y-59256033D02*
X165902017Y-59289366D01*
X165902017Y-59289366D02*
X165968684Y-59356033D01*
X165968684Y-59356033D02*
X166002017Y-59422700D01*
X166002017Y-59422700D02*
X166035350Y-59556033D01*
X166035350Y-59556033D02*
X166035350Y-59656033D01*
X166035350Y-59656033D02*
X166002017Y-59789366D01*
X166002017Y-59789366D02*
X165968684Y-59856033D01*
X165968684Y-59856033D02*
X165902017Y-59922700D01*
X165902017Y-59922700D02*
X165802017Y-59956033D01*
X165802017Y-59956033D02*
X165635350Y-59956033D01*
X166268684Y-59256033D02*
X166702017Y-59256033D01*
X166702017Y-59256033D02*
X166468684Y-59522700D01*
X166468684Y-59522700D02*
X166568684Y-59522700D01*
X166568684Y-59522700D02*
X166635350Y-59556033D01*
X166635350Y-59556033D02*
X166668684Y-59589366D01*
X166668684Y-59589366D02*
X166702017Y-59656033D01*
X166702017Y-59656033D02*
X166702017Y-59822700D01*
X166702017Y-59822700D02*
X166668684Y-59889366D01*
X166668684Y-59889366D02*
X166635350Y-59922700D01*
X166635350Y-59922700D02*
X166568684Y-59956033D01*
X166568684Y-59956033D02*
X166368684Y-59956033D01*
X166368684Y-59956033D02*
X166302017Y-59922700D01*
X166302017Y-59922700D02*
X166268684Y-59889366D01*
X166002017Y-49129366D02*
X165935350Y-49096033D01*
X165935350Y-49096033D02*
X165835350Y-49096033D01*
X165835350Y-49096033D02*
X165735350Y-49129366D01*
X165735350Y-49129366D02*
X165668684Y-49196033D01*
X165668684Y-49196033D02*
X165635350Y-49262700D01*
X165635350Y-49262700D02*
X165602017Y-49396033D01*
X165602017Y-49396033D02*
X165602017Y-49496033D01*
X165602017Y-49496033D02*
X165635350Y-49629366D01*
X165635350Y-49629366D02*
X165668684Y-49696033D01*
X165668684Y-49696033D02*
X165735350Y-49762700D01*
X165735350Y-49762700D02*
X165835350Y-49796033D01*
X165835350Y-49796033D02*
X165902017Y-49796033D01*
X165902017Y-49796033D02*
X166002017Y-49762700D01*
X166002017Y-49762700D02*
X166035350Y-49729366D01*
X166035350Y-49729366D02*
X166035350Y-49496033D01*
X166035350Y-49496033D02*
X165902017Y-49496033D01*
X166335350Y-49796033D02*
X166335350Y-49096033D01*
X166335350Y-49096033D02*
X166602017Y-49096033D01*
X166602017Y-49096033D02*
X166668684Y-49129366D01*
X166668684Y-49129366D02*
X166702017Y-49162700D01*
X166702017Y-49162700D02*
X166735350Y-49229366D01*
X166735350Y-49229366D02*
X166735350Y-49329366D01*
X166735350Y-49329366D02*
X166702017Y-49396033D01*
X166702017Y-49396033D02*
X166668684Y-49429366D01*
X166668684Y-49429366D02*
X166602017Y-49462700D01*
X166602017Y-49462700D02*
X166335350Y-49462700D01*
X167035350Y-49796033D02*
X167035350Y-49096033D01*
X167502017Y-49096033D02*
X167635350Y-49096033D01*
X167635350Y-49096033D02*
X167702017Y-49129366D01*
X167702017Y-49129366D02*
X167768683Y-49196033D01*
X167768683Y-49196033D02*
X167802017Y-49329366D01*
X167802017Y-49329366D02*
X167802017Y-49562700D01*
X167802017Y-49562700D02*
X167768683Y-49696033D01*
X167768683Y-49696033D02*
X167702017Y-49762700D01*
X167702017Y-49762700D02*
X167635350Y-49796033D01*
X167635350Y-49796033D02*
X167502017Y-49796033D01*
X167502017Y-49796033D02*
X167435350Y-49762700D01*
X167435350Y-49762700D02*
X167368683Y-49696033D01*
X167368683Y-49696033D02*
X167335350Y-49562700D01*
X167335350Y-49562700D02*
X167335350Y-49329366D01*
X167335350Y-49329366D02*
X167368683Y-49196033D01*
X167368683Y-49196033D02*
X167435350Y-49129366D01*
X167435350Y-49129366D02*
X167502017Y-49096033D01*
X168468683Y-49796033D02*
X168068683Y-49796033D01*
X168268683Y-49796033D02*
X168268683Y-49096033D01*
X168268683Y-49096033D02*
X168202016Y-49196033D01*
X168202016Y-49196033D02*
X168135350Y-49262700D01*
X168135350Y-49262700D02*
X168068683Y-49296033D01*
X168735350Y-49162700D02*
X168768683Y-49129366D01*
X168768683Y-49129366D02*
X168835350Y-49096033D01*
X168835350Y-49096033D02*
X169002017Y-49096033D01*
X169002017Y-49096033D02*
X169068683Y-49129366D01*
X169068683Y-49129366D02*
X169102017Y-49162700D01*
X169102017Y-49162700D02*
X169135350Y-49229366D01*
X169135350Y-49229366D02*
X169135350Y-49296033D01*
X169135350Y-49296033D02*
X169102017Y-49396033D01*
X169102017Y-49396033D02*
X168702017Y-49796033D01*
X168702017Y-49796033D02*
X169135350Y-49796033D01*
X169935350Y-49062700D02*
X169335350Y-49962700D01*
X170168683Y-49796033D02*
X170168683Y-49096033D01*
X170168683Y-49096033D02*
X170402017Y-49596033D01*
X170402017Y-49596033D02*
X170635350Y-49096033D01*
X170635350Y-49096033D02*
X170635350Y-49796033D01*
X170868683Y-49096033D02*
X171268683Y-49096033D01*
X171068683Y-49796033D02*
X171068683Y-49096033D01*
X171502016Y-49796033D02*
X171502016Y-49096033D01*
X171502016Y-49096033D02*
X171668683Y-49096033D01*
X171668683Y-49096033D02*
X171768683Y-49129366D01*
X171768683Y-49129366D02*
X171835350Y-49196033D01*
X171835350Y-49196033D02*
X171868683Y-49262700D01*
X171868683Y-49262700D02*
X171902016Y-49396033D01*
X171902016Y-49396033D02*
X171902016Y-49496033D01*
X171902016Y-49496033D02*
X171868683Y-49629366D01*
X171868683Y-49629366D02*
X171835350Y-49696033D01*
X171835350Y-49696033D02*
X171768683Y-49762700D01*
X171768683Y-49762700D02*
X171668683Y-49796033D01*
X171668683Y-49796033D02*
X171502016Y-49796033D01*
X172202016Y-49796033D02*
X172202016Y-49096033D01*
X186731315Y-64969366D02*
X186697982Y-65002700D01*
X186697982Y-65002700D02*
X186597982Y-65036033D01*
X186597982Y-65036033D02*
X186531315Y-65036033D01*
X186531315Y-65036033D02*
X186431315Y-65002700D01*
X186431315Y-65002700D02*
X186364649Y-64936033D01*
X186364649Y-64936033D02*
X186331315Y-64869366D01*
X186331315Y-64869366D02*
X186297982Y-64736033D01*
X186297982Y-64736033D02*
X186297982Y-64636033D01*
X186297982Y-64636033D02*
X186331315Y-64502700D01*
X186331315Y-64502700D02*
X186364649Y-64436033D01*
X186364649Y-64436033D02*
X186431315Y-64369366D01*
X186431315Y-64369366D02*
X186531315Y-64336033D01*
X186531315Y-64336033D02*
X186597982Y-64336033D01*
X186597982Y-64336033D02*
X186697982Y-64369366D01*
X186697982Y-64369366D02*
X186731315Y-64402700D01*
X187364649Y-65036033D02*
X187031315Y-65036033D01*
X187031315Y-65036033D02*
X187031315Y-64336033D01*
X187597982Y-65036033D02*
X187597982Y-64336033D01*
X187997982Y-65036033D02*
X187697982Y-64636033D01*
X187997982Y-64336033D02*
X187597982Y-64736033D01*
X184864649Y-21189366D02*
X184797982Y-21156033D01*
X184797982Y-21156033D02*
X184697982Y-21156033D01*
X184697982Y-21156033D02*
X184597982Y-21189366D01*
X184597982Y-21189366D02*
X184531316Y-21256033D01*
X184531316Y-21256033D02*
X184497982Y-21322700D01*
X184497982Y-21322700D02*
X184464649Y-21456033D01*
X184464649Y-21456033D02*
X184464649Y-21556033D01*
X184464649Y-21556033D02*
X184497982Y-21689366D01*
X184497982Y-21689366D02*
X184531316Y-21756033D01*
X184531316Y-21756033D02*
X184597982Y-21822700D01*
X184597982Y-21822700D02*
X184697982Y-21856033D01*
X184697982Y-21856033D02*
X184764649Y-21856033D01*
X184764649Y-21856033D02*
X184864649Y-21822700D01*
X184864649Y-21822700D02*
X184897982Y-21789366D01*
X184897982Y-21789366D02*
X184897982Y-21556033D01*
X184897982Y-21556033D02*
X184764649Y-21556033D01*
X185197982Y-21856033D02*
X185197982Y-21156033D01*
X185197982Y-21156033D02*
X185464649Y-21156033D01*
X185464649Y-21156033D02*
X185531316Y-21189366D01*
X185531316Y-21189366D02*
X185564649Y-21222700D01*
X185564649Y-21222700D02*
X185597982Y-21289366D01*
X185597982Y-21289366D02*
X185597982Y-21389366D01*
X185597982Y-21389366D02*
X185564649Y-21456033D01*
X185564649Y-21456033D02*
X185531316Y-21489366D01*
X185531316Y-21489366D02*
X185464649Y-21522700D01*
X185464649Y-21522700D02*
X185197982Y-21522700D01*
X185897982Y-21856033D02*
X185897982Y-21156033D01*
X186364649Y-21156033D02*
X186497982Y-21156033D01*
X186497982Y-21156033D02*
X186564649Y-21189366D01*
X186564649Y-21189366D02*
X186631315Y-21256033D01*
X186631315Y-21256033D02*
X186664649Y-21389366D01*
X186664649Y-21389366D02*
X186664649Y-21622700D01*
X186664649Y-21622700D02*
X186631315Y-21756033D01*
X186631315Y-21756033D02*
X186564649Y-21822700D01*
X186564649Y-21822700D02*
X186497982Y-21856033D01*
X186497982Y-21856033D02*
X186364649Y-21856033D01*
X186364649Y-21856033D02*
X186297982Y-21822700D01*
X186297982Y-21822700D02*
X186231315Y-21756033D01*
X186231315Y-21756033D02*
X186197982Y-21622700D01*
X186197982Y-21622700D02*
X186197982Y-21389366D01*
X186197982Y-21389366D02*
X186231315Y-21256033D01*
X186231315Y-21256033D02*
X186297982Y-21189366D01*
X186297982Y-21189366D02*
X186364649Y-21156033D01*
X186931315Y-21222700D02*
X186964648Y-21189366D01*
X186964648Y-21189366D02*
X187031315Y-21156033D01*
X187031315Y-21156033D02*
X187197982Y-21156033D01*
X187197982Y-21156033D02*
X187264648Y-21189366D01*
X187264648Y-21189366D02*
X187297982Y-21222700D01*
X187297982Y-21222700D02*
X187331315Y-21289366D01*
X187331315Y-21289366D02*
X187331315Y-21356033D01*
X187331315Y-21356033D02*
X187297982Y-21456033D01*
X187297982Y-21456033D02*
X186897982Y-21856033D01*
X186897982Y-21856033D02*
X187331315Y-21856033D01*
X187564649Y-21156033D02*
X187997982Y-21156033D01*
X187997982Y-21156033D02*
X187764649Y-21422700D01*
X187764649Y-21422700D02*
X187864649Y-21422700D01*
X187864649Y-21422700D02*
X187931315Y-21456033D01*
X187931315Y-21456033D02*
X187964649Y-21489366D01*
X187964649Y-21489366D02*
X187997982Y-21556033D01*
X187997982Y-21556033D02*
X187997982Y-21722700D01*
X187997982Y-21722700D02*
X187964649Y-21789366D01*
X187964649Y-21789366D02*
X187931315Y-21822700D01*
X187931315Y-21822700D02*
X187864649Y-21856033D01*
X187864649Y-21856033D02*
X187664649Y-21856033D01*
X187664649Y-21856033D02*
X187597982Y-21822700D01*
X187597982Y-21822700D02*
X187564649Y-21789366D01*
X166002017Y-44049366D02*
X165935350Y-44016033D01*
X165935350Y-44016033D02*
X165835350Y-44016033D01*
X165835350Y-44016033D02*
X165735350Y-44049366D01*
X165735350Y-44049366D02*
X165668684Y-44116033D01*
X165668684Y-44116033D02*
X165635350Y-44182700D01*
X165635350Y-44182700D02*
X165602017Y-44316033D01*
X165602017Y-44316033D02*
X165602017Y-44416033D01*
X165602017Y-44416033D02*
X165635350Y-44549366D01*
X165635350Y-44549366D02*
X165668684Y-44616033D01*
X165668684Y-44616033D02*
X165735350Y-44682700D01*
X165735350Y-44682700D02*
X165835350Y-44716033D01*
X165835350Y-44716033D02*
X165902017Y-44716033D01*
X165902017Y-44716033D02*
X166002017Y-44682700D01*
X166002017Y-44682700D02*
X166035350Y-44649366D01*
X166035350Y-44649366D02*
X166035350Y-44416033D01*
X166035350Y-44416033D02*
X165902017Y-44416033D01*
X166335350Y-44716033D02*
X166335350Y-44016033D01*
X166335350Y-44016033D02*
X166602017Y-44016033D01*
X166602017Y-44016033D02*
X166668684Y-44049366D01*
X166668684Y-44049366D02*
X166702017Y-44082700D01*
X166702017Y-44082700D02*
X166735350Y-44149366D01*
X166735350Y-44149366D02*
X166735350Y-44249366D01*
X166735350Y-44249366D02*
X166702017Y-44316033D01*
X166702017Y-44316033D02*
X166668684Y-44349366D01*
X166668684Y-44349366D02*
X166602017Y-44382700D01*
X166602017Y-44382700D02*
X166335350Y-44382700D01*
X167035350Y-44716033D02*
X167035350Y-44016033D01*
X167502017Y-44016033D02*
X167635350Y-44016033D01*
X167635350Y-44016033D02*
X167702017Y-44049366D01*
X167702017Y-44049366D02*
X167768683Y-44116033D01*
X167768683Y-44116033D02*
X167802017Y-44249366D01*
X167802017Y-44249366D02*
X167802017Y-44482700D01*
X167802017Y-44482700D02*
X167768683Y-44616033D01*
X167768683Y-44616033D02*
X167702017Y-44682700D01*
X167702017Y-44682700D02*
X167635350Y-44716033D01*
X167635350Y-44716033D02*
X167502017Y-44716033D01*
X167502017Y-44716033D02*
X167435350Y-44682700D01*
X167435350Y-44682700D02*
X167368683Y-44616033D01*
X167368683Y-44616033D02*
X167335350Y-44482700D01*
X167335350Y-44482700D02*
X167335350Y-44249366D01*
X167335350Y-44249366D02*
X167368683Y-44116033D01*
X167368683Y-44116033D02*
X167435350Y-44049366D01*
X167435350Y-44049366D02*
X167502017Y-44016033D01*
X168068683Y-44082700D02*
X168102016Y-44049366D01*
X168102016Y-44049366D02*
X168168683Y-44016033D01*
X168168683Y-44016033D02*
X168335350Y-44016033D01*
X168335350Y-44016033D02*
X168402016Y-44049366D01*
X168402016Y-44049366D02*
X168435350Y-44082700D01*
X168435350Y-44082700D02*
X168468683Y-44149366D01*
X168468683Y-44149366D02*
X168468683Y-44216033D01*
X168468683Y-44216033D02*
X168435350Y-44316033D01*
X168435350Y-44316033D02*
X168035350Y-44716033D01*
X168035350Y-44716033D02*
X168468683Y-44716033D01*
X168702017Y-44016033D02*
X169168683Y-44016033D01*
X169168683Y-44016033D02*
X168868683Y-44716033D01*
X185531316Y-41509366D02*
X185464649Y-41476033D01*
X185464649Y-41476033D02*
X185364649Y-41476033D01*
X185364649Y-41476033D02*
X185264649Y-41509366D01*
X185264649Y-41509366D02*
X185197983Y-41576033D01*
X185197983Y-41576033D02*
X185164649Y-41642700D01*
X185164649Y-41642700D02*
X185131316Y-41776033D01*
X185131316Y-41776033D02*
X185131316Y-41876033D01*
X185131316Y-41876033D02*
X185164649Y-42009366D01*
X185164649Y-42009366D02*
X185197983Y-42076033D01*
X185197983Y-42076033D02*
X185264649Y-42142700D01*
X185264649Y-42142700D02*
X185364649Y-42176033D01*
X185364649Y-42176033D02*
X185431316Y-42176033D01*
X185431316Y-42176033D02*
X185531316Y-42142700D01*
X185531316Y-42142700D02*
X185564649Y-42109366D01*
X185564649Y-42109366D02*
X185564649Y-41876033D01*
X185564649Y-41876033D02*
X185431316Y-41876033D01*
X185864649Y-42176033D02*
X185864649Y-41476033D01*
X185864649Y-41476033D02*
X186131316Y-41476033D01*
X186131316Y-41476033D02*
X186197983Y-41509366D01*
X186197983Y-41509366D02*
X186231316Y-41542700D01*
X186231316Y-41542700D02*
X186264649Y-41609366D01*
X186264649Y-41609366D02*
X186264649Y-41709366D01*
X186264649Y-41709366D02*
X186231316Y-41776033D01*
X186231316Y-41776033D02*
X186197983Y-41809366D01*
X186197983Y-41809366D02*
X186131316Y-41842700D01*
X186131316Y-41842700D02*
X185864649Y-41842700D01*
X186564649Y-42176033D02*
X186564649Y-41476033D01*
X187031316Y-41476033D02*
X187164649Y-41476033D01*
X187164649Y-41476033D02*
X187231316Y-41509366D01*
X187231316Y-41509366D02*
X187297982Y-41576033D01*
X187297982Y-41576033D02*
X187331316Y-41709366D01*
X187331316Y-41709366D02*
X187331316Y-41942700D01*
X187331316Y-41942700D02*
X187297982Y-42076033D01*
X187297982Y-42076033D02*
X187231316Y-42142700D01*
X187231316Y-42142700D02*
X187164649Y-42176033D01*
X187164649Y-42176033D02*
X187031316Y-42176033D01*
X187031316Y-42176033D02*
X186964649Y-42142700D01*
X186964649Y-42142700D02*
X186897982Y-42076033D01*
X186897982Y-42076033D02*
X186864649Y-41942700D01*
X186864649Y-41942700D02*
X186864649Y-41709366D01*
X186864649Y-41709366D02*
X186897982Y-41576033D01*
X186897982Y-41576033D02*
X186964649Y-41509366D01*
X186964649Y-41509366D02*
X187031316Y-41476033D01*
X187964649Y-41476033D02*
X187631315Y-41476033D01*
X187631315Y-41476033D02*
X187597982Y-41809366D01*
X187597982Y-41809366D02*
X187631315Y-41776033D01*
X187631315Y-41776033D02*
X187697982Y-41742700D01*
X187697982Y-41742700D02*
X187864649Y-41742700D01*
X187864649Y-41742700D02*
X187931315Y-41776033D01*
X187931315Y-41776033D02*
X187964649Y-41809366D01*
X187964649Y-41809366D02*
X187997982Y-41876033D01*
X187997982Y-41876033D02*
X187997982Y-42042700D01*
X187997982Y-42042700D02*
X187964649Y-42109366D01*
X187964649Y-42109366D02*
X187931315Y-42142700D01*
X187931315Y-42142700D02*
X187864649Y-42176033D01*
X187864649Y-42176033D02*
X187697982Y-42176033D01*
X187697982Y-42176033D02*
X187631315Y-42142700D01*
X187631315Y-42142700D02*
X187597982Y-42109366D01*
X185531316Y-49129366D02*
X185464649Y-49096033D01*
X185464649Y-49096033D02*
X185364649Y-49096033D01*
X185364649Y-49096033D02*
X185264649Y-49129366D01*
X185264649Y-49129366D02*
X185197983Y-49196033D01*
X185197983Y-49196033D02*
X185164649Y-49262700D01*
X185164649Y-49262700D02*
X185131316Y-49396033D01*
X185131316Y-49396033D02*
X185131316Y-49496033D01*
X185131316Y-49496033D02*
X185164649Y-49629366D01*
X185164649Y-49629366D02*
X185197983Y-49696033D01*
X185197983Y-49696033D02*
X185264649Y-49762700D01*
X185264649Y-49762700D02*
X185364649Y-49796033D01*
X185364649Y-49796033D02*
X185431316Y-49796033D01*
X185431316Y-49796033D02*
X185531316Y-49762700D01*
X185531316Y-49762700D02*
X185564649Y-49729366D01*
X185564649Y-49729366D02*
X185564649Y-49496033D01*
X185564649Y-49496033D02*
X185431316Y-49496033D01*
X185864649Y-49796033D02*
X185864649Y-49096033D01*
X185864649Y-49096033D02*
X186131316Y-49096033D01*
X186131316Y-49096033D02*
X186197983Y-49129366D01*
X186197983Y-49129366D02*
X186231316Y-49162700D01*
X186231316Y-49162700D02*
X186264649Y-49229366D01*
X186264649Y-49229366D02*
X186264649Y-49329366D01*
X186264649Y-49329366D02*
X186231316Y-49396033D01*
X186231316Y-49396033D02*
X186197983Y-49429366D01*
X186197983Y-49429366D02*
X186131316Y-49462700D01*
X186131316Y-49462700D02*
X185864649Y-49462700D01*
X186564649Y-49796033D02*
X186564649Y-49096033D01*
X187031316Y-49096033D02*
X187164649Y-49096033D01*
X187164649Y-49096033D02*
X187231316Y-49129366D01*
X187231316Y-49129366D02*
X187297982Y-49196033D01*
X187297982Y-49196033D02*
X187331316Y-49329366D01*
X187331316Y-49329366D02*
X187331316Y-49562700D01*
X187331316Y-49562700D02*
X187297982Y-49696033D01*
X187297982Y-49696033D02*
X187231316Y-49762700D01*
X187231316Y-49762700D02*
X187164649Y-49796033D01*
X187164649Y-49796033D02*
X187031316Y-49796033D01*
X187031316Y-49796033D02*
X186964649Y-49762700D01*
X186964649Y-49762700D02*
X186897982Y-49696033D01*
X186897982Y-49696033D02*
X186864649Y-49562700D01*
X186864649Y-49562700D02*
X186864649Y-49329366D01*
X186864649Y-49329366D02*
X186897982Y-49196033D01*
X186897982Y-49196033D02*
X186964649Y-49129366D01*
X186964649Y-49129366D02*
X187031316Y-49096033D01*
X187931315Y-49329366D02*
X187931315Y-49796033D01*
X187764649Y-49062700D02*
X187597982Y-49562700D01*
X187597982Y-49562700D02*
X188031315Y-49562700D01*
X166002017Y-36429366D02*
X165935350Y-36396033D01*
X165935350Y-36396033D02*
X165835350Y-36396033D01*
X165835350Y-36396033D02*
X165735350Y-36429366D01*
X165735350Y-36429366D02*
X165668684Y-36496033D01*
X165668684Y-36496033D02*
X165635350Y-36562700D01*
X165635350Y-36562700D02*
X165602017Y-36696033D01*
X165602017Y-36696033D02*
X165602017Y-36796033D01*
X165602017Y-36796033D02*
X165635350Y-36929366D01*
X165635350Y-36929366D02*
X165668684Y-36996033D01*
X165668684Y-36996033D02*
X165735350Y-37062700D01*
X165735350Y-37062700D02*
X165835350Y-37096033D01*
X165835350Y-37096033D02*
X165902017Y-37096033D01*
X165902017Y-37096033D02*
X166002017Y-37062700D01*
X166002017Y-37062700D02*
X166035350Y-37029366D01*
X166035350Y-37029366D02*
X166035350Y-36796033D01*
X166035350Y-36796033D02*
X165902017Y-36796033D01*
X166335350Y-37096033D02*
X166335350Y-36396033D01*
X166335350Y-36396033D02*
X166602017Y-36396033D01*
X166602017Y-36396033D02*
X166668684Y-36429366D01*
X166668684Y-36429366D02*
X166702017Y-36462700D01*
X166702017Y-36462700D02*
X166735350Y-36529366D01*
X166735350Y-36529366D02*
X166735350Y-36629366D01*
X166735350Y-36629366D02*
X166702017Y-36696033D01*
X166702017Y-36696033D02*
X166668684Y-36729366D01*
X166668684Y-36729366D02*
X166602017Y-36762700D01*
X166602017Y-36762700D02*
X166335350Y-36762700D01*
X167035350Y-37096033D02*
X167035350Y-36396033D01*
X167502017Y-36396033D02*
X167635350Y-36396033D01*
X167635350Y-36396033D02*
X167702017Y-36429366D01*
X167702017Y-36429366D02*
X167768683Y-36496033D01*
X167768683Y-36496033D02*
X167802017Y-36629366D01*
X167802017Y-36629366D02*
X167802017Y-36862700D01*
X167802017Y-36862700D02*
X167768683Y-36996033D01*
X167768683Y-36996033D02*
X167702017Y-37062700D01*
X167702017Y-37062700D02*
X167635350Y-37096033D01*
X167635350Y-37096033D02*
X167502017Y-37096033D01*
X167502017Y-37096033D02*
X167435350Y-37062700D01*
X167435350Y-37062700D02*
X167368683Y-36996033D01*
X167368683Y-36996033D02*
X167335350Y-36862700D01*
X167335350Y-36862700D02*
X167335350Y-36629366D01*
X167335350Y-36629366D02*
X167368683Y-36496033D01*
X167368683Y-36496033D02*
X167435350Y-36429366D01*
X167435350Y-36429366D02*
X167502017Y-36396033D01*
X168035350Y-36396033D02*
X168468683Y-36396033D01*
X168468683Y-36396033D02*
X168235350Y-36662700D01*
X168235350Y-36662700D02*
X168335350Y-36662700D01*
X168335350Y-36662700D02*
X168402016Y-36696033D01*
X168402016Y-36696033D02*
X168435350Y-36729366D01*
X168435350Y-36729366D02*
X168468683Y-36796033D01*
X168468683Y-36796033D02*
X168468683Y-36962700D01*
X168468683Y-36962700D02*
X168435350Y-37029366D01*
X168435350Y-37029366D02*
X168402016Y-37062700D01*
X168402016Y-37062700D02*
X168335350Y-37096033D01*
X168335350Y-37096033D02*
X168135350Y-37096033D01*
X168135350Y-37096033D02*
X168068683Y-37062700D01*
X168068683Y-37062700D02*
X168035350Y-37029366D01*
X168702017Y-36396033D02*
X169135350Y-36396033D01*
X169135350Y-36396033D02*
X168902017Y-36662700D01*
X168902017Y-36662700D02*
X169002017Y-36662700D01*
X169002017Y-36662700D02*
X169068683Y-36696033D01*
X169068683Y-36696033D02*
X169102017Y-36729366D01*
X169102017Y-36729366D02*
X169135350Y-36796033D01*
X169135350Y-36796033D02*
X169135350Y-36962700D01*
X169135350Y-36962700D02*
X169102017Y-37029366D01*
X169102017Y-37029366D02*
X169068683Y-37062700D01*
X169068683Y-37062700D02*
X169002017Y-37096033D01*
X169002017Y-37096033D02*
X168802017Y-37096033D01*
X168802017Y-37096033D02*
X168735350Y-37062700D01*
X168735350Y-37062700D02*
X168702017Y-37029366D01*
X166002017Y-28809366D02*
X165935350Y-28776033D01*
X165935350Y-28776033D02*
X165835350Y-28776033D01*
X165835350Y-28776033D02*
X165735350Y-28809366D01*
X165735350Y-28809366D02*
X165668684Y-28876033D01*
X165668684Y-28876033D02*
X165635350Y-28942700D01*
X165635350Y-28942700D02*
X165602017Y-29076033D01*
X165602017Y-29076033D02*
X165602017Y-29176033D01*
X165602017Y-29176033D02*
X165635350Y-29309366D01*
X165635350Y-29309366D02*
X165668684Y-29376033D01*
X165668684Y-29376033D02*
X165735350Y-29442700D01*
X165735350Y-29442700D02*
X165835350Y-29476033D01*
X165835350Y-29476033D02*
X165902017Y-29476033D01*
X165902017Y-29476033D02*
X166002017Y-29442700D01*
X166002017Y-29442700D02*
X166035350Y-29409366D01*
X166035350Y-29409366D02*
X166035350Y-29176033D01*
X166035350Y-29176033D02*
X165902017Y-29176033D01*
X166335350Y-29476033D02*
X166335350Y-28776033D01*
X166335350Y-28776033D02*
X166602017Y-28776033D01*
X166602017Y-28776033D02*
X166668684Y-28809366D01*
X166668684Y-28809366D02*
X166702017Y-28842700D01*
X166702017Y-28842700D02*
X166735350Y-28909366D01*
X166735350Y-28909366D02*
X166735350Y-29009366D01*
X166735350Y-29009366D02*
X166702017Y-29076033D01*
X166702017Y-29076033D02*
X166668684Y-29109366D01*
X166668684Y-29109366D02*
X166602017Y-29142700D01*
X166602017Y-29142700D02*
X166335350Y-29142700D01*
X167035350Y-29476033D02*
X167035350Y-28776033D01*
X167502017Y-28776033D02*
X167635350Y-28776033D01*
X167635350Y-28776033D02*
X167702017Y-28809366D01*
X167702017Y-28809366D02*
X167768683Y-28876033D01*
X167768683Y-28876033D02*
X167802017Y-29009366D01*
X167802017Y-29009366D02*
X167802017Y-29242700D01*
X167802017Y-29242700D02*
X167768683Y-29376033D01*
X167768683Y-29376033D02*
X167702017Y-29442700D01*
X167702017Y-29442700D02*
X167635350Y-29476033D01*
X167635350Y-29476033D02*
X167502017Y-29476033D01*
X167502017Y-29476033D02*
X167435350Y-29442700D01*
X167435350Y-29442700D02*
X167368683Y-29376033D01*
X167368683Y-29376033D02*
X167335350Y-29242700D01*
X167335350Y-29242700D02*
X167335350Y-29009366D01*
X167335350Y-29009366D02*
X167368683Y-28876033D01*
X167368683Y-28876033D02*
X167435350Y-28809366D01*
X167435350Y-28809366D02*
X167502017Y-28776033D01*
X168035350Y-28776033D02*
X168468683Y-28776033D01*
X168468683Y-28776033D02*
X168235350Y-29042700D01*
X168235350Y-29042700D02*
X168335350Y-29042700D01*
X168335350Y-29042700D02*
X168402016Y-29076033D01*
X168402016Y-29076033D02*
X168435350Y-29109366D01*
X168435350Y-29109366D02*
X168468683Y-29176033D01*
X168468683Y-29176033D02*
X168468683Y-29342700D01*
X168468683Y-29342700D02*
X168435350Y-29409366D01*
X168435350Y-29409366D02*
X168402016Y-29442700D01*
X168402016Y-29442700D02*
X168335350Y-29476033D01*
X168335350Y-29476033D02*
X168135350Y-29476033D01*
X168135350Y-29476033D02*
X168068683Y-29442700D01*
X168068683Y-29442700D02*
X168035350Y-29409366D01*
X169068683Y-29009366D02*
X169068683Y-29476033D01*
X168902017Y-28742700D02*
X168735350Y-29242700D01*
X168735350Y-29242700D02*
X169168683Y-29242700D01*
X166179289Y-64426099D02*
X165703099Y-64426099D01*
X165703099Y-64426099D02*
X165655480Y-64902289D01*
X165655480Y-64902289D02*
X165703099Y-64854670D01*
X165703099Y-64854670D02*
X165798337Y-64807051D01*
X165798337Y-64807051D02*
X166036432Y-64807051D01*
X166036432Y-64807051D02*
X166131670Y-64854670D01*
X166131670Y-64854670D02*
X166179289Y-64902289D01*
X166179289Y-64902289D02*
X166226908Y-64997527D01*
X166226908Y-64997527D02*
X166226908Y-65235622D01*
X166226908Y-65235622D02*
X166179289Y-65330860D01*
X166179289Y-65330860D02*
X166131670Y-65378480D01*
X166131670Y-65378480D02*
X166036432Y-65426099D01*
X166036432Y-65426099D02*
X165798337Y-65426099D01*
X165798337Y-65426099D02*
X165703099Y-65378480D01*
X165703099Y-65378480D02*
X165655480Y-65330860D01*
X166512623Y-64426099D02*
X166845956Y-65426099D01*
X166845956Y-65426099D02*
X167179289Y-64426099D01*
X184864649Y-46589366D02*
X184797982Y-46556033D01*
X184797982Y-46556033D02*
X184697982Y-46556033D01*
X184697982Y-46556033D02*
X184597982Y-46589366D01*
X184597982Y-46589366D02*
X184531316Y-46656033D01*
X184531316Y-46656033D02*
X184497982Y-46722700D01*
X184497982Y-46722700D02*
X184464649Y-46856033D01*
X184464649Y-46856033D02*
X184464649Y-46956033D01*
X184464649Y-46956033D02*
X184497982Y-47089366D01*
X184497982Y-47089366D02*
X184531316Y-47156033D01*
X184531316Y-47156033D02*
X184597982Y-47222700D01*
X184597982Y-47222700D02*
X184697982Y-47256033D01*
X184697982Y-47256033D02*
X184764649Y-47256033D01*
X184764649Y-47256033D02*
X184864649Y-47222700D01*
X184864649Y-47222700D02*
X184897982Y-47189366D01*
X184897982Y-47189366D02*
X184897982Y-46956033D01*
X184897982Y-46956033D02*
X184764649Y-46956033D01*
X185197982Y-47256033D02*
X185197982Y-46556033D01*
X185197982Y-46556033D02*
X185464649Y-46556033D01*
X185464649Y-46556033D02*
X185531316Y-46589366D01*
X185531316Y-46589366D02*
X185564649Y-46622700D01*
X185564649Y-46622700D02*
X185597982Y-46689366D01*
X185597982Y-46689366D02*
X185597982Y-46789366D01*
X185597982Y-46789366D02*
X185564649Y-46856033D01*
X185564649Y-46856033D02*
X185531316Y-46889366D01*
X185531316Y-46889366D02*
X185464649Y-46922700D01*
X185464649Y-46922700D02*
X185197982Y-46922700D01*
X185897982Y-47256033D02*
X185897982Y-46556033D01*
X186364649Y-46556033D02*
X186497982Y-46556033D01*
X186497982Y-46556033D02*
X186564649Y-46589366D01*
X186564649Y-46589366D02*
X186631315Y-46656033D01*
X186631315Y-46656033D02*
X186664649Y-46789366D01*
X186664649Y-46789366D02*
X186664649Y-47022700D01*
X186664649Y-47022700D02*
X186631315Y-47156033D01*
X186631315Y-47156033D02*
X186564649Y-47222700D01*
X186564649Y-47222700D02*
X186497982Y-47256033D01*
X186497982Y-47256033D02*
X186364649Y-47256033D01*
X186364649Y-47256033D02*
X186297982Y-47222700D01*
X186297982Y-47222700D02*
X186231315Y-47156033D01*
X186231315Y-47156033D02*
X186197982Y-47022700D01*
X186197982Y-47022700D02*
X186197982Y-46789366D01*
X186197982Y-46789366D02*
X186231315Y-46656033D01*
X186231315Y-46656033D02*
X186297982Y-46589366D01*
X186297982Y-46589366D02*
X186364649Y-46556033D01*
X187331315Y-47256033D02*
X186931315Y-47256033D01*
X187131315Y-47256033D02*
X187131315Y-46556033D01*
X187131315Y-46556033D02*
X187064648Y-46656033D01*
X187064648Y-46656033D02*
X186997982Y-46722700D01*
X186997982Y-46722700D02*
X186931315Y-46756033D01*
X187931315Y-46556033D02*
X187797982Y-46556033D01*
X187797982Y-46556033D02*
X187731315Y-46589366D01*
X187731315Y-46589366D02*
X187697982Y-46622700D01*
X187697982Y-46622700D02*
X187631315Y-46722700D01*
X187631315Y-46722700D02*
X187597982Y-46856033D01*
X187597982Y-46856033D02*
X187597982Y-47122700D01*
X187597982Y-47122700D02*
X187631315Y-47189366D01*
X187631315Y-47189366D02*
X187664649Y-47222700D01*
X187664649Y-47222700D02*
X187731315Y-47256033D01*
X187731315Y-47256033D02*
X187864649Y-47256033D01*
X187864649Y-47256033D02*
X187931315Y-47222700D01*
X187931315Y-47222700D02*
X187964649Y-47189366D01*
X187964649Y-47189366D02*
X187997982Y-47122700D01*
X187997982Y-47122700D02*
X187997982Y-46956033D01*
X187997982Y-46956033D02*
X187964649Y-46889366D01*
X187964649Y-46889366D02*
X187931315Y-46856033D01*
X187931315Y-46856033D02*
X187864649Y-46822700D01*
X187864649Y-46822700D02*
X187731315Y-46822700D01*
X187731315Y-46822700D02*
X187664649Y-46856033D01*
X187664649Y-46856033D02*
X187631315Y-46889366D01*
X187631315Y-46889366D02*
X187597982Y-46956033D01*
X166002017Y-38969366D02*
X165935350Y-38936033D01*
X165935350Y-38936033D02*
X165835350Y-38936033D01*
X165835350Y-38936033D02*
X165735350Y-38969366D01*
X165735350Y-38969366D02*
X165668684Y-39036033D01*
X165668684Y-39036033D02*
X165635350Y-39102700D01*
X165635350Y-39102700D02*
X165602017Y-39236033D01*
X165602017Y-39236033D02*
X165602017Y-39336033D01*
X165602017Y-39336033D02*
X165635350Y-39469366D01*
X165635350Y-39469366D02*
X165668684Y-39536033D01*
X165668684Y-39536033D02*
X165735350Y-39602700D01*
X165735350Y-39602700D02*
X165835350Y-39636033D01*
X165835350Y-39636033D02*
X165902017Y-39636033D01*
X165902017Y-39636033D02*
X166002017Y-39602700D01*
X166002017Y-39602700D02*
X166035350Y-39569366D01*
X166035350Y-39569366D02*
X166035350Y-39336033D01*
X166035350Y-39336033D02*
X165902017Y-39336033D01*
X166335350Y-39636033D02*
X166335350Y-38936033D01*
X166335350Y-38936033D02*
X166602017Y-38936033D01*
X166602017Y-38936033D02*
X166668684Y-38969366D01*
X166668684Y-38969366D02*
X166702017Y-39002700D01*
X166702017Y-39002700D02*
X166735350Y-39069366D01*
X166735350Y-39069366D02*
X166735350Y-39169366D01*
X166735350Y-39169366D02*
X166702017Y-39236033D01*
X166702017Y-39236033D02*
X166668684Y-39269366D01*
X166668684Y-39269366D02*
X166602017Y-39302700D01*
X166602017Y-39302700D02*
X166335350Y-39302700D01*
X167035350Y-39636033D02*
X167035350Y-38936033D01*
X167502017Y-38936033D02*
X167635350Y-38936033D01*
X167635350Y-38936033D02*
X167702017Y-38969366D01*
X167702017Y-38969366D02*
X167768683Y-39036033D01*
X167768683Y-39036033D02*
X167802017Y-39169366D01*
X167802017Y-39169366D02*
X167802017Y-39402700D01*
X167802017Y-39402700D02*
X167768683Y-39536033D01*
X167768683Y-39536033D02*
X167702017Y-39602700D01*
X167702017Y-39602700D02*
X167635350Y-39636033D01*
X167635350Y-39636033D02*
X167502017Y-39636033D01*
X167502017Y-39636033D02*
X167435350Y-39602700D01*
X167435350Y-39602700D02*
X167368683Y-39536033D01*
X167368683Y-39536033D02*
X167335350Y-39402700D01*
X167335350Y-39402700D02*
X167335350Y-39169366D01*
X167335350Y-39169366D02*
X167368683Y-39036033D01*
X167368683Y-39036033D02*
X167435350Y-38969366D01*
X167435350Y-38969366D02*
X167502017Y-38936033D01*
X168068683Y-39002700D02*
X168102016Y-38969366D01*
X168102016Y-38969366D02*
X168168683Y-38936033D01*
X168168683Y-38936033D02*
X168335350Y-38936033D01*
X168335350Y-38936033D02*
X168402016Y-38969366D01*
X168402016Y-38969366D02*
X168435350Y-39002700D01*
X168435350Y-39002700D02*
X168468683Y-39069366D01*
X168468683Y-39069366D02*
X168468683Y-39136033D01*
X168468683Y-39136033D02*
X168435350Y-39236033D01*
X168435350Y-39236033D02*
X168035350Y-39636033D01*
X168035350Y-39636033D02*
X168468683Y-39636033D01*
X169102017Y-38936033D02*
X168768683Y-38936033D01*
X168768683Y-38936033D02*
X168735350Y-39269366D01*
X168735350Y-39269366D02*
X168768683Y-39236033D01*
X168768683Y-39236033D02*
X168835350Y-39202700D01*
X168835350Y-39202700D02*
X169002017Y-39202700D01*
X169002017Y-39202700D02*
X169068683Y-39236033D01*
X169068683Y-39236033D02*
X169102017Y-39269366D01*
X169102017Y-39269366D02*
X169135350Y-39336033D01*
X169135350Y-39336033D02*
X169135350Y-39502700D01*
X169135350Y-39502700D02*
X169102017Y-39569366D01*
X169102017Y-39569366D02*
X169068683Y-39602700D01*
X169068683Y-39602700D02*
X169002017Y-39636033D01*
X169002017Y-39636033D02*
X168835350Y-39636033D01*
X168835350Y-39636033D02*
X168768683Y-39602700D01*
X168768683Y-39602700D02*
X168735350Y-39569366D01*
X184864649Y-44049366D02*
X184797982Y-44016033D01*
X184797982Y-44016033D02*
X184697982Y-44016033D01*
X184697982Y-44016033D02*
X184597982Y-44049366D01*
X184597982Y-44049366D02*
X184531316Y-44116033D01*
X184531316Y-44116033D02*
X184497982Y-44182700D01*
X184497982Y-44182700D02*
X184464649Y-44316033D01*
X184464649Y-44316033D02*
X184464649Y-44416033D01*
X184464649Y-44416033D02*
X184497982Y-44549366D01*
X184497982Y-44549366D02*
X184531316Y-44616033D01*
X184531316Y-44616033D02*
X184597982Y-44682700D01*
X184597982Y-44682700D02*
X184697982Y-44716033D01*
X184697982Y-44716033D02*
X184764649Y-44716033D01*
X184764649Y-44716033D02*
X184864649Y-44682700D01*
X184864649Y-44682700D02*
X184897982Y-44649366D01*
X184897982Y-44649366D02*
X184897982Y-44416033D01*
X184897982Y-44416033D02*
X184764649Y-44416033D01*
X185197982Y-44716033D02*
X185197982Y-44016033D01*
X185197982Y-44016033D02*
X185464649Y-44016033D01*
X185464649Y-44016033D02*
X185531316Y-44049366D01*
X185531316Y-44049366D02*
X185564649Y-44082700D01*
X185564649Y-44082700D02*
X185597982Y-44149366D01*
X185597982Y-44149366D02*
X185597982Y-44249366D01*
X185597982Y-44249366D02*
X185564649Y-44316033D01*
X185564649Y-44316033D02*
X185531316Y-44349366D01*
X185531316Y-44349366D02*
X185464649Y-44382700D01*
X185464649Y-44382700D02*
X185197982Y-44382700D01*
X185897982Y-44716033D02*
X185897982Y-44016033D01*
X186364649Y-44016033D02*
X186497982Y-44016033D01*
X186497982Y-44016033D02*
X186564649Y-44049366D01*
X186564649Y-44049366D02*
X186631315Y-44116033D01*
X186631315Y-44116033D02*
X186664649Y-44249366D01*
X186664649Y-44249366D02*
X186664649Y-44482700D01*
X186664649Y-44482700D02*
X186631315Y-44616033D01*
X186631315Y-44616033D02*
X186564649Y-44682700D01*
X186564649Y-44682700D02*
X186497982Y-44716033D01*
X186497982Y-44716033D02*
X186364649Y-44716033D01*
X186364649Y-44716033D02*
X186297982Y-44682700D01*
X186297982Y-44682700D02*
X186231315Y-44616033D01*
X186231315Y-44616033D02*
X186197982Y-44482700D01*
X186197982Y-44482700D02*
X186197982Y-44249366D01*
X186197982Y-44249366D02*
X186231315Y-44116033D01*
X186231315Y-44116033D02*
X186297982Y-44049366D01*
X186297982Y-44049366D02*
X186364649Y-44016033D01*
X187331315Y-44716033D02*
X186931315Y-44716033D01*
X187131315Y-44716033D02*
X187131315Y-44016033D01*
X187131315Y-44016033D02*
X187064648Y-44116033D01*
X187064648Y-44116033D02*
X186997982Y-44182700D01*
X186997982Y-44182700D02*
X186931315Y-44216033D01*
X187564649Y-44016033D02*
X188031315Y-44016033D01*
X188031315Y-44016033D02*
X187731315Y-44716033D01*
X165535350Y-23696033D02*
X165768684Y-24396033D01*
X165768684Y-24396033D02*
X166002017Y-23696033D01*
X166235350Y-24396033D02*
X166235350Y-23696033D01*
X166235350Y-23696033D02*
X166502017Y-23696033D01*
X166502017Y-23696033D02*
X166568684Y-23729366D01*
X166568684Y-23729366D02*
X166602017Y-23762700D01*
X166602017Y-23762700D02*
X166635350Y-23829366D01*
X166635350Y-23829366D02*
X166635350Y-23929366D01*
X166635350Y-23929366D02*
X166602017Y-23996033D01*
X166602017Y-23996033D02*
X166568684Y-24029366D01*
X166568684Y-24029366D02*
X166502017Y-24062700D01*
X166502017Y-24062700D02*
X166235350Y-24062700D01*
X167435350Y-23662700D02*
X166835350Y-24562700D01*
X168035350Y-23729366D02*
X167968683Y-23696033D01*
X167968683Y-23696033D02*
X167868683Y-23696033D01*
X167868683Y-23696033D02*
X167768683Y-23729366D01*
X167768683Y-23729366D02*
X167702017Y-23796033D01*
X167702017Y-23796033D02*
X167668683Y-23862700D01*
X167668683Y-23862700D02*
X167635350Y-23996033D01*
X167635350Y-23996033D02*
X167635350Y-24096033D01*
X167635350Y-24096033D02*
X167668683Y-24229366D01*
X167668683Y-24229366D02*
X167702017Y-24296033D01*
X167702017Y-24296033D02*
X167768683Y-24362700D01*
X167768683Y-24362700D02*
X167868683Y-24396033D01*
X167868683Y-24396033D02*
X167935350Y-24396033D01*
X167935350Y-24396033D02*
X168035350Y-24362700D01*
X168035350Y-24362700D02*
X168068683Y-24329366D01*
X168068683Y-24329366D02*
X168068683Y-24096033D01*
X168068683Y-24096033D02*
X167935350Y-24096033D01*
X168368683Y-24396033D02*
X168368683Y-23696033D01*
X168368683Y-23696033D02*
X168635350Y-23696033D01*
X168635350Y-23696033D02*
X168702017Y-23729366D01*
X168702017Y-23729366D02*
X168735350Y-23762700D01*
X168735350Y-23762700D02*
X168768683Y-23829366D01*
X168768683Y-23829366D02*
X168768683Y-23929366D01*
X168768683Y-23929366D02*
X168735350Y-23996033D01*
X168735350Y-23996033D02*
X168702017Y-24029366D01*
X168702017Y-24029366D02*
X168635350Y-24062700D01*
X168635350Y-24062700D02*
X168368683Y-24062700D01*
X169068683Y-24396033D02*
X169068683Y-23696033D01*
X169535350Y-23696033D02*
X169668683Y-23696033D01*
X169668683Y-23696033D02*
X169735350Y-23729366D01*
X169735350Y-23729366D02*
X169802016Y-23796033D01*
X169802016Y-23796033D02*
X169835350Y-23929366D01*
X169835350Y-23929366D02*
X169835350Y-24162700D01*
X169835350Y-24162700D02*
X169802016Y-24296033D01*
X169802016Y-24296033D02*
X169735350Y-24362700D01*
X169735350Y-24362700D02*
X169668683Y-24396033D01*
X169668683Y-24396033D02*
X169535350Y-24396033D01*
X169535350Y-24396033D02*
X169468683Y-24362700D01*
X169468683Y-24362700D02*
X169402016Y-24296033D01*
X169402016Y-24296033D02*
X169368683Y-24162700D01*
X169368683Y-24162700D02*
X169368683Y-23929366D01*
X169368683Y-23929366D02*
X169402016Y-23796033D01*
X169402016Y-23796033D02*
X169468683Y-23729366D01*
X169468683Y-23729366D02*
X169535350Y-23696033D01*
X170068683Y-23696033D02*
X170502016Y-23696033D01*
X170502016Y-23696033D02*
X170268683Y-23962700D01*
X170268683Y-23962700D02*
X170368683Y-23962700D01*
X170368683Y-23962700D02*
X170435349Y-23996033D01*
X170435349Y-23996033D02*
X170468683Y-24029366D01*
X170468683Y-24029366D02*
X170502016Y-24096033D01*
X170502016Y-24096033D02*
X170502016Y-24262700D01*
X170502016Y-24262700D02*
X170468683Y-24329366D01*
X170468683Y-24329366D02*
X170435349Y-24362700D01*
X170435349Y-24362700D02*
X170368683Y-24396033D01*
X170368683Y-24396033D02*
X170168683Y-24396033D01*
X170168683Y-24396033D02*
X170102016Y-24362700D01*
X170102016Y-24362700D02*
X170068683Y-24329366D01*
X171102016Y-23696033D02*
X170968683Y-23696033D01*
X170968683Y-23696033D02*
X170902016Y-23729366D01*
X170902016Y-23729366D02*
X170868683Y-23762700D01*
X170868683Y-23762700D02*
X170802016Y-23862700D01*
X170802016Y-23862700D02*
X170768683Y-23996033D01*
X170768683Y-23996033D02*
X170768683Y-24262700D01*
X170768683Y-24262700D02*
X170802016Y-24329366D01*
X170802016Y-24329366D02*
X170835350Y-24362700D01*
X170835350Y-24362700D02*
X170902016Y-24396033D01*
X170902016Y-24396033D02*
X171035350Y-24396033D01*
X171035350Y-24396033D02*
X171102016Y-24362700D01*
X171102016Y-24362700D02*
X171135350Y-24329366D01*
X171135350Y-24329366D02*
X171168683Y-24262700D01*
X171168683Y-24262700D02*
X171168683Y-24096033D01*
X171168683Y-24096033D02*
X171135350Y-24029366D01*
X171135350Y-24029366D02*
X171102016Y-23996033D01*
X171102016Y-23996033D02*
X171035350Y-23962700D01*
X171035350Y-23962700D02*
X170902016Y-23962700D01*
X170902016Y-23962700D02*
X170835350Y-23996033D01*
X170835350Y-23996033D02*
X170802016Y-24029366D01*
X170802016Y-24029366D02*
X170768683Y-24096033D01*
X165601921Y-21468289D02*
X165935254Y-21468289D01*
X166078111Y-21992099D02*
X165601921Y-21992099D01*
X165601921Y-21992099D02*
X165601921Y-20992099D01*
X165601921Y-20992099D02*
X166078111Y-20992099D01*
X166506683Y-21992099D02*
X166506683Y-20992099D01*
X166506683Y-20992099D02*
X167078111Y-21992099D01*
X167078111Y-21992099D02*
X167078111Y-20992099D01*
X168268587Y-20944480D02*
X167411445Y-22230194D01*
X169173349Y-21992099D02*
X168840016Y-21515908D01*
X168601921Y-21992099D02*
X168601921Y-20992099D01*
X168601921Y-20992099D02*
X168982873Y-20992099D01*
X168982873Y-20992099D02*
X169078111Y-21039718D01*
X169078111Y-21039718D02*
X169125730Y-21087337D01*
X169125730Y-21087337D02*
X169173349Y-21182575D01*
X169173349Y-21182575D02*
X169173349Y-21325432D01*
X169173349Y-21325432D02*
X169125730Y-21420670D01*
X169125730Y-21420670D02*
X169078111Y-21468289D01*
X169078111Y-21468289D02*
X168982873Y-21515908D01*
X168982873Y-21515908D02*
X168601921Y-21515908D01*
X169601921Y-21468289D02*
X169935254Y-21468289D01*
X170078111Y-21992099D02*
X169601921Y-21992099D01*
X169601921Y-21992099D02*
X169601921Y-20992099D01*
X169601921Y-20992099D02*
X170078111Y-20992099D01*
X170459064Y-21944480D02*
X170601921Y-21992099D01*
X170601921Y-21992099D02*
X170840016Y-21992099D01*
X170840016Y-21992099D02*
X170935254Y-21944480D01*
X170935254Y-21944480D02*
X170982873Y-21896860D01*
X170982873Y-21896860D02*
X171030492Y-21801622D01*
X171030492Y-21801622D02*
X171030492Y-21706384D01*
X171030492Y-21706384D02*
X170982873Y-21611146D01*
X170982873Y-21611146D02*
X170935254Y-21563527D01*
X170935254Y-21563527D02*
X170840016Y-21515908D01*
X170840016Y-21515908D02*
X170649540Y-21468289D01*
X170649540Y-21468289D02*
X170554302Y-21420670D01*
X170554302Y-21420670D02*
X170506683Y-21373051D01*
X170506683Y-21373051D02*
X170459064Y-21277813D01*
X170459064Y-21277813D02*
X170459064Y-21182575D01*
X170459064Y-21182575D02*
X170506683Y-21087337D01*
X170506683Y-21087337D02*
X170554302Y-21039718D01*
X170554302Y-21039718D02*
X170649540Y-20992099D01*
X170649540Y-20992099D02*
X170887635Y-20992099D01*
X170887635Y-20992099D02*
X171030492Y-21039718D01*
X171459064Y-21468289D02*
X171792397Y-21468289D01*
X171935254Y-21992099D02*
X171459064Y-21992099D01*
X171459064Y-21992099D02*
X171459064Y-20992099D01*
X171459064Y-20992099D02*
X171935254Y-20992099D01*
X172220969Y-20992099D02*
X172792397Y-20992099D01*
X172506683Y-21992099D02*
X172506683Y-20992099D01*
X166002017Y-31349366D02*
X165935350Y-31316033D01*
X165935350Y-31316033D02*
X165835350Y-31316033D01*
X165835350Y-31316033D02*
X165735350Y-31349366D01*
X165735350Y-31349366D02*
X165668684Y-31416033D01*
X165668684Y-31416033D02*
X165635350Y-31482700D01*
X165635350Y-31482700D02*
X165602017Y-31616033D01*
X165602017Y-31616033D02*
X165602017Y-31716033D01*
X165602017Y-31716033D02*
X165635350Y-31849366D01*
X165635350Y-31849366D02*
X165668684Y-31916033D01*
X165668684Y-31916033D02*
X165735350Y-31982700D01*
X165735350Y-31982700D02*
X165835350Y-32016033D01*
X165835350Y-32016033D02*
X165902017Y-32016033D01*
X165902017Y-32016033D02*
X166002017Y-31982700D01*
X166002017Y-31982700D02*
X166035350Y-31949366D01*
X166035350Y-31949366D02*
X166035350Y-31716033D01*
X166035350Y-31716033D02*
X165902017Y-31716033D01*
X166335350Y-32016033D02*
X166335350Y-31316033D01*
X166335350Y-31316033D02*
X166602017Y-31316033D01*
X166602017Y-31316033D02*
X166668684Y-31349366D01*
X166668684Y-31349366D02*
X166702017Y-31382700D01*
X166702017Y-31382700D02*
X166735350Y-31449366D01*
X166735350Y-31449366D02*
X166735350Y-31549366D01*
X166735350Y-31549366D02*
X166702017Y-31616033D01*
X166702017Y-31616033D02*
X166668684Y-31649366D01*
X166668684Y-31649366D02*
X166602017Y-31682700D01*
X166602017Y-31682700D02*
X166335350Y-31682700D01*
X167035350Y-32016033D02*
X167035350Y-31316033D01*
X167502017Y-31316033D02*
X167635350Y-31316033D01*
X167635350Y-31316033D02*
X167702017Y-31349366D01*
X167702017Y-31349366D02*
X167768683Y-31416033D01*
X167768683Y-31416033D02*
X167802017Y-31549366D01*
X167802017Y-31549366D02*
X167802017Y-31782700D01*
X167802017Y-31782700D02*
X167768683Y-31916033D01*
X167768683Y-31916033D02*
X167702017Y-31982700D01*
X167702017Y-31982700D02*
X167635350Y-32016033D01*
X167635350Y-32016033D02*
X167502017Y-32016033D01*
X167502017Y-32016033D02*
X167435350Y-31982700D01*
X167435350Y-31982700D02*
X167368683Y-31916033D01*
X167368683Y-31916033D02*
X167335350Y-31782700D01*
X167335350Y-31782700D02*
X167335350Y-31549366D01*
X167335350Y-31549366D02*
X167368683Y-31416033D01*
X167368683Y-31416033D02*
X167435350Y-31349366D01*
X167435350Y-31349366D02*
X167502017Y-31316033D01*
X168035350Y-31316033D02*
X168468683Y-31316033D01*
X168468683Y-31316033D02*
X168235350Y-31582700D01*
X168235350Y-31582700D02*
X168335350Y-31582700D01*
X168335350Y-31582700D02*
X168402016Y-31616033D01*
X168402016Y-31616033D02*
X168435350Y-31649366D01*
X168435350Y-31649366D02*
X168468683Y-31716033D01*
X168468683Y-31716033D02*
X168468683Y-31882700D01*
X168468683Y-31882700D02*
X168435350Y-31949366D01*
X168435350Y-31949366D02*
X168402016Y-31982700D01*
X168402016Y-31982700D02*
X168335350Y-32016033D01*
X168335350Y-32016033D02*
X168135350Y-32016033D01*
X168135350Y-32016033D02*
X168068683Y-31982700D01*
X168068683Y-31982700D02*
X168035350Y-31949366D01*
X169102017Y-31316033D02*
X168768683Y-31316033D01*
X168768683Y-31316033D02*
X168735350Y-31649366D01*
X168735350Y-31649366D02*
X168768683Y-31616033D01*
X168768683Y-31616033D02*
X168835350Y-31582700D01*
X168835350Y-31582700D02*
X169002017Y-31582700D01*
X169002017Y-31582700D02*
X169068683Y-31616033D01*
X169068683Y-31616033D02*
X169102017Y-31649366D01*
X169102017Y-31649366D02*
X169135350Y-31716033D01*
X169135350Y-31716033D02*
X169135350Y-31882700D01*
X169135350Y-31882700D02*
X169102017Y-31949366D01*
X169102017Y-31949366D02*
X169068683Y-31982700D01*
X169068683Y-31982700D02*
X169002017Y-32016033D01*
X169002017Y-32016033D02*
X168835350Y-32016033D01*
X168835350Y-32016033D02*
X168768683Y-31982700D01*
X168768683Y-31982700D02*
X168735350Y-31949366D01*
X184864649Y-36429366D02*
X184797982Y-36396033D01*
X184797982Y-36396033D02*
X184697982Y-36396033D01*
X184697982Y-36396033D02*
X184597982Y-36429366D01*
X184597982Y-36429366D02*
X184531316Y-36496033D01*
X184531316Y-36496033D02*
X184497982Y-36562700D01*
X184497982Y-36562700D02*
X184464649Y-36696033D01*
X184464649Y-36696033D02*
X184464649Y-36796033D01*
X184464649Y-36796033D02*
X184497982Y-36929366D01*
X184497982Y-36929366D02*
X184531316Y-36996033D01*
X184531316Y-36996033D02*
X184597982Y-37062700D01*
X184597982Y-37062700D02*
X184697982Y-37096033D01*
X184697982Y-37096033D02*
X184764649Y-37096033D01*
X184764649Y-37096033D02*
X184864649Y-37062700D01*
X184864649Y-37062700D02*
X184897982Y-37029366D01*
X184897982Y-37029366D02*
X184897982Y-36796033D01*
X184897982Y-36796033D02*
X184764649Y-36796033D01*
X185197982Y-37096033D02*
X185197982Y-36396033D01*
X185197982Y-36396033D02*
X185464649Y-36396033D01*
X185464649Y-36396033D02*
X185531316Y-36429366D01*
X185531316Y-36429366D02*
X185564649Y-36462700D01*
X185564649Y-36462700D02*
X185597982Y-36529366D01*
X185597982Y-36529366D02*
X185597982Y-36629366D01*
X185597982Y-36629366D02*
X185564649Y-36696033D01*
X185564649Y-36696033D02*
X185531316Y-36729366D01*
X185531316Y-36729366D02*
X185464649Y-36762700D01*
X185464649Y-36762700D02*
X185197982Y-36762700D01*
X185897982Y-37096033D02*
X185897982Y-36396033D01*
X186364649Y-36396033D02*
X186497982Y-36396033D01*
X186497982Y-36396033D02*
X186564649Y-36429366D01*
X186564649Y-36429366D02*
X186631315Y-36496033D01*
X186631315Y-36496033D02*
X186664649Y-36629366D01*
X186664649Y-36629366D02*
X186664649Y-36862700D01*
X186664649Y-36862700D02*
X186631315Y-36996033D01*
X186631315Y-36996033D02*
X186564649Y-37062700D01*
X186564649Y-37062700D02*
X186497982Y-37096033D01*
X186497982Y-37096033D02*
X186364649Y-37096033D01*
X186364649Y-37096033D02*
X186297982Y-37062700D01*
X186297982Y-37062700D02*
X186231315Y-36996033D01*
X186231315Y-36996033D02*
X186197982Y-36862700D01*
X186197982Y-36862700D02*
X186197982Y-36629366D01*
X186197982Y-36629366D02*
X186231315Y-36496033D01*
X186231315Y-36496033D02*
X186297982Y-36429366D01*
X186297982Y-36429366D02*
X186364649Y-36396033D01*
X187331315Y-37096033D02*
X186931315Y-37096033D01*
X187131315Y-37096033D02*
X187131315Y-36396033D01*
X187131315Y-36396033D02*
X187064648Y-36496033D01*
X187064648Y-36496033D02*
X186997982Y-36562700D01*
X186997982Y-36562700D02*
X186931315Y-36596033D01*
X187664649Y-37096033D02*
X187797982Y-37096033D01*
X187797982Y-37096033D02*
X187864649Y-37062700D01*
X187864649Y-37062700D02*
X187897982Y-37029366D01*
X187897982Y-37029366D02*
X187964649Y-36929366D01*
X187964649Y-36929366D02*
X187997982Y-36796033D01*
X187997982Y-36796033D02*
X187997982Y-36529366D01*
X187997982Y-36529366D02*
X187964649Y-36462700D01*
X187964649Y-36462700D02*
X187931315Y-36429366D01*
X187931315Y-36429366D02*
X187864649Y-36396033D01*
X187864649Y-36396033D02*
X187731315Y-36396033D01*
X187731315Y-36396033D02*
X187664649Y-36429366D01*
X187664649Y-36429366D02*
X187631315Y-36462700D01*
X187631315Y-36462700D02*
X187597982Y-36529366D01*
X187597982Y-36529366D02*
X187597982Y-36696033D01*
X187597982Y-36696033D02*
X187631315Y-36762700D01*
X187631315Y-36762700D02*
X187664649Y-36796033D01*
X187664649Y-36796033D02*
X187731315Y-36829366D01*
X187731315Y-36829366D02*
X187864649Y-36829366D01*
X187864649Y-36829366D02*
X187931315Y-36796033D01*
X187931315Y-36796033D02*
X187964649Y-36762700D01*
X187964649Y-36762700D02*
X187997982Y-36696033D01*
X181364650Y-56749366D02*
X181297983Y-56716033D01*
X181297983Y-56716033D02*
X181197983Y-56716033D01*
X181197983Y-56716033D02*
X181097983Y-56749366D01*
X181097983Y-56749366D02*
X181031317Y-56816033D01*
X181031317Y-56816033D02*
X180997983Y-56882700D01*
X180997983Y-56882700D02*
X180964650Y-57016033D01*
X180964650Y-57016033D02*
X180964650Y-57116033D01*
X180964650Y-57116033D02*
X180997983Y-57249366D01*
X180997983Y-57249366D02*
X181031317Y-57316033D01*
X181031317Y-57316033D02*
X181097983Y-57382700D01*
X181097983Y-57382700D02*
X181197983Y-57416033D01*
X181197983Y-57416033D02*
X181264650Y-57416033D01*
X181264650Y-57416033D02*
X181364650Y-57382700D01*
X181364650Y-57382700D02*
X181397983Y-57349366D01*
X181397983Y-57349366D02*
X181397983Y-57116033D01*
X181397983Y-57116033D02*
X181264650Y-57116033D01*
X181697983Y-57416033D02*
X181697983Y-56716033D01*
X181697983Y-56716033D02*
X181964650Y-56716033D01*
X181964650Y-56716033D02*
X182031317Y-56749366D01*
X182031317Y-56749366D02*
X182064650Y-56782700D01*
X182064650Y-56782700D02*
X182097983Y-56849366D01*
X182097983Y-56849366D02*
X182097983Y-56949366D01*
X182097983Y-56949366D02*
X182064650Y-57016033D01*
X182064650Y-57016033D02*
X182031317Y-57049366D01*
X182031317Y-57049366D02*
X181964650Y-57082700D01*
X181964650Y-57082700D02*
X181697983Y-57082700D01*
X182397983Y-57416033D02*
X182397983Y-56716033D01*
X182864650Y-56716033D02*
X182997983Y-56716033D01*
X182997983Y-56716033D02*
X183064650Y-56749366D01*
X183064650Y-56749366D02*
X183131316Y-56816033D01*
X183131316Y-56816033D02*
X183164650Y-56949366D01*
X183164650Y-56949366D02*
X183164650Y-57182700D01*
X183164650Y-57182700D02*
X183131316Y-57316033D01*
X183131316Y-57316033D02*
X183064650Y-57382700D01*
X183064650Y-57382700D02*
X182997983Y-57416033D01*
X182997983Y-57416033D02*
X182864650Y-57416033D01*
X182864650Y-57416033D02*
X182797983Y-57382700D01*
X182797983Y-57382700D02*
X182731316Y-57316033D01*
X182731316Y-57316033D02*
X182697983Y-57182700D01*
X182697983Y-57182700D02*
X182697983Y-56949366D01*
X182697983Y-56949366D02*
X182731316Y-56816033D01*
X182731316Y-56816033D02*
X182797983Y-56749366D01*
X182797983Y-56749366D02*
X182864650Y-56716033D01*
X183831316Y-57416033D02*
X183431316Y-57416033D01*
X183631316Y-57416033D02*
X183631316Y-56716033D01*
X183631316Y-56716033D02*
X183564649Y-56816033D01*
X183564649Y-56816033D02*
X183497983Y-56882700D01*
X183497983Y-56882700D02*
X183431316Y-56916033D01*
X184464650Y-56716033D02*
X184131316Y-56716033D01*
X184131316Y-56716033D02*
X184097983Y-57049366D01*
X184097983Y-57049366D02*
X184131316Y-57016033D01*
X184131316Y-57016033D02*
X184197983Y-56982700D01*
X184197983Y-56982700D02*
X184364650Y-56982700D01*
X184364650Y-56982700D02*
X184431316Y-57016033D01*
X184431316Y-57016033D02*
X184464650Y-57049366D01*
X184464650Y-57049366D02*
X184497983Y-57116033D01*
X184497983Y-57116033D02*
X184497983Y-57282700D01*
X184497983Y-57282700D02*
X184464650Y-57349366D01*
X184464650Y-57349366D02*
X184431316Y-57382700D01*
X184431316Y-57382700D02*
X184364650Y-57416033D01*
X184364650Y-57416033D02*
X184197983Y-57416033D01*
X184197983Y-57416033D02*
X184131316Y-57382700D01*
X184131316Y-57382700D02*
X184097983Y-57349366D01*
X185297983Y-56682700D02*
X184697983Y-57582700D01*
X185531316Y-57416033D02*
X185531316Y-56716033D01*
X185531316Y-56716033D02*
X185764650Y-57216033D01*
X185764650Y-57216033D02*
X185997983Y-56716033D01*
X185997983Y-56716033D02*
X185997983Y-57416033D01*
X186231316Y-56716033D02*
X186631316Y-56716033D01*
X186431316Y-57416033D02*
X186431316Y-56716033D01*
X186864649Y-57416033D02*
X186864649Y-56716033D01*
X186864649Y-56716033D02*
X187031316Y-56716033D01*
X187031316Y-56716033D02*
X187131316Y-56749366D01*
X187131316Y-56749366D02*
X187197983Y-56816033D01*
X187197983Y-56816033D02*
X187231316Y-56882700D01*
X187231316Y-56882700D02*
X187264649Y-57016033D01*
X187264649Y-57016033D02*
X187264649Y-57116033D01*
X187264649Y-57116033D02*
X187231316Y-57249366D01*
X187231316Y-57249366D02*
X187197983Y-57316033D01*
X187197983Y-57316033D02*
X187131316Y-57382700D01*
X187131316Y-57382700D02*
X187031316Y-57416033D01*
X187031316Y-57416033D02*
X186864649Y-57416033D01*
X187697983Y-56716033D02*
X187831316Y-56716033D01*
X187831316Y-56716033D02*
X187897983Y-56749366D01*
X187897983Y-56749366D02*
X187964649Y-56816033D01*
X187964649Y-56816033D02*
X187997983Y-56949366D01*
X187997983Y-56949366D02*
X187997983Y-57182700D01*
X187997983Y-57182700D02*
X187964649Y-57316033D01*
X187964649Y-57316033D02*
X187897983Y-57382700D01*
X187897983Y-57382700D02*
X187831316Y-57416033D01*
X187831316Y-57416033D02*
X187697983Y-57416033D01*
X187697983Y-57416033D02*
X187631316Y-57382700D01*
X187631316Y-57382700D02*
X187564649Y-57316033D01*
X187564649Y-57316033D02*
X187531316Y-57182700D01*
X187531316Y-57182700D02*
X187531316Y-56949366D01*
X187531316Y-56949366D02*
X187564649Y-56816033D01*
X187564649Y-56816033D02*
X187631316Y-56749366D01*
X187631316Y-56749366D02*
X187697983Y-56716033D01*
X185845601Y-33742438D02*
X185750363Y-33694819D01*
X185750363Y-33694819D02*
X185607506Y-33694819D01*
X185607506Y-33694819D02*
X185464649Y-33742438D01*
X185464649Y-33742438D02*
X185369411Y-33837676D01*
X185369411Y-33837676D02*
X185321792Y-33932914D01*
X185321792Y-33932914D02*
X185274173Y-34123390D01*
X185274173Y-34123390D02*
X185274173Y-34266247D01*
X185274173Y-34266247D02*
X185321792Y-34456723D01*
X185321792Y-34456723D02*
X185369411Y-34551961D01*
X185369411Y-34551961D02*
X185464649Y-34647200D01*
X185464649Y-34647200D02*
X185607506Y-34694819D01*
X185607506Y-34694819D02*
X185702744Y-34694819D01*
X185702744Y-34694819D02*
X185845601Y-34647200D01*
X185845601Y-34647200D02*
X185893220Y-34599580D01*
X185893220Y-34599580D02*
X185893220Y-34266247D01*
X185893220Y-34266247D02*
X185702744Y-34266247D01*
X186321792Y-34694819D02*
X186321792Y-33694819D01*
X186321792Y-33694819D02*
X186893220Y-34694819D01*
X186893220Y-34694819D02*
X186893220Y-33694819D01*
X187369411Y-34694819D02*
X187369411Y-33694819D01*
X187369411Y-33694819D02*
X187607506Y-33694819D01*
X187607506Y-33694819D02*
X187750363Y-33742438D01*
X187750363Y-33742438D02*
X187845601Y-33837676D01*
X187845601Y-33837676D02*
X187893220Y-33932914D01*
X187893220Y-33932914D02*
X187940839Y-34123390D01*
X187940839Y-34123390D02*
X187940839Y-34266247D01*
X187940839Y-34266247D02*
X187893220Y-34456723D01*
X187893220Y-34456723D02*
X187845601Y-34551961D01*
X187845601Y-34551961D02*
X187750363Y-34647200D01*
X187750363Y-34647200D02*
X187607506Y-34694819D01*
X187607506Y-34694819D02*
X187369411Y-34694819D01*
X165611541Y-18454819D02*
X166230588Y-18454819D01*
X166230588Y-18454819D02*
X165897255Y-18835771D01*
X165897255Y-18835771D02*
X166040112Y-18835771D01*
X166040112Y-18835771D02*
X166135350Y-18883390D01*
X166135350Y-18883390D02*
X166182969Y-18931009D01*
X166182969Y-18931009D02*
X166230588Y-19026247D01*
X166230588Y-19026247D02*
X166230588Y-19264342D01*
X166230588Y-19264342D02*
X166182969Y-19359580D01*
X166182969Y-19359580D02*
X166135350Y-19407200D01*
X166135350Y-19407200D02*
X166040112Y-19454819D01*
X166040112Y-19454819D02*
X165754398Y-19454819D01*
X165754398Y-19454819D02*
X165659160Y-19407200D01*
X165659160Y-19407200D02*
X165611541Y-19359580D01*
X166516303Y-18454819D02*
X166849636Y-19454819D01*
X166849636Y-19454819D02*
X167182969Y-18454819D01*
X167421065Y-18454819D02*
X168040112Y-18454819D01*
X168040112Y-18454819D02*
X167706779Y-18835771D01*
X167706779Y-18835771D02*
X167849636Y-18835771D01*
X167849636Y-18835771D02*
X167944874Y-18883390D01*
X167944874Y-18883390D02*
X167992493Y-18931009D01*
X167992493Y-18931009D02*
X168040112Y-19026247D01*
X168040112Y-19026247D02*
X168040112Y-19264342D01*
X168040112Y-19264342D02*
X167992493Y-19359580D01*
X167992493Y-19359580D02*
X167944874Y-19407200D01*
X167944874Y-19407200D02*
X167849636Y-19454819D01*
X167849636Y-19454819D02*
X167563922Y-19454819D01*
X167563922Y-19454819D02*
X167468684Y-19407200D01*
X167468684Y-19407200D02*
X167421065Y-19359580D01*
X185845601Y-18502438D02*
X185750363Y-18454819D01*
X185750363Y-18454819D02*
X185607506Y-18454819D01*
X185607506Y-18454819D02*
X185464649Y-18502438D01*
X185464649Y-18502438D02*
X185369411Y-18597676D01*
X185369411Y-18597676D02*
X185321792Y-18692914D01*
X185321792Y-18692914D02*
X185274173Y-18883390D01*
X185274173Y-18883390D02*
X185274173Y-19026247D01*
X185274173Y-19026247D02*
X185321792Y-19216723D01*
X185321792Y-19216723D02*
X185369411Y-19311961D01*
X185369411Y-19311961D02*
X185464649Y-19407200D01*
X185464649Y-19407200D02*
X185607506Y-19454819D01*
X185607506Y-19454819D02*
X185702744Y-19454819D01*
X185702744Y-19454819D02*
X185845601Y-19407200D01*
X185845601Y-19407200D02*
X185893220Y-19359580D01*
X185893220Y-19359580D02*
X185893220Y-19026247D01*
X185893220Y-19026247D02*
X185702744Y-19026247D01*
X186321792Y-19454819D02*
X186321792Y-18454819D01*
X186321792Y-18454819D02*
X186893220Y-19454819D01*
X186893220Y-19454819D02*
X186893220Y-18454819D01*
X187369411Y-19454819D02*
X187369411Y-18454819D01*
X187369411Y-18454819D02*
X187607506Y-18454819D01*
X187607506Y-18454819D02*
X187750363Y-18502438D01*
X187750363Y-18502438D02*
X187845601Y-18597676D01*
X187845601Y-18597676D02*
X187893220Y-18692914D01*
X187893220Y-18692914D02*
X187940839Y-18883390D01*
X187940839Y-18883390D02*
X187940839Y-19026247D01*
X187940839Y-19026247D02*
X187893220Y-19216723D01*
X187893220Y-19216723D02*
X187845601Y-19311961D01*
X187845601Y-19311961D02*
X187750363Y-19407200D01*
X187750363Y-19407200D02*
X187607506Y-19454819D01*
X187607506Y-19454819D02*
X187369411Y-19454819D01*
X165635350Y-57416033D02*
X165635350Y-56716033D01*
X165635350Y-56716033D02*
X165802017Y-56716033D01*
X165802017Y-56716033D02*
X165902017Y-56749366D01*
X165902017Y-56749366D02*
X165968684Y-56816033D01*
X165968684Y-56816033D02*
X166002017Y-56882700D01*
X166002017Y-56882700D02*
X166035350Y-57016033D01*
X166035350Y-57016033D02*
X166035350Y-57116033D01*
X166035350Y-57116033D02*
X166002017Y-57249366D01*
X166002017Y-57249366D02*
X165968684Y-57316033D01*
X165968684Y-57316033D02*
X165902017Y-57382700D01*
X165902017Y-57382700D02*
X165802017Y-57416033D01*
X165802017Y-57416033D02*
X165635350Y-57416033D01*
X166302017Y-56782700D02*
X166335350Y-56749366D01*
X166335350Y-56749366D02*
X166402017Y-56716033D01*
X166402017Y-56716033D02*
X166568684Y-56716033D01*
X166568684Y-56716033D02*
X166635350Y-56749366D01*
X166635350Y-56749366D02*
X166668684Y-56782700D01*
X166668684Y-56782700D02*
X166702017Y-56849366D01*
X166702017Y-56849366D02*
X166702017Y-56916033D01*
X166702017Y-56916033D02*
X166668684Y-57016033D01*
X166668684Y-57016033D02*
X166268684Y-57416033D01*
X166268684Y-57416033D02*
X166702017Y-57416033D01*
X181497983Y-26269366D02*
X181431316Y-26236033D01*
X181431316Y-26236033D02*
X181331316Y-26236033D01*
X181331316Y-26236033D02*
X181231316Y-26269366D01*
X181231316Y-26269366D02*
X181164650Y-26336033D01*
X181164650Y-26336033D02*
X181131316Y-26402700D01*
X181131316Y-26402700D02*
X181097983Y-26536033D01*
X181097983Y-26536033D02*
X181097983Y-26636033D01*
X181097983Y-26636033D02*
X181131316Y-26769366D01*
X181131316Y-26769366D02*
X181164650Y-26836033D01*
X181164650Y-26836033D02*
X181231316Y-26902700D01*
X181231316Y-26902700D02*
X181331316Y-26936033D01*
X181331316Y-26936033D02*
X181397983Y-26936033D01*
X181397983Y-26936033D02*
X181497983Y-26902700D01*
X181497983Y-26902700D02*
X181531316Y-26869366D01*
X181531316Y-26869366D02*
X181531316Y-26636033D01*
X181531316Y-26636033D02*
X181397983Y-26636033D01*
X181831316Y-26936033D02*
X181831316Y-26236033D01*
X181831316Y-26236033D02*
X182097983Y-26236033D01*
X182097983Y-26236033D02*
X182164650Y-26269366D01*
X182164650Y-26269366D02*
X182197983Y-26302700D01*
X182197983Y-26302700D02*
X182231316Y-26369366D01*
X182231316Y-26369366D02*
X182231316Y-26469366D01*
X182231316Y-26469366D02*
X182197983Y-26536033D01*
X182197983Y-26536033D02*
X182164650Y-26569366D01*
X182164650Y-26569366D02*
X182097983Y-26602700D01*
X182097983Y-26602700D02*
X181831316Y-26602700D01*
X182531316Y-26936033D02*
X182531316Y-26236033D01*
X182997983Y-26236033D02*
X183131316Y-26236033D01*
X183131316Y-26236033D02*
X183197983Y-26269366D01*
X183197983Y-26269366D02*
X183264649Y-26336033D01*
X183264649Y-26336033D02*
X183297983Y-26469366D01*
X183297983Y-26469366D02*
X183297983Y-26702700D01*
X183297983Y-26702700D02*
X183264649Y-26836033D01*
X183264649Y-26836033D02*
X183197983Y-26902700D01*
X183197983Y-26902700D02*
X183131316Y-26936033D01*
X183131316Y-26936033D02*
X182997983Y-26936033D01*
X182997983Y-26936033D02*
X182931316Y-26902700D01*
X182931316Y-26902700D02*
X182864649Y-26836033D01*
X182864649Y-26836033D02*
X182831316Y-26702700D01*
X182831316Y-26702700D02*
X182831316Y-26469366D01*
X182831316Y-26469366D02*
X182864649Y-26336033D01*
X182864649Y-26336033D02*
X182931316Y-26269366D01*
X182931316Y-26269366D02*
X182997983Y-26236033D01*
X183964649Y-26936033D02*
X183564649Y-26936033D01*
X183764649Y-26936033D02*
X183764649Y-26236033D01*
X183764649Y-26236033D02*
X183697982Y-26336033D01*
X183697982Y-26336033D02*
X183631316Y-26402700D01*
X183631316Y-26402700D02*
X183564649Y-26436033D01*
X184764649Y-26202700D02*
X184164649Y-27102700D01*
X184997982Y-26236033D02*
X184997982Y-26802700D01*
X184997982Y-26802700D02*
X185031316Y-26869366D01*
X185031316Y-26869366D02*
X185064649Y-26902700D01*
X185064649Y-26902700D02*
X185131316Y-26936033D01*
X185131316Y-26936033D02*
X185264649Y-26936033D01*
X185264649Y-26936033D02*
X185331316Y-26902700D01*
X185331316Y-26902700D02*
X185364649Y-26869366D01*
X185364649Y-26869366D02*
X185397982Y-26802700D01*
X185397982Y-26802700D02*
X185397982Y-26236033D01*
X185864649Y-26236033D02*
X185931315Y-26236033D01*
X185931315Y-26236033D02*
X185997982Y-26269366D01*
X185997982Y-26269366D02*
X186031315Y-26302700D01*
X186031315Y-26302700D02*
X186064649Y-26369366D01*
X186064649Y-26369366D02*
X186097982Y-26502700D01*
X186097982Y-26502700D02*
X186097982Y-26669366D01*
X186097982Y-26669366D02*
X186064649Y-26802700D01*
X186064649Y-26802700D02*
X186031315Y-26869366D01*
X186031315Y-26869366D02*
X185997982Y-26902700D01*
X185997982Y-26902700D02*
X185931315Y-26936033D01*
X185931315Y-26936033D02*
X185864649Y-26936033D01*
X185864649Y-26936033D02*
X185797982Y-26902700D01*
X185797982Y-26902700D02*
X185764649Y-26869366D01*
X185764649Y-26869366D02*
X185731315Y-26802700D01*
X185731315Y-26802700D02*
X185697982Y-26669366D01*
X185697982Y-26669366D02*
X185697982Y-26502700D01*
X185697982Y-26502700D02*
X185731315Y-26369366D01*
X185731315Y-26369366D02*
X185764649Y-26302700D01*
X185764649Y-26302700D02*
X185797982Y-26269366D01*
X185797982Y-26269366D02*
X185864649Y-26236033D01*
X186297982Y-26236033D02*
X186697982Y-26236033D01*
X186497982Y-26936033D02*
X186497982Y-26236033D01*
X186864649Y-26236033D02*
X187331315Y-26936033D01*
X187331315Y-26236033D02*
X186864649Y-26936033D01*
X187597982Y-26936033D02*
X187597982Y-26236033D01*
X187597982Y-26236033D02*
X187764649Y-26236033D01*
X187764649Y-26236033D02*
X187864649Y-26269366D01*
X187864649Y-26269366D02*
X187931316Y-26336033D01*
X187931316Y-26336033D02*
X187964649Y-26402700D01*
X187964649Y-26402700D02*
X187997982Y-26536033D01*
X187997982Y-26536033D02*
X187997982Y-26636033D01*
X187997982Y-26636033D02*
X187964649Y-26769366D01*
X187964649Y-26769366D02*
X187931316Y-26836033D01*
X187931316Y-26836033D02*
X187864649Y-26902700D01*
X187864649Y-26902700D02*
X187764649Y-26936033D01*
X187764649Y-26936033D02*
X187597982Y-26936033D01*
X166002017Y-33889366D02*
X165935350Y-33856033D01*
X165935350Y-33856033D02*
X165835350Y-33856033D01*
X165835350Y-33856033D02*
X165735350Y-33889366D01*
X165735350Y-33889366D02*
X165668684Y-33956033D01*
X165668684Y-33956033D02*
X165635350Y-34022700D01*
X165635350Y-34022700D02*
X165602017Y-34156033D01*
X165602017Y-34156033D02*
X165602017Y-34256033D01*
X165602017Y-34256033D02*
X165635350Y-34389366D01*
X165635350Y-34389366D02*
X165668684Y-34456033D01*
X165668684Y-34456033D02*
X165735350Y-34522700D01*
X165735350Y-34522700D02*
X165835350Y-34556033D01*
X165835350Y-34556033D02*
X165902017Y-34556033D01*
X165902017Y-34556033D02*
X166002017Y-34522700D01*
X166002017Y-34522700D02*
X166035350Y-34489366D01*
X166035350Y-34489366D02*
X166035350Y-34256033D01*
X166035350Y-34256033D02*
X165902017Y-34256033D01*
X166335350Y-34556033D02*
X166335350Y-33856033D01*
X166335350Y-33856033D02*
X166602017Y-33856033D01*
X166602017Y-33856033D02*
X166668684Y-33889366D01*
X166668684Y-33889366D02*
X166702017Y-33922700D01*
X166702017Y-33922700D02*
X166735350Y-33989366D01*
X166735350Y-33989366D02*
X166735350Y-34089366D01*
X166735350Y-34089366D02*
X166702017Y-34156033D01*
X166702017Y-34156033D02*
X166668684Y-34189366D01*
X166668684Y-34189366D02*
X166602017Y-34222700D01*
X166602017Y-34222700D02*
X166335350Y-34222700D01*
X167035350Y-34556033D02*
X167035350Y-33856033D01*
X167502017Y-33856033D02*
X167635350Y-33856033D01*
X167635350Y-33856033D02*
X167702017Y-33889366D01*
X167702017Y-33889366D02*
X167768683Y-33956033D01*
X167768683Y-33956033D02*
X167802017Y-34089366D01*
X167802017Y-34089366D02*
X167802017Y-34322700D01*
X167802017Y-34322700D02*
X167768683Y-34456033D01*
X167768683Y-34456033D02*
X167702017Y-34522700D01*
X167702017Y-34522700D02*
X167635350Y-34556033D01*
X167635350Y-34556033D02*
X167502017Y-34556033D01*
X167502017Y-34556033D02*
X167435350Y-34522700D01*
X167435350Y-34522700D02*
X167368683Y-34456033D01*
X167368683Y-34456033D02*
X167335350Y-34322700D01*
X167335350Y-34322700D02*
X167335350Y-34089366D01*
X167335350Y-34089366D02*
X167368683Y-33956033D01*
X167368683Y-33956033D02*
X167435350Y-33889366D01*
X167435350Y-33889366D02*
X167502017Y-33856033D01*
X168035350Y-33856033D02*
X168468683Y-33856033D01*
X168468683Y-33856033D02*
X168235350Y-34122700D01*
X168235350Y-34122700D02*
X168335350Y-34122700D01*
X168335350Y-34122700D02*
X168402016Y-34156033D01*
X168402016Y-34156033D02*
X168435350Y-34189366D01*
X168435350Y-34189366D02*
X168468683Y-34256033D01*
X168468683Y-34256033D02*
X168468683Y-34422700D01*
X168468683Y-34422700D02*
X168435350Y-34489366D01*
X168435350Y-34489366D02*
X168402016Y-34522700D01*
X168402016Y-34522700D02*
X168335350Y-34556033D01*
X168335350Y-34556033D02*
X168135350Y-34556033D01*
X168135350Y-34556033D02*
X168068683Y-34522700D01*
X168068683Y-34522700D02*
X168035350Y-34489366D01*
X168735350Y-33922700D02*
X168768683Y-33889366D01*
X168768683Y-33889366D02*
X168835350Y-33856033D01*
X168835350Y-33856033D02*
X169002017Y-33856033D01*
X169002017Y-33856033D02*
X169068683Y-33889366D01*
X169068683Y-33889366D02*
X169102017Y-33922700D01*
X169102017Y-33922700D02*
X169135350Y-33989366D01*
X169135350Y-33989366D02*
X169135350Y-34056033D01*
X169135350Y-34056033D02*
X169102017Y-34156033D01*
X169102017Y-34156033D02*
X168702017Y-34556033D01*
X168702017Y-34556033D02*
X169135350Y-34556033D01*
X166230588Y-51522438D02*
X166135350Y-51474819D01*
X166135350Y-51474819D02*
X165992493Y-51474819D01*
X165992493Y-51474819D02*
X165849636Y-51522438D01*
X165849636Y-51522438D02*
X165754398Y-51617676D01*
X165754398Y-51617676D02*
X165706779Y-51712914D01*
X165706779Y-51712914D02*
X165659160Y-51903390D01*
X165659160Y-51903390D02*
X165659160Y-52046247D01*
X165659160Y-52046247D02*
X165706779Y-52236723D01*
X165706779Y-52236723D02*
X165754398Y-52331961D01*
X165754398Y-52331961D02*
X165849636Y-52427200D01*
X165849636Y-52427200D02*
X165992493Y-52474819D01*
X165992493Y-52474819D02*
X166087731Y-52474819D01*
X166087731Y-52474819D02*
X166230588Y-52427200D01*
X166230588Y-52427200D02*
X166278207Y-52379580D01*
X166278207Y-52379580D02*
X166278207Y-52046247D01*
X166278207Y-52046247D02*
X166087731Y-52046247D01*
X166706779Y-52474819D02*
X166706779Y-51474819D01*
X166706779Y-51474819D02*
X167278207Y-52474819D01*
X167278207Y-52474819D02*
X167278207Y-51474819D01*
X167754398Y-52474819D02*
X167754398Y-51474819D01*
X167754398Y-51474819D02*
X167992493Y-51474819D01*
X167992493Y-51474819D02*
X168135350Y-51522438D01*
X168135350Y-51522438D02*
X168230588Y-51617676D01*
X168230588Y-51617676D02*
X168278207Y-51712914D01*
X168278207Y-51712914D02*
X168325826Y-51903390D01*
X168325826Y-51903390D02*
X168325826Y-52046247D01*
X168325826Y-52046247D02*
X168278207Y-52236723D01*
X168278207Y-52236723D02*
X168230588Y-52331961D01*
X168230588Y-52331961D02*
X168135350Y-52427200D01*
X168135350Y-52427200D02*
X167992493Y-52474819D01*
X167992493Y-52474819D02*
X167754398Y-52474819D01*
X184864649Y-23729366D02*
X184797982Y-23696033D01*
X184797982Y-23696033D02*
X184697982Y-23696033D01*
X184697982Y-23696033D02*
X184597982Y-23729366D01*
X184597982Y-23729366D02*
X184531316Y-23796033D01*
X184531316Y-23796033D02*
X184497982Y-23862700D01*
X184497982Y-23862700D02*
X184464649Y-23996033D01*
X184464649Y-23996033D02*
X184464649Y-24096033D01*
X184464649Y-24096033D02*
X184497982Y-24229366D01*
X184497982Y-24229366D02*
X184531316Y-24296033D01*
X184531316Y-24296033D02*
X184597982Y-24362700D01*
X184597982Y-24362700D02*
X184697982Y-24396033D01*
X184697982Y-24396033D02*
X184764649Y-24396033D01*
X184764649Y-24396033D02*
X184864649Y-24362700D01*
X184864649Y-24362700D02*
X184897982Y-24329366D01*
X184897982Y-24329366D02*
X184897982Y-24096033D01*
X184897982Y-24096033D02*
X184764649Y-24096033D01*
X185197982Y-24396033D02*
X185197982Y-23696033D01*
X185197982Y-23696033D02*
X185464649Y-23696033D01*
X185464649Y-23696033D02*
X185531316Y-23729366D01*
X185531316Y-23729366D02*
X185564649Y-23762700D01*
X185564649Y-23762700D02*
X185597982Y-23829366D01*
X185597982Y-23829366D02*
X185597982Y-23929366D01*
X185597982Y-23929366D02*
X185564649Y-23996033D01*
X185564649Y-23996033D02*
X185531316Y-24029366D01*
X185531316Y-24029366D02*
X185464649Y-24062700D01*
X185464649Y-24062700D02*
X185197982Y-24062700D01*
X185897982Y-24396033D02*
X185897982Y-23696033D01*
X186364649Y-23696033D02*
X186497982Y-23696033D01*
X186497982Y-23696033D02*
X186564649Y-23729366D01*
X186564649Y-23729366D02*
X186631315Y-23796033D01*
X186631315Y-23796033D02*
X186664649Y-23929366D01*
X186664649Y-23929366D02*
X186664649Y-24162700D01*
X186664649Y-24162700D02*
X186631315Y-24296033D01*
X186631315Y-24296033D02*
X186564649Y-24362700D01*
X186564649Y-24362700D02*
X186497982Y-24396033D01*
X186497982Y-24396033D02*
X186364649Y-24396033D01*
X186364649Y-24396033D02*
X186297982Y-24362700D01*
X186297982Y-24362700D02*
X186231315Y-24296033D01*
X186231315Y-24296033D02*
X186197982Y-24162700D01*
X186197982Y-24162700D02*
X186197982Y-23929366D01*
X186197982Y-23929366D02*
X186231315Y-23796033D01*
X186231315Y-23796033D02*
X186297982Y-23729366D01*
X186297982Y-23729366D02*
X186364649Y-23696033D01*
X186931315Y-23762700D02*
X186964648Y-23729366D01*
X186964648Y-23729366D02*
X187031315Y-23696033D01*
X187031315Y-23696033D02*
X187197982Y-23696033D01*
X187197982Y-23696033D02*
X187264648Y-23729366D01*
X187264648Y-23729366D02*
X187297982Y-23762700D01*
X187297982Y-23762700D02*
X187331315Y-23829366D01*
X187331315Y-23829366D02*
X187331315Y-23896033D01*
X187331315Y-23896033D02*
X187297982Y-23996033D01*
X187297982Y-23996033D02*
X186897982Y-24396033D01*
X186897982Y-24396033D02*
X187331315Y-24396033D01*
X187597982Y-23762700D02*
X187631315Y-23729366D01*
X187631315Y-23729366D02*
X187697982Y-23696033D01*
X187697982Y-23696033D02*
X187864649Y-23696033D01*
X187864649Y-23696033D02*
X187931315Y-23729366D01*
X187931315Y-23729366D02*
X187964649Y-23762700D01*
X187964649Y-23762700D02*
X187997982Y-23829366D01*
X187997982Y-23829366D02*
X187997982Y-23896033D01*
X187997982Y-23896033D02*
X187964649Y-23996033D01*
X187964649Y-23996033D02*
X187564649Y-24396033D01*
X187564649Y-24396033D02*
X187997982Y-24396033D01*
X166002017Y-54209366D02*
X165935350Y-54176033D01*
X165935350Y-54176033D02*
X165835350Y-54176033D01*
X165835350Y-54176033D02*
X165735350Y-54209366D01*
X165735350Y-54209366D02*
X165668684Y-54276033D01*
X165668684Y-54276033D02*
X165635350Y-54342700D01*
X165635350Y-54342700D02*
X165602017Y-54476033D01*
X165602017Y-54476033D02*
X165602017Y-54576033D01*
X165602017Y-54576033D02*
X165635350Y-54709366D01*
X165635350Y-54709366D02*
X165668684Y-54776033D01*
X165668684Y-54776033D02*
X165735350Y-54842700D01*
X165735350Y-54842700D02*
X165835350Y-54876033D01*
X165835350Y-54876033D02*
X165902017Y-54876033D01*
X165902017Y-54876033D02*
X166002017Y-54842700D01*
X166002017Y-54842700D02*
X166035350Y-54809366D01*
X166035350Y-54809366D02*
X166035350Y-54576033D01*
X166035350Y-54576033D02*
X165902017Y-54576033D01*
X166335350Y-54876033D02*
X166335350Y-54176033D01*
X166335350Y-54176033D02*
X166602017Y-54176033D01*
X166602017Y-54176033D02*
X166668684Y-54209366D01*
X166668684Y-54209366D02*
X166702017Y-54242700D01*
X166702017Y-54242700D02*
X166735350Y-54309366D01*
X166735350Y-54309366D02*
X166735350Y-54409366D01*
X166735350Y-54409366D02*
X166702017Y-54476033D01*
X166702017Y-54476033D02*
X166668684Y-54509366D01*
X166668684Y-54509366D02*
X166602017Y-54542700D01*
X166602017Y-54542700D02*
X166335350Y-54542700D01*
X167035350Y-54876033D02*
X167035350Y-54176033D01*
X167502017Y-54176033D02*
X167635350Y-54176033D01*
X167635350Y-54176033D02*
X167702017Y-54209366D01*
X167702017Y-54209366D02*
X167768683Y-54276033D01*
X167768683Y-54276033D02*
X167802017Y-54409366D01*
X167802017Y-54409366D02*
X167802017Y-54642700D01*
X167802017Y-54642700D02*
X167768683Y-54776033D01*
X167768683Y-54776033D02*
X167702017Y-54842700D01*
X167702017Y-54842700D02*
X167635350Y-54876033D01*
X167635350Y-54876033D02*
X167502017Y-54876033D01*
X167502017Y-54876033D02*
X167435350Y-54842700D01*
X167435350Y-54842700D02*
X167368683Y-54776033D01*
X167368683Y-54776033D02*
X167335350Y-54642700D01*
X167335350Y-54642700D02*
X167335350Y-54409366D01*
X167335350Y-54409366D02*
X167368683Y-54276033D01*
X167368683Y-54276033D02*
X167435350Y-54209366D01*
X167435350Y-54209366D02*
X167502017Y-54176033D01*
X168468683Y-54876033D02*
X168068683Y-54876033D01*
X168268683Y-54876033D02*
X168268683Y-54176033D01*
X168268683Y-54176033D02*
X168202016Y-54276033D01*
X168202016Y-54276033D02*
X168135350Y-54342700D01*
X168135350Y-54342700D02*
X168068683Y-54376033D01*
X168702017Y-54176033D02*
X169135350Y-54176033D01*
X169135350Y-54176033D02*
X168902017Y-54442700D01*
X168902017Y-54442700D02*
X169002017Y-54442700D01*
X169002017Y-54442700D02*
X169068683Y-54476033D01*
X169068683Y-54476033D02*
X169102017Y-54509366D01*
X169102017Y-54509366D02*
X169135350Y-54576033D01*
X169135350Y-54576033D02*
X169135350Y-54742700D01*
X169135350Y-54742700D02*
X169102017Y-54809366D01*
X169102017Y-54809366D02*
X169068683Y-54842700D01*
X169068683Y-54842700D02*
X169002017Y-54876033D01*
X169002017Y-54876033D02*
X168802017Y-54876033D01*
X168802017Y-54876033D02*
X168735350Y-54842700D01*
X168735350Y-54842700D02*
X168702017Y-54809366D01*
X169935350Y-54142700D02*
X169335350Y-55042700D01*
X170168683Y-54876033D02*
X170168683Y-54176033D01*
X170168683Y-54176033D02*
X170402017Y-54676033D01*
X170402017Y-54676033D02*
X170635350Y-54176033D01*
X170635350Y-54176033D02*
X170635350Y-54876033D01*
X170868683Y-54176033D02*
X171268683Y-54176033D01*
X171068683Y-54876033D02*
X171068683Y-54176033D01*
X171902016Y-54809366D02*
X171868683Y-54842700D01*
X171868683Y-54842700D02*
X171768683Y-54876033D01*
X171768683Y-54876033D02*
X171702016Y-54876033D01*
X171702016Y-54876033D02*
X171602016Y-54842700D01*
X171602016Y-54842700D02*
X171535350Y-54776033D01*
X171535350Y-54776033D02*
X171502016Y-54709366D01*
X171502016Y-54709366D02*
X171468683Y-54576033D01*
X171468683Y-54576033D02*
X171468683Y-54476033D01*
X171468683Y-54476033D02*
X171502016Y-54342700D01*
X171502016Y-54342700D02*
X171535350Y-54276033D01*
X171535350Y-54276033D02*
X171602016Y-54209366D01*
X171602016Y-54209366D02*
X171702016Y-54176033D01*
X171702016Y-54176033D02*
X171768683Y-54176033D01*
X171768683Y-54176033D02*
X171868683Y-54209366D01*
X171868683Y-54209366D02*
X171902016Y-54242700D01*
X172202016Y-54876033D02*
X172202016Y-54176033D01*
X172602016Y-54876033D02*
X172302016Y-54476033D01*
X172602016Y-54176033D02*
X172202016Y-54576033D01*
X165535350Y-26236033D02*
X165768684Y-26936033D01*
X165768684Y-26936033D02*
X166002017Y-26236033D01*
X166235350Y-26936033D02*
X166235350Y-26236033D01*
X166235350Y-26236033D02*
X166635350Y-26936033D01*
X166635350Y-26936033D02*
X166635350Y-26236033D01*
X167468683Y-26202700D02*
X166868683Y-27102700D01*
X168068683Y-26269366D02*
X168002016Y-26236033D01*
X168002016Y-26236033D02*
X167902016Y-26236033D01*
X167902016Y-26236033D02*
X167802016Y-26269366D01*
X167802016Y-26269366D02*
X167735350Y-26336033D01*
X167735350Y-26336033D02*
X167702016Y-26402700D01*
X167702016Y-26402700D02*
X167668683Y-26536033D01*
X167668683Y-26536033D02*
X167668683Y-26636033D01*
X167668683Y-26636033D02*
X167702016Y-26769366D01*
X167702016Y-26769366D02*
X167735350Y-26836033D01*
X167735350Y-26836033D02*
X167802016Y-26902700D01*
X167802016Y-26902700D02*
X167902016Y-26936033D01*
X167902016Y-26936033D02*
X167968683Y-26936033D01*
X167968683Y-26936033D02*
X168068683Y-26902700D01*
X168068683Y-26902700D02*
X168102016Y-26869366D01*
X168102016Y-26869366D02*
X168102016Y-26636033D01*
X168102016Y-26636033D02*
X167968683Y-26636033D01*
X168402016Y-26936033D02*
X168402016Y-26236033D01*
X168402016Y-26236033D02*
X168668683Y-26236033D01*
X168668683Y-26236033D02*
X168735350Y-26269366D01*
X168735350Y-26269366D02*
X168768683Y-26302700D01*
X168768683Y-26302700D02*
X168802016Y-26369366D01*
X168802016Y-26369366D02*
X168802016Y-26469366D01*
X168802016Y-26469366D02*
X168768683Y-26536033D01*
X168768683Y-26536033D02*
X168735350Y-26569366D01*
X168735350Y-26569366D02*
X168668683Y-26602700D01*
X168668683Y-26602700D02*
X168402016Y-26602700D01*
X169102016Y-26936033D02*
X169102016Y-26236033D01*
X169568683Y-26236033D02*
X169702016Y-26236033D01*
X169702016Y-26236033D02*
X169768683Y-26269366D01*
X169768683Y-26269366D02*
X169835349Y-26336033D01*
X169835349Y-26336033D02*
X169868683Y-26469366D01*
X169868683Y-26469366D02*
X169868683Y-26702700D01*
X169868683Y-26702700D02*
X169835349Y-26836033D01*
X169835349Y-26836033D02*
X169768683Y-26902700D01*
X169768683Y-26902700D02*
X169702016Y-26936033D01*
X169702016Y-26936033D02*
X169568683Y-26936033D01*
X169568683Y-26936033D02*
X169502016Y-26902700D01*
X169502016Y-26902700D02*
X169435349Y-26836033D01*
X169435349Y-26836033D02*
X169402016Y-26702700D01*
X169402016Y-26702700D02*
X169402016Y-26469366D01*
X169402016Y-26469366D02*
X169435349Y-26336033D01*
X169435349Y-26336033D02*
X169502016Y-26269366D01*
X169502016Y-26269366D02*
X169568683Y-26236033D01*
X170102016Y-26236033D02*
X170535349Y-26236033D01*
X170535349Y-26236033D02*
X170302016Y-26502700D01*
X170302016Y-26502700D02*
X170402016Y-26502700D01*
X170402016Y-26502700D02*
X170468682Y-26536033D01*
X170468682Y-26536033D02*
X170502016Y-26569366D01*
X170502016Y-26569366D02*
X170535349Y-26636033D01*
X170535349Y-26636033D02*
X170535349Y-26802700D01*
X170535349Y-26802700D02*
X170502016Y-26869366D01*
X170502016Y-26869366D02*
X170468682Y-26902700D01*
X170468682Y-26902700D02*
X170402016Y-26936033D01*
X170402016Y-26936033D02*
X170202016Y-26936033D01*
X170202016Y-26936033D02*
X170135349Y-26902700D01*
X170135349Y-26902700D02*
X170102016Y-26869366D01*
X170868683Y-26936033D02*
X171002016Y-26936033D01*
X171002016Y-26936033D02*
X171068683Y-26902700D01*
X171068683Y-26902700D02*
X171102016Y-26869366D01*
X171102016Y-26869366D02*
X171168683Y-26769366D01*
X171168683Y-26769366D02*
X171202016Y-26636033D01*
X171202016Y-26636033D02*
X171202016Y-26369366D01*
X171202016Y-26369366D02*
X171168683Y-26302700D01*
X171168683Y-26302700D02*
X171135349Y-26269366D01*
X171135349Y-26269366D02*
X171068683Y-26236033D01*
X171068683Y-26236033D02*
X170935349Y-26236033D01*
X170935349Y-26236033D02*
X170868683Y-26269366D01*
X170868683Y-26269366D02*
X170835349Y-26302700D01*
X170835349Y-26302700D02*
X170802016Y-26369366D01*
X170802016Y-26369366D02*
X170802016Y-26536033D01*
X170802016Y-26536033D02*
X170835349Y-26602700D01*
X170835349Y-26602700D02*
X170868683Y-26636033D01*
X170868683Y-26636033D02*
X170935349Y-26669366D01*
X170935349Y-26669366D02*
X171068683Y-26669366D01*
X171068683Y-26669366D02*
X171135349Y-26636033D01*
X171135349Y-26636033D02*
X171168683Y-26602700D01*
X171168683Y-26602700D02*
X171202016Y-26536033D01*
X185531316Y-54209366D02*
X185464649Y-54176033D01*
X185464649Y-54176033D02*
X185364649Y-54176033D01*
X185364649Y-54176033D02*
X185264649Y-54209366D01*
X185264649Y-54209366D02*
X185197983Y-54276033D01*
X185197983Y-54276033D02*
X185164649Y-54342700D01*
X185164649Y-54342700D02*
X185131316Y-54476033D01*
X185131316Y-54476033D02*
X185131316Y-54576033D01*
X185131316Y-54576033D02*
X185164649Y-54709366D01*
X185164649Y-54709366D02*
X185197983Y-54776033D01*
X185197983Y-54776033D02*
X185264649Y-54842700D01*
X185264649Y-54842700D02*
X185364649Y-54876033D01*
X185364649Y-54876033D02*
X185431316Y-54876033D01*
X185431316Y-54876033D02*
X185531316Y-54842700D01*
X185531316Y-54842700D02*
X185564649Y-54809366D01*
X185564649Y-54809366D02*
X185564649Y-54576033D01*
X185564649Y-54576033D02*
X185431316Y-54576033D01*
X185864649Y-54876033D02*
X185864649Y-54176033D01*
X185864649Y-54176033D02*
X186131316Y-54176033D01*
X186131316Y-54176033D02*
X186197983Y-54209366D01*
X186197983Y-54209366D02*
X186231316Y-54242700D01*
X186231316Y-54242700D02*
X186264649Y-54309366D01*
X186264649Y-54309366D02*
X186264649Y-54409366D01*
X186264649Y-54409366D02*
X186231316Y-54476033D01*
X186231316Y-54476033D02*
X186197983Y-54509366D01*
X186197983Y-54509366D02*
X186131316Y-54542700D01*
X186131316Y-54542700D02*
X185864649Y-54542700D01*
X186564649Y-54876033D02*
X186564649Y-54176033D01*
X187031316Y-54176033D02*
X187164649Y-54176033D01*
X187164649Y-54176033D02*
X187231316Y-54209366D01*
X187231316Y-54209366D02*
X187297982Y-54276033D01*
X187297982Y-54276033D02*
X187331316Y-54409366D01*
X187331316Y-54409366D02*
X187331316Y-54642700D01*
X187331316Y-54642700D02*
X187297982Y-54776033D01*
X187297982Y-54776033D02*
X187231316Y-54842700D01*
X187231316Y-54842700D02*
X187164649Y-54876033D01*
X187164649Y-54876033D02*
X187031316Y-54876033D01*
X187031316Y-54876033D02*
X186964649Y-54842700D01*
X186964649Y-54842700D02*
X186897982Y-54776033D01*
X186897982Y-54776033D02*
X186864649Y-54642700D01*
X186864649Y-54642700D02*
X186864649Y-54409366D01*
X186864649Y-54409366D02*
X186897982Y-54276033D01*
X186897982Y-54276033D02*
X186964649Y-54209366D01*
X186964649Y-54209366D02*
X187031316Y-54176033D01*
X187597982Y-54242700D02*
X187631315Y-54209366D01*
X187631315Y-54209366D02*
X187697982Y-54176033D01*
X187697982Y-54176033D02*
X187864649Y-54176033D01*
X187864649Y-54176033D02*
X187931315Y-54209366D01*
X187931315Y-54209366D02*
X187964649Y-54242700D01*
X187964649Y-54242700D02*
X187997982Y-54309366D01*
X187997982Y-54309366D02*
X187997982Y-54376033D01*
X187997982Y-54376033D02*
X187964649Y-54476033D01*
X187964649Y-54476033D02*
X187564649Y-54876033D01*
X187564649Y-54876033D02*
X187997982Y-54876033D01*
X186931315Y-59956033D02*
X186931315Y-59256033D01*
X186931315Y-59256033D02*
X187097982Y-59256033D01*
X187097982Y-59256033D02*
X187197982Y-59289366D01*
X187197982Y-59289366D02*
X187264649Y-59356033D01*
X187264649Y-59356033D02*
X187297982Y-59422700D01*
X187297982Y-59422700D02*
X187331315Y-59556033D01*
X187331315Y-59556033D02*
X187331315Y-59656033D01*
X187331315Y-59656033D02*
X187297982Y-59789366D01*
X187297982Y-59789366D02*
X187264649Y-59856033D01*
X187264649Y-59856033D02*
X187197982Y-59922700D01*
X187197982Y-59922700D02*
X187097982Y-59956033D01*
X187097982Y-59956033D02*
X186931315Y-59956033D01*
X187997982Y-59956033D02*
X187597982Y-59956033D01*
X187797982Y-59956033D02*
X187797982Y-59256033D01*
X187797982Y-59256033D02*
X187731315Y-59356033D01*
X187731315Y-59356033D02*
X187664649Y-59422700D01*
X187664649Y-59422700D02*
X187597982Y-59456033D01*
%TO.C,D1*%
D11*
X170920000Y-92000000D02*
X171570000Y-92000000D01*
X172170000Y-90880000D02*
X172170000Y-93120000D01*
X172290000Y-90880000D02*
X172290000Y-93120000D01*
X172410000Y-90880000D02*
X172410000Y-93120000D01*
X176460000Y-92000000D02*
X175810000Y-92000000D01*
X171570000Y-90880000D02*
X175810000Y-90880000D01*
X175810000Y-93120000D01*
X171570000Y-93120000D01*
X171570000Y-90880000D01*
%TO.C,SW5*%
D10*
X180310000Y-101040000D02*
X180310000Y-100040000D01*
X180310000Y-114040000D02*
X181310000Y-114040000D01*
X181310000Y-100040000D02*
X180310000Y-100040000D01*
X180310000Y-114040000D02*
X180310000Y-113040000D01*
X194310000Y-113040000D02*
X194310000Y-114040000D01*
X194310000Y-100040000D02*
X193310000Y-100040000D01*
X193310000Y-114040000D02*
X194310000Y-114040000D01*
X194310000Y-100040000D02*
X194310000Y-101040000D01*
%TO.C,SW4*%
X153460000Y-101080000D02*
X153460000Y-100080000D01*
X153460000Y-114080000D02*
X154460000Y-114080000D01*
X154460000Y-100080000D02*
X153460000Y-100080000D01*
X153460000Y-114080000D02*
X153460000Y-113080000D01*
X167460000Y-113080000D02*
X167460000Y-114080000D01*
X167460000Y-100080000D02*
X166460000Y-100080000D01*
X166460000Y-114080000D02*
X167460000Y-114080000D01*
X167460000Y-100080000D02*
X167460000Y-101080000D01*
%TO.C,SW2*%
X180310000Y-74540000D02*
X180310000Y-73540000D01*
X180310000Y-87540000D02*
X181310000Y-87540000D01*
X181310000Y-73540000D02*
X180310000Y-73540000D01*
X180310000Y-87540000D02*
X180310000Y-86540000D01*
X194310000Y-86540000D02*
X194310000Y-87540000D01*
X194310000Y-73540000D02*
X193310000Y-73540000D01*
X193310000Y-87540000D02*
X194310000Y-87540000D01*
X194310000Y-73540000D02*
X194310000Y-74540000D01*
%TO.C,SW1*%
X153960000Y-74580000D02*
X153960000Y-73580000D01*
X153960000Y-87580000D02*
X154960000Y-87580000D01*
X154960000Y-73580000D02*
X153960000Y-73580000D01*
X153960000Y-87580000D02*
X153960000Y-86580000D01*
X167960000Y-86580000D02*
X167960000Y-87580000D01*
X167960000Y-73580000D02*
X166960000Y-73580000D01*
X166960000Y-87580000D02*
X167960000Y-87580000D01*
X167960000Y-73580000D02*
X167960000Y-74580000D01*
%TO.C,D6*%
D11*
X184730000Y-95500000D02*
X185380000Y-95500000D01*
X185980000Y-94380000D02*
X185980000Y-96620000D01*
X186100000Y-94380000D02*
X186100000Y-96620000D01*
X186220000Y-94380000D02*
X186220000Y-96620000D01*
X190270000Y-95500000D02*
X189620000Y-95500000D01*
X185380000Y-94380000D02*
X189620000Y-94380000D01*
X189620000Y-96620000D01*
X185380000Y-96620000D01*
X185380000Y-94380000D01*
%TO.C,D4*%
X170920000Y-95500000D02*
X171570000Y-95500000D01*
X172170000Y-94380000D02*
X172170000Y-96620000D01*
X172290000Y-94380000D02*
X172290000Y-96620000D01*
X172410000Y-94380000D02*
X172410000Y-96620000D01*
X176460000Y-95500000D02*
X175810000Y-95500000D01*
X171570000Y-94380000D02*
X175810000Y-94380000D01*
X175810000Y-96620000D01*
X171570000Y-96620000D01*
X171570000Y-94380000D01*
%TO.C,D2*%
X184730000Y-92500000D02*
X185380000Y-92500000D01*
X185980000Y-91380000D02*
X185980000Y-93620000D01*
X186100000Y-91380000D02*
X186100000Y-93620000D01*
X186220000Y-91380000D02*
X186220000Y-93620000D01*
X190270000Y-92500000D02*
X189620000Y-92500000D01*
X185380000Y-91380000D02*
X189620000Y-91380000D01*
X189620000Y-93620000D01*
X185380000Y-93620000D01*
X185380000Y-91380000D01*
%TO.C,U2*%
X191000000Y-17900000D02*
X162600001Y-17900000D01*
X190999999Y-65820000D02*
X191000000Y-17900000D01*
X185813320Y-11986880D02*
X185813320Y-17879680D01*
X167830120Y-17879680D02*
X167830120Y-11986880D01*
X167830120Y-11986880D02*
X185813320Y-11986880D01*
X162600001Y-17900000D02*
X162600000Y-65820000D01*
X162600000Y-65820000D02*
X190999999Y-65820000D01*
%TD*%
M02*
